{"glyphs":{"0":{"ha":833,"x_min":69,"x_max":764,"o":"m 235 0 q 214 8 222 0 l 78 144 q 69 165 69 153 l 69 807 q 78 828 69 819 l 214 964 q 235 972 222 972 l 599 972 q 619 964 611 972 l 756 828 q 764 807 764 819 l 764 165 q 756 144 764 153 l 619 8 q 599 0 611 0 l 235 0 m 292 139 l 542 139 l 625 222 l 625 590 l 278 243 l 208 243 l 208 222 l 292 139 m 556 729 l 625 729 l 625 750 l 542 833 l 292 833 l 208 750 l 208 382 l 556 729 z "},"1":{"ha":833,"x_min":69,"x_max":764,"o":"m 69 139 l 347 139 l 347 833 l 69 833 l 69 972 l 486 972 l 486 139 l 764 139 l 764 0 l 69 0 l 69 139 z "},"2":{"ha":833,"x_min":69,"x_max":764,"o":"m 69 139 l 208 139 l 208 208 l 625 625 l 625 750 l 542 833 l 292 833 l 208 750 l 208 625 l 69 625 l 69 807 q 78 828 69 819 l 214 964 q 235 972 222 972 l 599 972 q 619 964 611 972 l 756 828 q 764 807 764 819 l 764 568 q 756 547 764 556 l 347 139 l 764 139 l 764 0 l 69 0 l 69 139 z "},"3":{"ha":833,"x_min":69,"x_max":764,"o":"m 235 0 q 214 8 222 0 l 78 144 q 69 165 69 153 l 69 347 l 208 347 l 208 222 l 292 139 l 542 139 l 625 222 l 625 347 l 556 417 l 347 417 l 347 556 l 556 556 l 625 625 l 625 750 l 542 833 l 292 833 l 208 750 l 208 625 l 69 625 l 69 807 q 78 828 69 819 l 214 964 q 235 972 222 972 l 599 972 q 619 964 611 972 l 756 828 q 764 807 764 819 l 764 568 q 756 547 764 556 l 694 486 l 756 425 q 764 404 764 417 l 764 165 q 756 144 764 153 l 619 8 q 599 0 611 0 l 235 0 z "},"4":{"ha":833,"x_min":69,"x_max":764,"o":"m 521 208 l 69 208 l 69 451 l 521 903 l 521 972 l 660 972 l 660 347 l 764 347 l 764 208 l 660 208 l 660 0 l 521 0 l 521 208 m 521 347 l 521 708 l 208 396 l 208 347 l 521 347 z "},"5":{"ha":833,"x_min":69,"x_max":764,"o":"m 235 0 q 214 8 222 0 l 78 144 q 69 165 69 153 l 69 347 l 208 347 l 208 222 l 292 139 l 542 139 l 625 222 l 625 403 l 542 486 l 69 486 l 69 972 l 764 972 l 764 833 l 208 833 l 208 625 l 599 625 q 619 617 611 625 l 756 481 q 764 460 764 472 l 764 165 q 756 144 764 153 l 619 8 q 599 0 611 0 l 235 0 z "},"6":{"ha":833,"x_min":69,"x_max":764,"o":"m 235 0 q 214 8 222 0 l 78 144 q 69 165 69 153 l 69 460 q 78 481 69 472 l 500 903 l 500 972 l 639 972 l 639 846 q 631 825 639 833 l 431 625 l 599 625 q 619 617 611 625 l 756 481 q 764 460 764 472 l 764 165 q 756 144 764 153 l 619 8 q 599 0 611 0 l 235 0 m 292 139 l 542 139 l 625 222 l 625 403 l 542 486 l 292 486 l 208 403 l 208 222 l 292 139 z "},"7":{"ha":833,"x_min":69,"x_max":764,"o":"m 69 196 q 78 217 69 208 l 625 764 l 625 833 l 69 833 l 69 972 l 764 972 l 764 694 l 208 139 l 208 0 l 69 0 l 69 196 z "},"8":{"ha":833,"x_min":69,"x_max":764,"o":"m 235 0 q 214 8 222 0 l 78 144 q 69 165 69 153 l 69 404 q 78 425 69 417 l 139 486 l 78 547 q 69 568 69 556 l 69 807 q 78 828 69 819 l 214 964 q 235 972 222 972 l 599 972 q 619 964 611 972 l 756 828 q 764 807 764 819 l 764 568 q 756 547 764 556 l 694 486 l 756 425 q 764 404 764 417 l 764 165 q 756 144 764 153 l 619 8 q 599 0 611 0 l 235 0 m 292 139 l 542 139 l 625 222 l 625 347 l 556 417 l 278 417 l 208 347 l 208 222 l 292 139 m 278 556 l 556 556 l 625 625 l 625 750 l 542 833 l 292 833 l 208 750 l 208 625 l 278 556 z "},"9":{"ha":833,"x_min":69,"x_max":764,"o":"m 194 126 q 203 147 194 139 l 403 347 l 235 347 q 214 356 222 347 l 78 492 q 69 513 69 500 l 69 807 q 78 828 69 819 l 214 964 q 235 972 222 972 l 599 972 q 619 964 611 972 l 756 828 q 764 807 764 819 l 764 513 q 756 492 764 500 l 333 69 l 333 0 l 194 0 l 194 126 m 292 486 l 542 486 l 625 569 l 625 750 l 542 833 l 292 833 l 208 750 l 208 569 l 292 486 z "}," ":{"ha":833,"x_min":0,"x_max":0,"o":""},"!":{"ha":833,"x_min":333,"x_max":500,"o":"m 347 972 l 486 972 l 486 271 l 347 271 l 347 972 m 333 167 l 500 167 l 500 0 l 333 0 l 333 167 z "},"\"":{"ha":833,"x_min":208,"x_max":625,"o":"m 486 972 l 625 972 l 625 583 l 486 583 l 486 972 m 208 972 l 347 972 l 347 583 l 208 583 l 208 972 z "},"#":{"ha":833,"x_min":69,"x_max":764,"o":"m 500 257 l 333 257 l 333 0 l 194 0 l 194 257 l 69 257 l 69 396 l 194 396 l 194 576 l 69 576 l 69 715 l 194 715 l 194 972 l 333 972 l 333 715 l 500 715 l 500 972 l 639 972 l 639 715 l 764 715 l 764 576 l 639 576 l 639 396 l 764 396 l 764 257 l 639 257 l 639 0 l 500 0 l 500 257 m 500 396 l 500 576 l 333 576 l 333 396 l 500 396 z "},"$":{"ha":833,"x_min":69,"x_max":764,"o":"m 235 0 q 214 8 222 0 l 78 144 q 69 165 69 153 l 69 347 l 208 347 l 208 222 l 292 139 l 347 139 l 347 417 l 235 417 q 214 425 222 417 l 78 561 q 69 582 69 569 l 69 807 q 78 828 69 819 l 214 964 q 235 972 222 972 l 347 972 l 347 1076 l 486 1076 l 486 972 l 599 972 q 619 964 611 972 l 756 828 q 764 807 764 819 l 764 625 l 625 625 l 625 750 l 542 833 l 486 833 l 486 556 l 599 556 q 619 547 611 556 l 756 411 q 764 390 764 403 l 764 165 q 756 144 764 153 l 619 8 q 599 0 611 0 l 486 0 l 486 -104 l 347 -104 l 347 0 l 235 0 m 292 556 l 347 556 l 347 833 l 292 833 l 208 750 l 208 639 l 292 556 m 542 139 l 625 222 l 625 333 l 542 417 l 486 417 l 486 139 l 542 139 z "},"%":{"ha":833,"x_min":69,"x_max":764,"o":"m 69 231 q 78 251 69 243 l 625 799 l 625 972 l 764 972 l 764 742 q 756 721 764 729 l 208 174 l 208 0 l 69 0 l 69 231 m 69 861 q 76 878 69 871 l 164 965 q 181 972 171 972 l 332 972 q 349 965 342 972 l 436 878 q 443 861 443 871 l 443 710 q 436 693 443 700 l 349 606 q 332 599 342 599 l 181 599 q 164 606 171 599 l 76 693 q 69 710 69 700 l 69 861 m 226 707 l 286 707 l 335 756 l 335 815 l 286 864 l 226 864 l 178 815 l 178 756 l 226 707 m 390 263 q 397 279 390 272 l 485 367 q 501 374 492 374 l 653 374 q 669 367 663 374 l 757 279 q 764 263 764 272 l 764 111 q 757 94 764 101 l 669 7 q 653 0 663 0 l 501 0 q 485 7 492 0 l 397 94 q 390 111 390 101 l 390 263 m 547 108 l 607 108 l 656 157 l 656 217 l 607 265 l 547 265 l 499 217 l 499 157 l 547 108 z "},"&":{"ha":833,"x_min":69,"x_max":764,"o":"m 221 0 q 200 8 208 0 l 78 131 q 69 151 69 139 l 69 335 q 78 356 69 347 l 174 451 l 78 547 q 69 568 69 556 l 69 821 q 78 842 69 833 l 200 964 q 221 972 208 972 l 335 972 q 356 964 347 972 l 478 842 q 486 821 486 833 l 486 568 q 478 547 486 556 l 382 451 l 556 278 l 660 382 l 764 278 l 660 174 l 764 69 l 764 0 l 625 0 l 556 69 l 494 8 q 474 0 486 0 l 221 0 m 278 139 l 417 139 l 451 174 l 278 347 l 208 278 l 208 208 l 278 139 m 278 556 l 347 625 l 347 764 l 278 833 l 208 764 l 208 625 l 278 556 z "},"'":{"ha":833,"x_min":347,"x_max":486,"o":"m 347 972 l 486 972 l 486 583 l 347 583 l 347 972 z "},"(":{"ha":833,"x_min":319,"x_max":694,"o":"m 485 0 q 464 8 472 0 l 328 144 q 319 165 319 153 l 319 807 q 328 828 319 819 l 464 964 q 485 972 472 972 l 694 972 l 694 833 l 542 833 l 458 750 l 458 222 l 542 139 l 694 139 l 694 0 l 485 0 z "},")":{"ha":833,"x_min":139,"x_max":514,"o":"m 139 139 l 292 139 l 375 222 l 375 750 l 292 833 l 139 833 l 139 972 l 349 972 q 369 964 361 972 l 506 828 q 514 807 514 819 l 514 165 q 506 144 514 153 l 369 8 q 349 0 361 0 l 139 0 l 139 139 z "},"*":{"ha":833,"x_min":190,"x_max":643,"o":"m 417 658 l 350 551 l 233 551 l 326 708 l 190 708 l 190 813 l 328 813 l 232 972 l 350 972 l 417 863 l 483 972 l 601 972 l 506 813 l 643 813 l 643 708 l 506 708 l 601 549 l 483 549 l 417 658 z "},"+":{"ha":833,"x_min":69,"x_max":764,"o":"m 69 556 l 347 556 l 347 833 l 486 833 l 486 556 l 764 556 l 764 417 l 486 417 l 486 139 l 347 139 l 347 417 l 69 417 l 69 556 z "},",":{"ha":833,"x_min":333,"x_max":500,"o":"m 333 -83 l 410 -83 l 410 0 l 333 0 l 333 167 l 500 167 l 500 -169 l 333 -169 l 333 -83 z "},"-":{"ha":833,"x_min":69,"x_max":764,"o":"m 69 556 l 764 556 l 764 417 l 69 417 l 69 556 z "},".":{"ha":833,"x_min":333,"x_max":500,"o":"m 333 167 l 500 167 l 500 0 l 333 0 l 333 167 z "},"/":{"ha":833,"x_min":69,"x_max":764,"o":"m 69 231 q 78 251 69 243 l 625 799 l 625 972 l 764 972 l 764 742 q 756 721 764 729 l 208 174 l 208 0 l 69 0 l 69 231 z "},":":{"ha":833,"x_min":333,"x_max":500,"o":"m 333 167 l 500 167 l 500 0 l 333 0 l 333 167 m 333 694 l 500 694 l 500 528 l 333 528 l 333 694 z "},";":{"ha":833,"x_min":333,"x_max":500,"o":"m 333 694 l 500 694 l 500 528 l 333 528 l 333 694 m 333 -83 l 410 -83 l 410 0 l 333 0 l 333 167 l 500 167 l 500 -169 l 333 -169 l 333 -83 z "},"<":{"ha":833,"x_min":69,"x_max":764,"o":"m 360 56 q 339 64 347 56 l 69 333 l 69 417 l 339 686 q 360 694 347 694 l 764 694 l 764 556 l 417 556 l 236 375 l 417 194 l 764 194 l 764 56 l 360 56 z "},"=":{"ha":833,"x_min":69,"x_max":764,"o":"m 69 694 l 764 694 l 764 556 l 69 556 l 69 694 m 69 417 l 764 417 l 764 278 l 69 278 l 69 417 z "},">":{"ha":833,"x_min":69,"x_max":764,"o":"m 69 194 l 417 194 l 597 375 l 417 556 l 69 556 l 69 694 l 474 694 q 494 686 486 694 l 764 417 l 764 333 l 494 64 q 474 56 486 56 l 69 56 l 69 194 z "},"?":{"ha":833,"x_min":69,"x_max":764,"o":"m 347 404 q 356 425 347 417 l 478 547 q 499 556 486 556 l 542 556 l 625 639 l 625 750 l 542 833 l 292 833 l 208 750 l 208 625 l 69 625 l 69 807 q 78 828 69 819 l 214 964 q 235 972 222 972 l 599 972 q 619 964 611 972 l 756 828 q 764 807 764 819 l 764 582 q 756 561 764 569 l 619 425 q 599 417 611 417 l 556 417 l 486 347 l 486 271 l 347 271 l 347 404 m 333 167 l 500 167 l 500 0 l 333 0 l 333 167 z "},"@":{"ha":833,"x_min":69,"x_max":764,"o":"m 221 0 q 200 8 208 0 l 78 131 q 69 151 69 139 l 69 821 q 78 842 69 833 l 200 964 q 221 972 208 972 l 764 972 l 764 360 q 756 339 764 347 l 633 217 q 613 208 625 208 l 429 208 q 408 217 417 208 l 286 339 q 278 360 278 347 l 278 578 q 286 599 278 590 l 408 721 q 429 729 417 729 l 625 729 l 625 833 l 278 833 l 208 764 l 208 208 l 278 139 l 764 139 l 764 0 l 221 0 m 486 347 l 556 347 l 625 417 l 625 590 l 486 590 l 417 521 l 417 417 l 486 347 z "},"A":{"ha":833,"x_min":69,"x_max":764,"o":"m 69 613 q 78 633 69 625 l 347 903 l 347 972 l 486 972 l 486 903 l 756 633 q 764 613 764 625 l 764 0 l 625 0 l 625 278 l 208 278 l 208 0 l 69 0 l 69 613 m 625 417 l 625 556 l 417 764 l 208 556 l 208 417 l 625 417 z "},"a":{"ha":833,"x_min":69,"x_max":764,"o":"m 69 613 q 78 633 69 625 l 347 903 l 347 972 l 486 972 l 486 903 l 756 633 q 764 613 764 625 l 764 0 l 625 0 l 625 278 l 208 278 l 208 0 l 69 0 l 69 613 m 625 417 l 625 556 l 417 764 l 208 556 l 208 417 l 625 417 z "},"B":{"ha":833,"x_min":69,"x_max":764,"o":"m 69 972 l 599 972 q 619 964 611 972 l 756 828 q 764 807 764 819 l 764 568 q 756 547 764 556 l 694 486 l 756 425 q 764 404 764 417 l 764 165 q 756 144 764 153 l 619 8 q 599 0 611 0 l 69 0 l 69 972 m 542 139 l 625 222 l 625 347 l 556 417 l 208 417 l 208 139 l 542 139 m 556 556 l 625 625 l 625 750 l 542 833 l 208 833 l 208 556 l 556 556 z "},"b":{"ha":833,"x_min":69,"x_max":764,"o":"m 69 972 l 599 972 q 619 964 611 972 l 756 828 q 764 807 764 819 l 764 568 q 756 547 764 556 l 694 486 l 756 425 q 764 404 764 417 l 764 165 q 756 144 764 153 l 619 8 q 599 0 611 0 l 69 0 l 69 972 m 542 139 l 625 222 l 625 347 l 556 417 l 208 417 l 208 139 l 542 139 m 556 556 l 625 625 l 625 750 l 542 833 l 208 833 l 208 556 l 556 556 z "},"C":{"ha":833,"x_min":69,"x_max":764,"o":"m 235 0 q 214 8 222 0 l 78 144 q 69 165 69 153 l 69 807 q 78 828 69 819 l 214 964 q 235 972 222 972 l 599 972 q 619 964 611 972 l 756 828 q 764 807 764 819 l 764 625 l 625 625 l 625 750 l 542 833 l 292 833 l 208 750 l 208 222 l 292 139 l 542 139 l 625 222 l 625 347 l 764 347 l 764 165 q 756 144 764 153 l 619 8 q 599 0 611 0 l 235 0 z "},"c":{"ha":833,"x_min":69,"x_max":764,"o":"m 235 0 q 214 8 222 0 l 78 144 q 69 165 69 153 l 69 807 q 78 828 69 819 l 214 964 q 235 972 222 972 l 599 972 q 619 964 611 972 l 756 828 q 764 807 764 819 l 764 625 l 625 625 l 625 750 l 542 833 l 292 833 l 208 750 l 208 222 l 292 139 l 542 139 l 625 222 l 625 347 l 764 347 l 764 165 q 756 144 764 153 l 619 8 q 599 0 611 0 l 235 0 z "},"D":{"ha":833,"x_min":69,"x_max":764,"o":"m 69 972 l 543 972 q 564 964 556 972 l 756 772 q 764 751 764 764 l 764 221 q 756 200 764 208 l 564 8 q 543 0 556 0 l 69 0 l 69 972 m 486 139 l 625 278 l 625 694 l 486 833 l 208 833 l 208 139 l 486 139 z "},"d":{"ha":833,"x_min":69,"x_max":764,"o":"m 69 972 l 543 972 q 564 964 556 972 l 756 772 q 764 751 764 764 l 764 221 q 756 200 764 208 l 564 8 q 543 0 556 0 l 69 0 l 69 972 m 486 139 l 625 278 l 625 694 l 486 833 l 208 833 l 208 139 l 486 139 z "},"E":{"ha":833,"x_min":69,"x_max":764,"o":"m 69 972 l 764 972 l 764 833 l 208 833 l 208 556 l 625 556 l 625 417 l 208 417 l 208 139 l 764 139 l 764 0 l 69 0 l 69 972 z "},"e":{"ha":833,"x_min":69,"x_max":764,"o":"m 69 972 l 764 972 l 764 833 l 208 833 l 208 556 l 625 556 l 625 417 l 208 417 l 208 139 l 764 139 l 764 0 l 69 0 l 69 972 z "},"F":{"ha":833,"x_min":69,"x_max":764,"o":"m 69 972 l 764 972 l 764 833 l 208 833 l 208 556 l 625 556 l 625 417 l 208 417 l 208 0 l 69 0 l 69 972 z "},"f":{"ha":833,"x_min":69,"x_max":764,"o":"m 69 972 l 764 972 l 764 833 l 208 833 l 208 556 l 625 556 l 625 417 l 208 417 l 208 0 l 69 0 l 69 972 z "},"G":{"ha":833,"x_min":69,"x_max":764,"o":"m 235 0 q 214 8 222 0 l 78 144 q 69 165 69 153 l 69 807 q 78 828 69 819 l 214 964 q 235 972 222 972 l 599 972 q 619 964 611 972 l 756 828 q 764 807 764 819 l 764 625 l 625 625 l 625 750 l 542 833 l 292 833 l 208 750 l 208 222 l 292 139 l 542 139 l 625 222 l 625 417 l 417 417 l 417 556 l 764 556 l 764 165 q 756 144 764 153 l 619 8 q 599 0 611 0 l 235 0 z "},"g":{"ha":833,"x_min":69,"x_max":764,"o":"m 235 0 q 214 8 222 0 l 78 144 q 69 165 69 153 l 69 807 q 78 828 69 819 l 214 964 q 235 972 222 972 l 599 972 q 619 964 611 972 l 756 828 q 764 807 764 819 l 764 625 l 625 625 l 625 750 l 542 833 l 292 833 l 208 750 l 208 222 l 292 139 l 542 139 l 625 222 l 625 417 l 417 417 l 417 556 l 764 556 l 764 165 q 756 144 764 153 l 619 8 q 599 0 611 0 l 235 0 z "},"H":{"ha":833,"x_min":69,"x_max":764,"o":"m 69 972 l 208 972 l 208 556 l 625 556 l 625 972 l 764 972 l 764 0 l 625 0 l 625 417 l 208 417 l 208 0 l 69 0 l 69 972 z "},"h":{"ha":833,"x_min":69,"x_max":764,"o":"m 69 972 l 208 972 l 208 556 l 625 556 l 625 972 l 764 972 l 764 0 l 625 0 l 625 417 l 208 417 l 208 0 l 69 0 l 69 972 z "},"I":{"ha":833,"x_min":69,"x_max":764,"o":"m 69 139 l 347 139 l 347 833 l 69 833 l 69 972 l 764 972 l 764 833 l 486 833 l 486 139 l 764 139 l 764 0 l 69 0 l 69 139 z "},"i":{"ha":833,"x_min":69,"x_max":764,"o":"m 69 139 l 347 139 l 347 833 l 69 833 l 69 972 l 764 972 l 764 833 l 486 833 l 486 139 l 764 139 l 764 0 l 69 0 l 69 139 z "},"J":{"ha":833,"x_min":69,"x_max":764,"o":"m 235 0 q 214 8 222 0 l 78 144 q 69 165 69 153 l 69 347 l 208 347 l 208 222 l 292 139 l 542 139 l 625 222 l 625 972 l 764 972 l 764 165 q 756 144 764 153 l 619 8 q 599 0 611 0 l 235 0 z "},"j":{"ha":833,"x_min":69,"x_max":764,"o":"m 235 0 q 214 8 222 0 l 78 144 q 69 165 69 153 l 69 347 l 208 347 l 208 222 l 292 139 l 542 139 l 625 222 l 625 972 l 764 972 l 764 165 q 756 144 764 153 l 619 8 q 599 0 611 0 l 235 0 z "},"K":{"ha":833,"x_min":69,"x_max":764,"o":"m 69 972 l 208 972 l 208 556 l 382 556 l 382 639 l 625 882 l 625 972 l 764 972 l 764 835 q 756 814 764 822 l 521 579 l 521 394 l 756 160 q 764 139 764 151 l 764 0 l 625 0 l 625 90 l 382 333 l 382 417 l 208 417 l 208 0 l 69 0 l 69 972 z "},"k":{"ha":833,"x_min":69,"x_max":764,"o":"m 69 972 l 208 972 l 208 556 l 382 556 l 382 639 l 625 882 l 625 972 l 764 972 l 764 835 q 756 814 764 822 l 521 579 l 521 394 l 756 160 q 764 139 764 151 l 764 0 l 625 0 l 625 90 l 382 333 l 382 417 l 208 417 l 208 0 l 69 0 l 69 972 z "},"L":{"ha":833,"x_min":69,"x_max":764,"o":"m 69 972 l 208 972 l 208 139 l 764 139 l 764 0 l 69 0 l 69 972 z "},"l":{"ha":833,"x_min":69,"x_max":764,"o":"m 69 972 l 208 972 l 208 139 l 764 139 l 764 0 l 69 0 l 69 972 z "},"M":{"ha":833,"x_min":69,"x_max":764,"o":"m 69 972 l 208 972 l 208 736 l 278 736 l 417 597 l 556 736 l 625 736 l 625 972 l 764 972 l 764 0 l 625 0 l 625 597 l 458 431 l 375 431 l 208 597 l 208 0 l 69 0 l 69 972 z "},"m":{"ha":833,"x_min":69,"x_max":764,"o":"m 69 972 l 208 972 l 208 736 l 278 736 l 417 597 l 556 736 l 625 736 l 625 972 l 764 972 l 764 0 l 625 0 l 625 597 l 458 431 l 375 431 l 208 597 l 208 0 l 69 0 l 69 972 z "},"N":{"ha":833,"x_min":69,"x_max":764,"o":"m 69 972 l 208 972 l 208 729 l 278 729 l 625 382 l 625 972 l 764 972 l 764 0 l 625 0 l 625 243 l 556 243 l 208 590 l 208 0 l 69 0 l 69 972 z "},"n":{"ha":833,"x_min":69,"x_max":764,"o":"m 69 972 l 208 972 l 208 729 l 278 729 l 625 382 l 625 972 l 764 972 l 764 0 l 625 0 l 625 243 l 556 243 l 208 590 l 208 0 l 69 0 l 69 972 z "},"O":{"ha":833,"x_min":69,"x_max":764,"o":"m 235 0 q 214 8 222 0 l 78 144 q 69 165 69 153 l 69 807 q 78 828 69 819 l 214 964 q 235 972 222 972 l 599 972 q 619 964 611 972 l 756 828 q 764 807 764 819 l 764 165 q 756 144 764 153 l 619 8 q 599 0 611 0 l 235 0 m 292 139 l 542 139 l 625 222 l 625 750 l 542 833 l 292 833 l 208 750 l 208 222 l 292 139 z "},"o":{"ha":833,"x_min":69,"x_max":764,"o":"m 235 0 q 214 8 222 0 l 78 144 q 69 165 69 153 l 69 807 q 78 828 69 819 l 214 964 q 235 972 222 972 l 599 972 q 619 964 611 972 l 756 828 q 764 807 764 819 l 764 165 q 756 144 764 153 l 619 8 q 599 0 611 0 l 235 0 m 292 139 l 542 139 l 625 222 l 625 750 l 542 833 l 292 833 l 208 750 l 208 222 l 292 139 z "},"P":{"ha":833,"x_min":69,"x_max":764,"o":"m 69 972 l 599 972 q 619 964 611 972 l 756 828 q 764 807 764 819 l 764 540 q 756 519 764 528 l 619 383 q 599 375 611 375 l 208 375 l 208 0 l 69 0 l 69 972 m 542 514 l 625 597 l 625 750 l 542 833 l 208 833 l 208 514 l 542 514 z "},"p":{"ha":833,"x_min":69,"x_max":764,"o":"m 69 972 l 599 972 q 619 964 611 972 l 756 828 q 764 807 764 819 l 764 540 q 756 519 764 528 l 619 383 q 599 375 611 375 l 208 375 l 208 0 l 69 0 l 69 972 m 542 514 l 625 597 l 625 750 l 542 833 l 208 833 l 208 514 l 542 514 z "},"Q":{"ha":833,"x_min":69,"x_max":764,"o":"m 235 0 q 214 8 222 0 l 78 144 q 69 165 69 153 l 69 807 q 78 828 69 819 l 214 964 q 235 972 222 972 l 599 972 q 619 964 611 972 l 756 828 q 764 807 764 819 l 764 165 q 756 144 764 153 l 619 8 q 599 0 611 0 l 235 0 m 292 139 l 347 139 l 347 417 l 486 417 l 486 139 l 542 139 l 625 222 l 625 750 l 542 833 l 292 833 l 208 750 l 208 222 l 292 139 z "},"q":{"ha":833,"x_min":69,"x_max":764,"o":"m 235 0 q 214 8 222 0 l 78 144 q 69 165 69 153 l 69 807 q 78 828 69 819 l 214 964 q 235 972 222 972 l 599 972 q 619 964 611 972 l 756 828 q 764 807 764 819 l 764 165 q 756 144 764 153 l 619 8 q 599 0 611 0 l 235 0 m 292 139 l 347 139 l 347 417 l 486 417 l 486 139 l 542 139 l 625 222 l 625 750 l 542 833 l 292 833 l 208 750 l 208 222 l 292 139 z "},"R":{"ha":833,"x_min":69,"x_max":764,"o":"m 69 972 l 599 972 q 619 964 611 972 l 756 828 q 764 807 764 819 l 764 540 q 756 519 764 528 l 621 385 q 599 375 611 375 l 521 375 l 756 140 q 764 119 764 132 l 764 0 l 625 0 l 625 74 l 382 317 l 382 375 l 208 375 l 208 0 l 69 0 l 69 972 m 542 514 l 625 599 l 625 750 l 542 833 l 208 833 l 208 514 l 542 514 z "},"r":{"ha":833,"x_min":69,"x_max":764,"o":"m 69 972 l 599 972 q 619 964 611 972 l 756 828 q 764 807 764 819 l 764 540 q 756 519 764 528 l 621 385 q 599 375 611 375 l 521 375 l 756 140 q 764 119 764 132 l 764 0 l 625 0 l 625 74 l 382 317 l 382 375 l 208 375 l 208 0 l 69 0 l 69 972 m 542 514 l 625 599 l 625 750 l 542 833 l 208 833 l 208 514 l 542 514 z "},"S":{"ha":833,"x_min":69,"x_max":764,"o":"m 235 0 q 214 8 222 0 l 78 144 q 69 165 69 153 l 69 347 l 208 347 l 208 222 l 292 139 l 542 139 l 625 222 l 625 333 l 542 417 l 235 417 q 214 425 222 417 l 78 561 q 69 582 69 569 l 69 807 q 78 828 69 819 l 214 964 q 235 972 222 972 l 599 972 q 619 964 611 972 l 756 828 q 764 807 764 819 l 764 625 l 625 625 l 625 750 l 542 833 l 292 833 l 208 750 l 208 639 l 292 556 l 599 556 q 619 547 611 556 l 756 411 q 764 390 764 403 l 764 165 q 756 144 764 153 l 619 8 q 599 0 611 0 l 235 0 z "},"s":{"ha":833,"x_min":69,"x_max":764,"o":"m 235 0 q 214 8 222 0 l 78 144 q 69 165 69 153 l 69 347 l 208 347 l 208 222 l 292 139 l 542 139 l 625 222 l 625 333 l 542 417 l 235 417 q 214 425 222 417 l 78 561 q 69 582 69 569 l 69 807 q 78 828 69 819 l 214 964 q 235 972 222 972 l 599 972 q 619 964 611 972 l 756 828 q 764 807 764 819 l 764 625 l 625 625 l 625 750 l 542 833 l 292 833 l 208 750 l 208 639 l 292 556 l 599 556 q 619 547 611 556 l 756 411 q 764 390 764 403 l 764 165 q 756 144 764 153 l 619 8 q 599 0 611 0 l 235 0 z "},"T":{"ha":833,"x_min":69,"x_max":764,"o":"m 347 833 l 69 833 l 69 972 l 764 972 l 764 833 l 486 833 l 486 0 l 347 0 l 347 833 z "},"t":{"ha":833,"x_min":69,"x_max":764,"o":"m 347 833 l 69 833 l 69 972 l 764 972 l 764 833 l 486 833 l 486 0 l 347 0 l 347 833 z "},"U":{"ha":833,"x_min":69,"x_max":764,"o":"m 235 0 q 214 8 222 0 l 78 144 q 69 165 69 153 l 69 972 l 208 972 l 208 222 l 292 139 l 542 139 l 625 222 l 625 972 l 764 972 l 764 165 q 756 144 764 153 l 619 8 q 599 0 611 0 l 235 0 z "},"u":{"ha":833,"x_min":69,"x_max":764,"o":"m 235 0 q 214 8 222 0 l 78 144 q 69 165 69 153 l 69 972 l 208 972 l 208 222 l 292 139 l 542 139 l 625 222 l 625 972 l 764 972 l 764 165 q 756 144 764 153 l 619 8 q 599 0 611 0 l 235 0 z "},"V":{"ha":833,"x_min":69,"x_max":764,"o":"m 78 269 q 69 290 69 278 l 69 972 l 208 972 l 208 347 l 417 139 l 625 347 l 625 972 l 764 972 l 764 290 q 756 269 764 278 l 486 0 l 347 0 l 78 269 z "},"v":{"ha":833,"x_min":69,"x_max":764,"o":"m 78 269 q 69 290 69 278 l 69 972 l 208 972 l 208 347 l 417 139 l 625 347 l 625 972 l 764 972 l 764 290 q 756 269 764 278 l 486 0 l 347 0 l 78 269 z "},"W":{"ha":833,"x_min":69,"x_max":764,"o":"m 69 972 l 208 972 l 208 347 l 375 514 l 458 514 l 625 347 l 625 972 l 764 972 l 764 0 l 625 0 l 625 208 l 556 208 l 417 347 l 278 208 l 208 208 l 208 0 l 69 0 l 69 972 z "},"w":{"ha":833,"x_min":69,"x_max":764,"o":"m 69 972 l 208 972 l 208 347 l 375 514 l 458 514 l 625 347 l 625 972 l 764 972 l 764 0 l 625 0 l 625 208 l 556 208 l 417 347 l 278 208 l 208 208 l 208 0 l 69 0 l 69 972 z "},"X":{"ha":833,"x_min":69,"x_max":764,"o":"m 69 126 q 78 147 69 139 l 347 417 l 347 556 l 78 825 q 69 846 69 833 l 69 972 l 208 972 l 208 903 l 417 694 l 625 903 l 625 972 l 764 972 l 764 846 q 756 825 764 833 l 486 556 l 486 417 l 756 147 q 764 126 764 139 l 764 0 l 625 0 l 625 69 l 417 278 l 208 69 l 208 0 l 69 0 l 69 126 z "},"x":{"ha":833,"x_min":69,"x_max":764,"o":"m 69 126 q 78 147 69 139 l 347 417 l 347 556 l 78 825 q 69 846 69 833 l 69 972 l 208 972 l 208 903 l 417 694 l 625 903 l 625 972 l 764 972 l 764 846 q 756 825 764 833 l 486 556 l 486 417 l 756 147 q 764 126 764 139 l 764 0 l 625 0 l 625 69 l 417 278 l 208 69 l 208 0 l 69 0 l 69 126 z "},"Y":{"ha":833,"x_min":69,"x_max":764,"o":"m 347 451 l 78 721 q 69 742 69 729 l 69 972 l 208 972 l 208 799 l 417 590 l 625 799 l 625 972 l 764 972 l 764 742 q 756 721 764 729 l 486 451 l 486 0 l 347 0 l 347 451 z "},"y":{"ha":833,"x_min":69,"x_max":764,"o":"m 347 451 l 78 721 q 69 742 69 729 l 69 972 l 208 972 l 208 799 l 417 590 l 625 799 l 625 972 l 764 972 l 764 742 q 756 721 764 729 l 486 451 l 486 0 l 347 0 l 347 451 z "},"Z":{"ha":833,"x_min":69,"x_max":764,"o":"m 69 231 q 78 251 69 243 l 625 799 l 625 833 l 69 833 l 69 972 l 764 972 l 764 742 q 756 721 764 729 l 208 174 l 208 139 l 764 139 l 764 0 l 69 0 l 69 231 z "},"z":{"ha":833,"x_min":69,"x_max":764,"o":"m 69 231 q 78 251 69 243 l 625 799 l 625 833 l 69 833 l 69 972 l 764 972 l 764 742 q 756 721 764 729 l 208 174 l 208 139 l 764 139 l 764 0 l 69 0 l 69 231 z "},"[":{"ha":833,"x_min":319,"x_max":694,"o":"m 319 972 l 694 972 l 694 833 l 458 833 l 458 139 l 694 139 l 694 0 l 319 0 l 319 972 z "},"\\":{"ha":833,"x_min":69,"x_max":764,"o":"m 625 174 l 78 721 q 69 742 69 729 l 69 972 l 208 972 l 208 799 l 756 251 q 764 231 764 243 l 764 0 l 625 0 l 625 174 z "},"]":{"ha":833,"x_min":139,"x_max":514,"o":"m 139 139 l 375 139 l 375 833 l 139 833 l 139 972 l 514 972 l 514 0 l 139 0 l 139 139 z "},"^":{"ha":833,"x_min":69,"x_max":764,"o":"m 69 694 l 347 972 l 486 972 l 764 694 l 764 625 l 625 625 l 417 833 l 208 625 l 69 625 l 69 694 z "},"_":{"ha":833,"x_min":69,"x_max":764,"o":"m 69 139 l 764 139 l 764 0 l 69 0 l 69 139 z "},"`":{"ha":833,"x_min":300,"x_max":546,"o":"m 300 903 l 439 903 l 546 736 l 407 736 l 300 903 z "},"{":{"ha":833,"x_min":181,"x_max":694,"o":"m 485 0 q 464 8 472 0 l 328 144 q 319 165 319 153 l 319 347 l 250 417 l 181 417 l 181 556 l 250 556 l 319 625 l 319 807 q 328 828 319 819 l 464 964 q 485 972 472 972 l 694 972 l 694 833 l 542 833 l 458 750 l 458 568 q 450 547 458 556 l 389 486 l 450 425 q 458 404 458 417 l 458 222 l 542 139 l 694 139 l 694 0 l 485 0 z "},"|":{"ha":833,"x_min":347,"x_max":486,"o":"m 347 972 l 486 972 l 486 0 l 347 0 l 347 972 z "},"}":{"ha":833,"x_min":139,"x_max":653,"o":"m 139 139 l 292 139 l 375 222 l 375 404 q 383 425 375 417 l 444 486 l 383 547 q 375 568 375 556 l 375 750 l 292 833 l 139 833 l 139 972 l 349 972 q 369 964 361 972 l 506 828 q 514 807 514 819 l 514 625 l 583 556 l 653 556 l 653 417 l 583 417 l 514 347 l 514 165 q 506 144 514 153 l 369 8 q 349 0 361 0 l 139 0 l 139 139 z "},"~":{"ha":833,"x_min":69,"x_max":764,"o":"m 69 439 l 271 640 l 343 640 l 526 458 l 708 640 l 764 640 l 764 501 l 563 300 l 492 300 l 308 483 l 125 300 l 69 300 l 69 439 z "}," ":{"ha":833,"x_min":0,"x_max":0,"o":""},"¡":{"ha":833,"x_min":333,"x_max":500,"o":"m 347 701 l 486 701 l 486 0 l 347 0 l 347 701 m 333 972 l 500 972 l 500 806 l 333 806 l 333 972 z "},"¢":{"ha":833,"x_min":69,"x_max":764,"o":"m 235 104 q 214 113 222 104 l 78 249 q 69 269 69 257 l 69 703 q 78 724 69 715 l 214 860 q 235 868 222 868 l 347 868 l 347 972 l 486 972 l 486 868 l 599 868 q 619 860 611 868 l 756 724 q 764 703 764 715 l 764 590 l 625 590 l 625 646 l 542 729 l 486 729 l 486 243 l 542 243 l 625 326 l 625 382 l 764 382 l 764 269 q 756 249 764 257 l 619 113 q 599 104 611 104 l 486 104 l 486 0 l 347 0 l 347 104 l 235 104 m 292 243 l 347 243 l 347 729 l 292 729 l 208 646 l 208 326 l 292 243 z "},"£":{"ha":833,"x_min":69,"x_max":764,"o":"m 174 807 q 182 828 174 819 l 318 964 q 339 972 326 972 l 599 972 q 619 964 611 972 l 756 828 q 764 807 764 819 l 764 625 l 625 625 l 625 750 l 542 833 l 396 833 l 313 750 l 313 479 l 521 479 l 521 340 l 313 340 l 313 139 l 764 139 l 764 0 l 69 0 l 69 139 l 174 139 l 174 340 l 69 340 l 69 479 l 174 479 l 174 807 z "},"¤":{"ha":833,"x_min":69,"x_max":764,"o":"m 290 181 q 269 189 278 181 l 258 201 l 168 111 l 69 210 l 160 299 l 147 311 q 139 332 139 319 l 139 585 q 147 606 139 597 l 160 618 l 69 707 l 168 806 l 258 717 l 269 728 q 290 736 278 736 l 543 736 q 564 728 556 736 l 576 717 l 665 806 l 764 707 l 674 618 l 686 606 q 694 585 694 597 l 694 332 q 686 311 694 319 l 674 299 l 764 210 l 665 111 l 576 201 l 564 189 q 543 181 556 181 l 290 181 m 347 319 l 486 319 l 556 389 l 556 528 l 486 597 l 347 597 l 278 528 l 278 389 l 347 319 z "},"¥":{"ha":833,"x_min":69,"x_max":764,"o":"m 69 451 l 347 451 l 78 721 q 69 742 69 729 l 69 972 l 208 972 l 208 799 l 417 590 l 625 799 l 625 972 l 764 972 l 764 742 q 756 721 764 729 l 486 451 l 764 451 l 764 313 l 486 313 l 486 243 l 764 243 l 764 104 l 486 104 l 486 0 l 347 0 l 347 104 l 69 104 l 69 243 l 347 243 l 347 313 l 69 313 l 69 451 z "},"¦":{"ha":833,"x_min":347,"x_max":486,"o":"m 347 972 l 486 972 l 486 556 l 347 556 l 347 972 m 347 417 l 486 417 l 486 0 l 347 0 l 347 417 z "},"§":{"ha":833,"x_min":69,"x_max":764,"o":"m 257 139 l 511 139 l 615 244 l 292 244 q 271 254 281 244 l 79 446 q 69 467 69 456 l 69 750 q 78 771 69 763 l 269 963 q 290 972 279 972 l 576 972 l 576 833 l 322 833 l 218 728 l 542 728 q 563 718 553 728 l 754 526 q 764 506 764 517 l 764 222 q 756 201 764 210 l 563 10 q 542 0 553 0 l 257 0 l 257 139 m 335 383 l 625 383 l 625 464 l 500 589 l 208 589 l 208 510 l 335 383 z "},"¨":{"ha":833,"x_min":257,"x_max":576,"o":"m 438 903 l 576 903 l 576 736 l 438 736 l 438 903 m 257 903 l 396 903 l 396 736 l 257 736 l 257 903 z "},"©":{"ha":833,"x_min":69,"x_max":764,"o":"m 221 0 q 200 8 208 0 l 78 131 q 69 151 69 139 l 69 821 q 78 842 69 833 l 200 964 q 221 972 208 972 l 613 972 q 633 964 625 972 l 756 842 q 764 821 764 833 l 764 151 q 756 131 764 139 l 633 8 q 613 0 625 0 l 221 0 m 243 69 l 590 69 l 694 174 l 694 799 l 590 903 l 243 903 l 139 799 l 139 174 l 243 69 m 215 679 q 222 696 215 689 l 288 761 q 304 768 294 768 l 529 768 q 546 761 539 768 l 611 696 q 618 679 618 689 l 618 567 l 510 567 l 510 625 l 475 660 l 358 660 l 324 625 l 324 347 l 358 313 l 475 313 l 510 347 l 510 406 l 618 406 l 618 293 q 611 276 618 283 l 546 211 q 529 204 539 204 l 304 204 q 288 211 294 204 l 222 276 q 215 293 215 283 l 215 679 z "},"ª":{"ha":833,"x_min":258,"x_max":575,"o":"m 258 808 q 263 818 258 814 l 375 931 l 375 972 l 458 972 l 458 931 l 571 818 q 575 808 575 814 l 575 531 l 492 531 l 492 647 l 342 647 l 342 531 l 258 531 l 258 808 m 492 731 l 492 783 l 417 858 l 342 783 l 342 731 l 492 731 z "},"«":{"ha":833,"x_min":69,"x_max":764,"o":"m 417 347 l 417 486 l 694 764 l 764 764 l 764 625 l 556 417 l 764 208 l 764 69 l 694 69 l 417 347 m 69 486 l 347 764 l 417 764 l 417 625 l 208 417 l 417 208 l 417 69 l 347 69 l 69 347 l 69 486 z "},"¬":{"ha":833,"x_min":69,"x_max":764,"o":"m 69 556 l 764 556 l 764 139 l 625 139 l 625 417 l 69 417 l 69 556 z "},"®":{"ha":833,"x_min":69,"x_max":764,"o":"m 221 0 q 200 8 208 0 l 78 131 q 69 151 69 139 l 69 821 q 78 842 69 833 l 200 964 q 221 972 208 972 l 613 972 q 633 964 625 972 l 756 842 q 764 821 764 833 l 764 151 q 756 131 764 139 l 633 8 q 613 0 625 0 l 221 0 m 243 69 l 590 69 l 694 174 l 694 799 l 590 903 l 243 903 l 139 799 l 139 174 l 243 69 m 215 768 l 528 768 q 544 761 538 768 l 611 694 q 618 678 618 688 l 618 522 q 611 506 618 513 l 544 439 q 528 432 538 432 l 471 432 l 618 285 l 618 204 l 510 204 l 510 246 l 349 407 l 349 432 l 324 432 l 324 204 l 215 204 l 215 768 m 468 540 l 510 579 l 510 619 l 468 660 l 324 660 l 324 540 l 468 540 z "},"¯":{"ha":833,"x_min":69,"x_max":764,"o":"m 69 903 l 764 903 l 764 778 l 69 778 l 69 903 z "},"°":{"ha":833,"x_min":208,"x_max":625,"o":"m 333 556 q 317 563 324 556 l 215 664 q 208 681 208 671 l 208 847 q 215 864 208 857 l 317 965 q 333 972 324 972 l 500 972 q 517 965 510 972 l 618 864 q 625 847 625 857 l 625 681 q 618 664 625 671 l 517 563 q 500 556 510 556 l 333 556 m 382 672 l 451 672 l 508 729 l 508 799 l 451 856 l 382 856 l 325 799 l 325 729 l 382 672 z "},"±":{"ha":833,"x_min":69,"x_max":764,"o":"m 69 625 l 347 625 l 347 903 l 486 903 l 486 625 l 764 625 l 764 486 l 486 486 l 486 208 l 347 208 l 347 486 l 69 486 l 69 625 m 69 139 l 764 139 l 764 0 l 69 0 l 69 139 z "},"²":{"ha":833,"x_min":208,"x_max":625,"o":"m 208 472 l 292 472 l 292 514 l 542 764 l 542 839 l 492 889 l 342 889 l 292 839 l 292 764 l 208 764 l 208 874 q 214 886 208 881 l 294 967 q 307 972 300 972 l 526 972 q 539 967 533 972 l 619 886 q 625 874 625 881 l 625 729 q 619 717 625 722 l 375 472 l 625 472 l 625 389 l 208 389 l 208 472 z "},"³":{"ha":833,"x_min":208,"x_max":625,"o":"m 307 389 q 294 394 300 389 l 214 475 q 208 488 208 481 l 208 597 l 292 597 l 292 522 l 342 472 l 492 472 l 542 522 l 542 597 l 500 639 l 375 639 l 375 722 l 500 722 l 542 764 l 542 839 l 492 889 l 342 889 l 292 839 l 292 764 l 208 764 l 208 874 q 214 886 208 881 l 294 967 q 307 972 300 972 l 526 972 q 539 967 533 972 l 619 886 q 625 874 625 881 l 625 729 q 619 717 625 722 l 583 681 l 619 644 q 625 632 625 639 l 625 488 q 619 475 625 481 l 539 394 q 526 389 533 389 l 307 389 z "},"´":{"ha":833,"x_min":300,"x_max":543,"o":"m 404 903 l 543 903 l 439 736 l 300 736 l 404 903 z "},"¶":{"ha":833,"x_min":69,"x_max":764,"o":"m 417 417 l 221 417 q 200 425 208 417 l 78 547 q 69 568 69 556 l 69 821 q 78 842 69 833 l 200 964 q 221 972 208 972 l 556 972 l 556 0 l 417 0 l 417 417 m 625 972 l 764 972 l 764 0 l 625 0 l 625 972 z "},"·":{"ha":833,"x_min":319,"x_max":514,"o":"m 319 597 l 514 597 l 514 403 l 319 403 l 319 597 z "},"¸":{"ha":833,"x_min":225,"x_max":533,"o":"m 225 111 l 394 111 l 297 208 l 436 208 l 525 119 q 533 99 533 111 l 533 0 l 225 0 l 225 111 z "},"¹":{"ha":833,"x_min":208,"x_max":625,"o":"m 208 472 l 375 472 l 375 889 l 208 889 l 208 972 l 458 972 l 458 472 l 625 472 l 625 389 l 208 389 l 208 472 z "},"º":{"ha":833,"x_min":258,"x_max":575,"o":"m 333 531 q 325 535 329 531 l 263 596 q 258 606 258 600 l 258 897 q 263 907 258 903 l 325 968 q 333 972 329 972 l 500 972 q 508 968 504 972 l 571 907 q 575 897 575 903 l 575 606 q 571 596 575 600 l 508 535 q 500 531 504 531 l 333 531 m 360 613 l 474 613 l 492 632 l 492 871 l 474 890 l 360 890 l 342 871 l 342 632 l 360 613 z "},"»":{"ha":833,"x_min":69,"x_max":764,"o":"m 417 208 l 625 417 l 417 625 l 417 764 l 486 764 l 764 486 l 764 347 l 486 69 l 417 69 l 417 208 m 69 208 l 278 417 l 69 625 l 69 764 l 139 764 l 417 486 l 417 347 l 139 69 l 69 69 l 69 208 z "},"¼":{"ha":833,"x_min":69,"x_max":764,"o":"m 69 572 l 203 572 l 203 906 l 69 906 l 69 972 l 269 972 l 269 572 l 403 572 l 403 522 l 694 814 l 694 972 l 764 972 l 764 796 q 756 775 764 783 l 139 158 l 139 0 l 69 0 l 69 176 q 78 197 69 189 l 386 506 l 69 506 l 69 572 m 431 217 l 647 433 l 647 467 l 714 467 l 714 167 l 764 167 l 764 100 l 714 100 l 714 0 l 647 0 l 647 100 l 431 100 l 431 217 m 647 167 l 647 340 l 497 190 l 497 167 l 647 167 z "},"½":{"ha":833,"x_min":69,"x_max":764,"o":"m 69 572 l 203 572 l 203 906 l 69 906 l 69 972 l 269 972 l 269 572 l 403 572 l 403 522 l 694 814 l 694 972 l 764 972 l 764 796 q 756 775 764 783 l 139 158 l 139 0 l 69 0 l 69 176 q 78 197 69 189 l 386 506 l 69 506 l 69 572 m 431 67 l 497 67 l 497 100 l 697 300 l 697 360 l 657 400 l 538 400 l 497 360 l 497 300 l 431 300 l 431 388 q 435 397 431 393 l 500 463 q 510 467 504 467 l 685 467 q 694 463 690 467 l 760 397 q 764 388 764 393 l 764 272 q 760 263 764 267 l 564 67 l 764 67 l 764 0 l 431 0 l 431 67 z "},"¾":{"ha":833,"x_min":69,"x_max":764,"o":"m 149 506 q 139 510 143 506 l 74 575 q 69 585 69 579 l 69 672 l 136 672 l 136 613 l 176 572 l 296 572 l 336 613 l 336 672 l 303 706 l 203 706 l 203 772 l 303 772 l 336 806 l 336 865 l 296 906 l 176 906 l 136 865 l 136 806 l 69 806 l 69 893 q 74 903 69 899 l 139 968 q 149 972 143 972 l 324 972 q 333 968 329 972 l 399 903 q 403 893 403 899 l 403 778 q 399 768 403 772 l 369 739 l 399 710 q 403 700 403 706 l 403 585 q 399 575 403 579 l 333 510 q 324 506 329 506 l 149 506 m 69 176 q 78 197 69 189 l 694 814 l 694 972 l 764 972 l 764 796 q 756 775 764 783 l 139 158 l 139 0 l 69 0 l 69 176 m 647 100 l 431 100 l 431 217 l 647 433 l 647 467 l 714 467 l 714 167 l 764 167 l 764 100 l 714 100 l 714 0 l 647 0 l 647 100 m 647 167 l 647 340 l 497 190 l 497 167 l 647 167 z "},"¿":{"ha":833,"x_min":69,"x_max":764,"o":"m 235 0 q 214 8 222 0 l 78 144 q 69 165 69 153 l 69 390 q 78 411 69 403 l 214 547 q 235 556 222 556 l 278 556 l 347 625 l 347 701 l 486 701 l 486 568 q 478 547 486 556 l 356 425 q 335 417 347 417 l 292 417 l 208 333 l 208 222 l 292 139 l 542 139 l 625 222 l 625 347 l 764 347 l 764 165 q 756 144 764 153 l 619 8 q 599 0 611 0 l 235 0 m 333 972 l 500 972 l 500 806 l 333 806 l 333 972 z "},"À":{"ha":833,"x_min":69,"x_max":764,"o":"m 69 613 q 78 633 69 625 l 347 903 l 347 972 l 486 972 l 486 903 l 756 633 q 764 613 764 625 l 764 0 l 625 0 l 625 278 l 208 278 l 208 0 l 69 0 l 69 613 m 625 417 l 625 556 l 417 764 l 208 556 l 208 417 l 625 417 m 240 1181 l 379 1181 l 486 1014 l 347 1014 l 240 1181 z "},"à":{"ha":833,"x_min":69,"x_max":764,"o":"m 69 613 q 78 633 69 625 l 347 903 l 347 972 l 486 972 l 486 903 l 756 633 q 764 613 764 625 l 764 0 l 625 0 l 625 278 l 208 278 l 208 0 l 69 0 l 69 613 m 625 417 l 625 556 l 417 764 l 208 556 l 208 417 l 625 417 m 240 1181 l 379 1181 l 486 1014 l 347 1014 l 240 1181 z "},"Á":{"ha":833,"x_min":69,"x_max":764,"o":"m 69 613 q 78 633 69 625 l 347 903 l 347 972 l 486 972 l 486 903 l 756 633 q 764 613 764 625 l 764 0 l 625 0 l 625 278 l 208 278 l 208 0 l 69 0 l 69 613 m 625 417 l 625 556 l 417 764 l 208 556 l 208 417 l 625 417 m 451 1181 l 590 1181 l 486 1014 l 347 1014 l 451 1181 z "},"á":{"ha":833,"x_min":69,"x_max":764,"o":"m 69 613 q 78 633 69 625 l 347 903 l 347 972 l 486 972 l 486 903 l 756 633 q 764 613 764 625 l 764 0 l 625 0 l 625 278 l 208 278 l 208 0 l 69 0 l 69 613 m 625 417 l 625 556 l 417 764 l 208 556 l 208 417 l 625 417 m 451 1181 l 590 1181 l 486 1014 l 347 1014 l 451 1181 z "},"Â":{"ha":833,"x_min":69,"x_max":764,"o":"m 69 613 q 78 633 69 625 l 347 903 l 347 972 l 486 972 l 486 903 l 756 633 q 764 613 764 625 l 764 0 l 625 0 l 625 278 l 208 278 l 208 0 l 69 0 l 69 613 m 625 417 l 625 556 l 417 764 l 208 556 l 208 417 l 625 417 m 257 1104 l 299 1104 l 375 1181 l 458 1181 l 535 1104 l 576 1104 l 576 1014 l 486 1014 l 417 1083 l 347 1014 l 257 1014 l 257 1104 z "},"â":{"ha":833,"x_min":69,"x_max":764,"o":"m 69 613 q 78 633 69 625 l 347 903 l 347 972 l 486 972 l 486 903 l 756 633 q 764 613 764 625 l 764 0 l 625 0 l 625 278 l 208 278 l 208 0 l 69 0 l 69 613 m 625 417 l 625 556 l 417 764 l 208 556 l 208 417 l 625 417 m 257 1104 l 299 1104 l 375 1181 l 458 1181 l 535 1104 l 576 1104 l 576 1014 l 486 1014 l 417 1083 l 347 1014 l 257 1014 l 257 1104 z "},"Ã":{"ha":833,"x_min":69,"x_max":764,"o":"m 69 613 q 78 633 69 625 l 347 903 l 347 972 l 486 972 l 486 903 l 756 633 q 764 613 764 625 l 764 0 l 625 0 l 625 278 l 208 278 l 208 0 l 69 0 l 69 613 m 625 417 l 625 556 l 417 764 l 208 556 l 208 417 l 625 417 m 236 1083 l 333 1181 l 403 1181 l 469 1114 l 536 1181 l 597 1181 l 597 1111 l 500 1014 l 432 1014 l 365 1081 l 299 1014 l 236 1014 l 236 1083 z "},"ã":{"ha":833,"x_min":69,"x_max":764,"o":"m 69 613 q 78 633 69 625 l 347 903 l 347 972 l 486 972 l 486 903 l 756 633 q 764 613 764 625 l 764 0 l 625 0 l 625 278 l 208 278 l 208 0 l 69 0 l 69 613 m 625 417 l 625 556 l 417 764 l 208 556 l 208 417 l 625 417 m 236 1083 l 333 1181 l 403 1181 l 469 1114 l 536 1181 l 597 1181 l 597 1111 l 500 1014 l 432 1014 l 365 1081 l 299 1014 l 236 1014 l 236 1083 z "},"Ä":{"ha":833,"x_min":69,"x_max":764,"o":"m 69 613 q 78 633 69 625 l 347 903 l 347 972 l 486 972 l 486 903 l 756 633 q 764 613 764 625 l 764 0 l 625 0 l 625 278 l 208 278 l 208 0 l 69 0 l 69 613 m 625 417 l 625 556 l 417 764 l 208 556 l 208 417 l 625 417 m 438 1181 l 576 1181 l 576 1014 l 438 1014 l 438 1181 m 257 1181 l 396 1181 l 396 1014 l 257 1014 l 257 1181 z "},"ä":{"ha":833,"x_min":69,"x_max":764,"o":"m 69 613 q 78 633 69 625 l 347 903 l 347 972 l 486 972 l 486 903 l 756 633 q 764 613 764 625 l 764 0 l 625 0 l 625 278 l 208 278 l 208 0 l 69 0 l 69 613 m 625 417 l 625 556 l 417 764 l 208 556 l 208 417 l 625 417 m 438 1181 l 576 1181 l 576 1014 l 438 1014 l 438 1181 m 257 1181 l 396 1181 l 396 1014 l 257 1014 l 257 1181 z "},"Å":{"ha":833,"x_min":69,"x_max":764,"o":"m 69 613 q 78 633 69 625 l 347 903 l 347 931 l 486 931 l 486 903 l 756 633 q 764 613 764 625 l 764 0 l 625 0 l 625 278 l 208 278 l 208 0 l 69 0 l 69 613 m 625 417 l 625 556 l 417 764 l 208 556 l 208 417 l 625 417 m 313 1181 l 521 1181 l 521 972 l 313 972 l 313 1181 m 446 1047 l 446 1106 l 388 1106 l 388 1047 l 446 1047 z "},"å":{"ha":833,"x_min":69,"x_max":764,"o":"m 69 613 q 78 633 69 625 l 347 903 l 347 931 l 486 931 l 486 903 l 756 633 q 764 613 764 625 l 764 0 l 625 0 l 625 278 l 208 278 l 208 0 l 69 0 l 69 613 m 625 417 l 625 556 l 417 764 l 208 556 l 208 417 l 625 417 m 313 1181 l 521 1181 l 521 972 l 313 972 l 313 1181 m 446 1047 l 446 1106 l 388 1106 l 388 1047 l 446 1047 z "},"Æ":{"ha":833,"x_min":69,"x_max":764,"o":"m 389 417 l 208 417 l 208 0 l 69 0 l 69 682 q 78 703 69 694 l 339 964 q 360 972 347 972 l 764 972 l 764 833 l 528 833 l 528 556 l 694 556 l 694 417 l 528 417 l 528 139 l 764 139 l 764 0 l 389 0 l 389 417 m 389 556 l 389 806 l 208 625 l 208 556 l 389 556 z "},"æ":{"ha":833,"x_min":69,"x_max":764,"o":"m 389 417 l 208 417 l 208 0 l 69 0 l 69 682 q 78 703 69 694 l 339 964 q 360 972 347 972 l 764 972 l 764 833 l 528 833 l 528 556 l 694 556 l 694 417 l 528 417 l 528 139 l 764 139 l 764 0 l 389 0 l 389 417 m 389 556 l 389 806 l 208 625 l 208 556 l 389 556 z "},"Ç":{"ha":833,"x_min":69,"x_max":764,"o":"m 235 0 q 214 8 222 0 l 78 144 q 69 165 69 153 l 69 807 q 78 828 69 819 l 214 964 q 235 972 222 972 l 599 972 q 619 964 611 972 l 756 828 q 764 807 764 819 l 764 625 l 625 625 l 625 750 l 542 833 l 292 833 l 208 750 l 208 222 l 292 139 l 542 139 l 625 222 l 625 347 l 764 347 l 764 165 q 756 144 764 153 l 619 8 q 599 0 611 0 l 235 0 m 275 -97 l 444 -97 l 347 0 l 486 0 l 575 -89 q 583 -110 583 -97 l 583 -208 l 275 -208 l 275 -97 z "},"ç":{"ha":833,"x_min":69,"x_max":764,"o":"m 235 0 q 214 8 222 0 l 78 144 q 69 165 69 153 l 69 807 q 78 828 69 819 l 214 964 q 235 972 222 972 l 599 972 q 619 964 611 972 l 756 828 q 764 807 764 819 l 764 625 l 625 625 l 625 750 l 542 833 l 292 833 l 208 750 l 208 222 l 292 139 l 542 139 l 625 222 l 625 347 l 764 347 l 764 165 q 756 144 764 153 l 619 8 q 599 0 611 0 l 235 0 m 275 -97 l 444 -97 l 347 0 l 486 0 l 575 -89 q 583 -110 583 -97 l 583 -208 l 275 -208 l 275 -97 z "},"È":{"ha":833,"x_min":69,"x_max":764,"o":"m 69 972 l 764 972 l 764 833 l 208 833 l 208 556 l 625 556 l 625 417 l 208 417 l 208 139 l 764 139 l 764 0 l 69 0 l 69 972 m 240 1181 l 379 1181 l 486 1014 l 347 1014 l 240 1181 z "},"è":{"ha":833,"x_min":69,"x_max":764,"o":"m 69 972 l 764 972 l 764 833 l 208 833 l 208 556 l 625 556 l 625 417 l 208 417 l 208 139 l 764 139 l 764 0 l 69 0 l 69 972 m 240 1181 l 379 1181 l 486 1014 l 347 1014 l 240 1181 z "},"É":{"ha":833,"x_min":69,"x_max":764,"o":"m 69 972 l 764 972 l 764 833 l 208 833 l 208 556 l 625 556 l 625 417 l 208 417 l 208 139 l 764 139 l 764 0 l 69 0 l 69 972 m 451 1181 l 590 1181 l 486 1014 l 347 1014 l 451 1181 z "},"é":{"ha":833,"x_min":69,"x_max":764,"o":"m 69 972 l 764 972 l 764 833 l 208 833 l 208 556 l 625 556 l 625 417 l 208 417 l 208 139 l 764 139 l 764 0 l 69 0 l 69 972 m 451 1181 l 590 1181 l 486 1014 l 347 1014 l 451 1181 z "},"Ê":{"ha":833,"x_min":69,"x_max":764,"o":"m 69 972 l 764 972 l 764 833 l 208 833 l 208 556 l 625 556 l 625 417 l 208 417 l 208 139 l 764 139 l 764 0 l 69 0 l 69 972 m 257 1104 l 299 1104 l 375 1181 l 458 1181 l 535 1104 l 576 1104 l 576 1014 l 486 1014 l 417 1083 l 347 1014 l 257 1014 l 257 1104 z "},"ê":{"ha":833,"x_min":69,"x_max":764,"o":"m 69 972 l 764 972 l 764 833 l 208 833 l 208 556 l 625 556 l 625 417 l 208 417 l 208 139 l 764 139 l 764 0 l 69 0 l 69 972 m 257 1104 l 299 1104 l 375 1181 l 458 1181 l 535 1104 l 576 1104 l 576 1014 l 486 1014 l 417 1083 l 347 1014 l 257 1014 l 257 1104 z "},"Ë":{"ha":833,"x_min":69,"x_max":764,"o":"m 69 972 l 764 972 l 764 833 l 208 833 l 208 556 l 625 556 l 625 417 l 208 417 l 208 139 l 764 139 l 764 0 l 69 0 l 69 972 m 438 1181 l 576 1181 l 576 1014 l 438 1014 l 438 1181 m 257 1181 l 396 1181 l 396 1014 l 257 1014 l 257 1181 z "},"ë":{"ha":833,"x_min":69,"x_max":764,"o":"m 69 972 l 764 972 l 764 833 l 208 833 l 208 556 l 625 556 l 625 417 l 208 417 l 208 139 l 764 139 l 764 0 l 69 0 l 69 972 m 438 1181 l 576 1181 l 576 1014 l 438 1014 l 438 1181 m 257 1181 l 396 1181 l 396 1014 l 257 1014 l 257 1181 z "},"Ì":{"ha":833,"x_min":69,"x_max":764,"o":"m 69 139 l 347 139 l 347 833 l 69 833 l 69 972 l 764 972 l 764 833 l 486 833 l 486 139 l 764 139 l 764 0 l 69 0 l 69 139 m 240 1181 l 379 1181 l 486 1014 l 347 1014 l 240 1181 z "},"ì":{"ha":833,"x_min":69,"x_max":764,"o":"m 69 139 l 347 139 l 347 833 l 69 833 l 69 972 l 764 972 l 764 833 l 486 833 l 486 139 l 764 139 l 764 0 l 69 0 l 69 139 m 240 1181 l 379 1181 l 486 1014 l 347 1014 l 240 1181 z "},"Í":{"ha":833,"x_min":69,"x_max":764,"o":"m 69 139 l 347 139 l 347 833 l 69 833 l 69 972 l 764 972 l 764 833 l 486 833 l 486 139 l 764 139 l 764 0 l 69 0 l 69 139 m 451 1181 l 590 1181 l 486 1014 l 347 1014 l 451 1181 z "},"í":{"ha":833,"x_min":69,"x_max":764,"o":"m 69 139 l 347 139 l 347 833 l 69 833 l 69 972 l 764 972 l 764 833 l 486 833 l 486 139 l 764 139 l 764 0 l 69 0 l 69 139 m 451 1181 l 590 1181 l 486 1014 l 347 1014 l 451 1181 z "},"Î":{"ha":833,"x_min":69,"x_max":764,"o":"m 69 139 l 347 139 l 347 833 l 69 833 l 69 972 l 764 972 l 764 833 l 486 833 l 486 139 l 764 139 l 764 0 l 69 0 l 69 139 m 257 1104 l 299 1104 l 375 1181 l 458 1181 l 535 1104 l 576 1104 l 576 1014 l 486 1014 l 417 1083 l 347 1014 l 257 1014 l 257 1104 z "},"î":{"ha":833,"x_min":69,"x_max":764,"o":"m 69 139 l 347 139 l 347 833 l 69 833 l 69 972 l 764 972 l 764 833 l 486 833 l 486 139 l 764 139 l 764 0 l 69 0 l 69 139 m 257 1104 l 299 1104 l 375 1181 l 458 1181 l 535 1104 l 576 1104 l 576 1014 l 486 1014 l 417 1083 l 347 1014 l 257 1014 l 257 1104 z "},"Ï":{"ha":833,"x_min":69,"x_max":764,"o":"m 69 139 l 347 139 l 347 833 l 69 833 l 69 972 l 764 972 l 764 833 l 486 833 l 486 139 l 764 139 l 764 0 l 69 0 l 69 139 m 438 1181 l 576 1181 l 576 1014 l 438 1014 l 438 1181 m 257 1181 l 396 1181 l 396 1014 l 257 1014 l 257 1181 z "},"ï":{"ha":833,"x_min":69,"x_max":764,"o":"m 69 139 l 347 139 l 347 833 l 69 833 l 69 972 l 764 972 l 764 833 l 486 833 l 486 139 l 764 139 l 764 0 l 69 0 l 69 139 m 438 1181 l 576 1181 l 576 1014 l 438 1014 l 438 1181 m 257 1181 l 396 1181 l 396 1014 l 257 1014 l 257 1181 z "},"Ð":{"ha":833,"x_min":69,"x_max":764,"o":"m 139 417 l 69 417 l 69 556 l 139 556 l 139 972 l 571 972 q 592 964 583 972 l 756 800 q 764 779 764 792 l 764 193 q 756 172 764 181 l 592 8 q 571 0 583 0 l 139 0 l 139 417 m 514 139 l 625 250 l 625 722 l 514 833 l 278 833 l 278 556 l 458 556 l 458 417 l 278 417 l 278 139 l 514 139 z "},"ð":{"ha":833,"x_min":69,"x_max":764,"o":"m 139 417 l 69 417 l 69 556 l 139 556 l 139 972 l 571 972 q 592 964 583 972 l 756 800 q 764 779 764 792 l 764 193 q 756 172 764 181 l 592 8 q 571 0 583 0 l 139 0 l 139 417 m 514 139 l 625 250 l 625 722 l 514 833 l 278 833 l 278 556 l 458 556 l 458 417 l 278 417 l 278 139 l 514 139 z "},"Ñ":{"ha":833,"x_min":69,"x_max":764,"o":"m 69 972 l 208 972 l 208 729 l 278 729 l 625 382 l 625 972 l 764 972 l 764 0 l 625 0 l 625 243 l 556 243 l 208 590 l 208 0 l 69 0 l 69 972 m 236 1083 l 333 1181 l 403 1181 l 469 1114 l 536 1181 l 597 1181 l 597 1111 l 500 1014 l 432 1014 l 365 1081 l 299 1014 l 236 1014 l 236 1083 z "},"ñ":{"ha":833,"x_min":69,"x_max":764,"o":"m 69 972 l 208 972 l 208 729 l 278 729 l 625 382 l 625 972 l 764 972 l 764 0 l 625 0 l 625 243 l 556 243 l 208 590 l 208 0 l 69 0 l 69 972 m 236 1083 l 333 1181 l 403 1181 l 469 1114 l 536 1181 l 597 1181 l 597 1111 l 500 1014 l 432 1014 l 365 1081 l 299 1014 l 236 1014 l 236 1083 z "},"Ò":{"ha":833,"x_min":69,"x_max":764,"o":"m 235 0 q 214 8 222 0 l 78 144 q 69 165 69 153 l 69 807 q 78 828 69 819 l 214 964 q 235 972 222 972 l 599 972 q 619 964 611 972 l 756 828 q 764 807 764 819 l 764 165 q 756 144 764 153 l 619 8 q 599 0 611 0 l 235 0 m 292 139 l 542 139 l 625 222 l 625 750 l 542 833 l 292 833 l 208 750 l 208 222 l 292 139 m 240 1181 l 379 1181 l 486 1014 l 347 1014 l 240 1181 z "},"ò":{"ha":833,"x_min":69,"x_max":764,"o":"m 235 0 q 214 8 222 0 l 78 144 q 69 165 69 153 l 69 807 q 78 828 69 819 l 214 964 q 235 972 222 972 l 599 972 q 619 964 611 972 l 756 828 q 764 807 764 819 l 764 165 q 756 144 764 153 l 619 8 q 599 0 611 0 l 235 0 m 292 139 l 542 139 l 625 222 l 625 750 l 542 833 l 292 833 l 208 750 l 208 222 l 292 139 m 240 1181 l 379 1181 l 486 1014 l 347 1014 l 240 1181 z "},"Ó":{"ha":833,"x_min":69,"x_max":764,"o":"m 235 0 q 214 8 222 0 l 78 144 q 69 165 69 153 l 69 807 q 78 828 69 819 l 214 964 q 235 972 222 972 l 599 972 q 619 964 611 972 l 756 828 q 764 807 764 819 l 764 165 q 756 144 764 153 l 619 8 q 599 0 611 0 l 235 0 m 292 139 l 542 139 l 625 222 l 625 750 l 542 833 l 292 833 l 208 750 l 208 222 l 292 139 m 451 1181 l 590 1181 l 486 1014 l 347 1014 l 451 1181 z "},"ó":{"ha":833,"x_min":69,"x_max":764,"o":"m 235 0 q 214 8 222 0 l 78 144 q 69 165 69 153 l 69 807 q 78 828 69 819 l 214 964 q 235 972 222 972 l 599 972 q 619 964 611 972 l 756 828 q 764 807 764 819 l 764 165 q 756 144 764 153 l 619 8 q 599 0 611 0 l 235 0 m 292 139 l 542 139 l 625 222 l 625 750 l 542 833 l 292 833 l 208 750 l 208 222 l 292 139 m 451 1181 l 590 1181 l 486 1014 l 347 1014 l 451 1181 z "},"Ô":{"ha":833,"x_min":69,"x_max":764,"o":"m 235 0 q 214 8 222 0 l 78 144 q 69 165 69 153 l 69 807 q 78 828 69 819 l 214 964 q 235 972 222 972 l 599 972 q 619 964 611 972 l 756 828 q 764 807 764 819 l 764 165 q 756 144 764 153 l 619 8 q 599 0 611 0 l 235 0 m 292 139 l 542 139 l 625 222 l 625 750 l 542 833 l 292 833 l 208 750 l 208 222 l 292 139 m 257 1104 l 299 1104 l 375 1181 l 458 1181 l 535 1104 l 576 1104 l 576 1014 l 486 1014 l 417 1083 l 347 1014 l 257 1014 l 257 1104 z "},"ô":{"ha":833,"x_min":69,"x_max":764,"o":"m 235 0 q 214 8 222 0 l 78 144 q 69 165 69 153 l 69 807 q 78 828 69 819 l 214 964 q 235 972 222 972 l 599 972 q 619 964 611 972 l 756 828 q 764 807 764 819 l 764 165 q 756 144 764 153 l 619 8 q 599 0 611 0 l 235 0 m 292 139 l 542 139 l 625 222 l 625 750 l 542 833 l 292 833 l 208 750 l 208 222 l 292 139 m 257 1104 l 299 1104 l 375 1181 l 458 1181 l 535 1104 l 576 1104 l 576 1014 l 486 1014 l 417 1083 l 347 1014 l 257 1014 l 257 1104 z "},"Õ":{"ha":833,"x_min":69,"x_max":764,"o":"m 235 0 q 214 8 222 0 l 78 144 q 69 165 69 153 l 69 807 q 78 828 69 819 l 214 964 q 235 972 222 972 l 599 972 q 619 964 611 972 l 756 828 q 764 807 764 819 l 764 165 q 756 144 764 153 l 619 8 q 599 0 611 0 l 235 0 m 292 139 l 542 139 l 625 222 l 625 750 l 542 833 l 292 833 l 208 750 l 208 222 l 292 139 m 236 1083 l 333 1181 l 403 1181 l 469 1114 l 536 1181 l 597 1181 l 597 1111 l 500 1014 l 432 1014 l 365 1081 l 299 1014 l 236 1014 l 236 1083 z "},"õ":{"ha":833,"x_min":69,"x_max":764,"o":"m 235 0 q 214 8 222 0 l 78 144 q 69 165 69 153 l 69 807 q 78 828 69 819 l 214 964 q 235 972 222 972 l 599 972 q 619 964 611 972 l 756 828 q 764 807 764 819 l 764 165 q 756 144 764 153 l 619 8 q 599 0 611 0 l 235 0 m 292 139 l 542 139 l 625 222 l 625 750 l 542 833 l 292 833 l 208 750 l 208 222 l 292 139 m 236 1083 l 333 1181 l 403 1181 l 469 1114 l 536 1181 l 597 1181 l 597 1111 l 500 1014 l 432 1014 l 365 1081 l 299 1014 l 236 1014 l 236 1083 z "},"Ö":{"ha":833,"x_min":69,"x_max":764,"o":"m 235 0 q 214 8 222 0 l 78 144 q 69 165 69 153 l 69 807 q 78 828 69 819 l 214 964 q 235 972 222 972 l 599 972 q 619 964 611 972 l 756 828 q 764 807 764 819 l 764 165 q 756 144 764 153 l 619 8 q 599 0 611 0 l 235 0 m 292 139 l 542 139 l 625 222 l 625 750 l 542 833 l 292 833 l 208 750 l 208 222 l 292 139 m 438 1181 l 576 1181 l 576 1014 l 438 1014 l 438 1181 m 257 1181 l 396 1181 l 396 1014 l 257 1014 l 257 1181 z "},"ö":{"ha":833,"x_min":69,"x_max":764,"o":"m 235 0 q 214 8 222 0 l 78 144 q 69 165 69 153 l 69 807 q 78 828 69 819 l 214 964 q 235 972 222 972 l 599 972 q 619 964 611 972 l 756 828 q 764 807 764 819 l 764 165 q 756 144 764 153 l 619 8 q 599 0 611 0 l 235 0 m 292 139 l 542 139 l 625 222 l 625 750 l 542 833 l 292 833 l 208 750 l 208 222 l 292 139 m 438 1181 l 576 1181 l 576 1014 l 438 1014 l 438 1181 m 257 1181 l 396 1181 l 396 1014 l 257 1014 l 257 1181 z "},"×":{"ha":833,"x_min":122,"x_max":711,"o":"m 122 290 l 318 486 l 122 682 l 221 781 l 417 585 l 613 781 l 711 682 l 515 486 l 711 290 l 613 192 l 417 388 l 221 192 l 122 290 z "},"Ø":{"ha":833,"x_min":69,"x_max":764,"o":"m 69 0 l 129 93 l 78 144 q 69 165 69 153 l 69 807 q 78 828 69 819 l 214 964 q 235 972 222 972 l 599 972 q 619 964 611 972 l 658 925 l 711 1007 l 764 972 l 704 879 l 756 828 q 764 807 764 819 l 764 165 q 756 144 764 153 l 619 8 q 599 0 611 0 l 235 0 q 214 8 222 0 l 175 47 l 122 -35 l 69 0 m 210 221 l 578 797 l 542 833 l 292 833 l 208 750 l 208 222 l 210 221 m 292 139 l 542 139 l 625 222 l 625 750 l 624 751 l 256 175 l 292 139 z "},"ø":{"ha":833,"x_min":69,"x_max":764,"o":"m 69 0 l 129 93 l 78 144 q 69 165 69 153 l 69 807 q 78 828 69 819 l 214 964 q 235 972 222 972 l 599 972 q 619 964 611 972 l 658 925 l 711 1007 l 764 972 l 704 879 l 756 828 q 764 807 764 819 l 764 165 q 756 144 764 153 l 619 8 q 599 0 611 0 l 235 0 q 214 8 222 0 l 175 47 l 122 -35 l 69 0 m 210 221 l 578 797 l 542 833 l 292 833 l 208 750 l 208 222 l 210 221 m 292 139 l 542 139 l 625 222 l 625 750 l 624 751 l 256 175 l 292 139 z "},"Ù":{"ha":833,"x_min":69,"x_max":764,"o":"m 235 0 q 214 8 222 0 l 78 144 q 69 165 69 153 l 69 972 l 208 972 l 208 222 l 292 139 l 542 139 l 625 222 l 625 972 l 764 972 l 764 165 q 756 144 764 153 l 619 8 q 599 0 611 0 l 235 0 m 240 1181 l 379 1181 l 486 1014 l 347 1014 l 240 1181 z "},"ù":{"ha":833,"x_min":69,"x_max":764,"o":"m 235 0 q 214 8 222 0 l 78 144 q 69 165 69 153 l 69 972 l 208 972 l 208 222 l 292 139 l 542 139 l 625 222 l 625 972 l 764 972 l 764 165 q 756 144 764 153 l 619 8 q 599 0 611 0 l 235 0 m 240 1181 l 379 1181 l 486 1014 l 347 1014 l 240 1181 z "},"Ú":{"ha":833,"x_min":69,"x_max":764,"o":"m 235 0 q 214 8 222 0 l 78 144 q 69 165 69 153 l 69 972 l 208 972 l 208 222 l 292 139 l 542 139 l 625 222 l 625 972 l 764 972 l 764 165 q 756 144 764 153 l 619 8 q 599 0 611 0 l 235 0 m 451 1181 l 590 1181 l 486 1014 l 347 1014 l 451 1181 z "},"ú":{"ha":833,"x_min":69,"x_max":764,"o":"m 235 0 q 214 8 222 0 l 78 144 q 69 165 69 153 l 69 972 l 208 972 l 208 222 l 292 139 l 542 139 l 625 222 l 625 972 l 764 972 l 764 165 q 756 144 764 153 l 619 8 q 599 0 611 0 l 235 0 m 451 1181 l 590 1181 l 486 1014 l 347 1014 l 451 1181 z "},"Û":{"ha":833,"x_min":69,"x_max":764,"o":"m 235 0 q 214 8 222 0 l 78 144 q 69 165 69 153 l 69 972 l 208 972 l 208 222 l 292 139 l 542 139 l 625 222 l 625 972 l 764 972 l 764 165 q 756 144 764 153 l 619 8 q 599 0 611 0 l 235 0 m 257 1104 l 299 1104 l 375 1181 l 458 1181 l 535 1104 l 576 1104 l 576 1014 l 486 1014 l 417 1083 l 347 1014 l 257 1014 l 257 1104 z "},"û":{"ha":833,"x_min":69,"x_max":764,"o":"m 235 0 q 214 8 222 0 l 78 144 q 69 165 69 153 l 69 972 l 208 972 l 208 222 l 292 139 l 542 139 l 625 222 l 625 972 l 764 972 l 764 165 q 756 144 764 153 l 619 8 q 599 0 611 0 l 235 0 m 257 1104 l 299 1104 l 375 1181 l 458 1181 l 535 1104 l 576 1104 l 576 1014 l 486 1014 l 417 1083 l 347 1014 l 257 1014 l 257 1104 z "},"Ü":{"ha":833,"x_min":69,"x_max":764,"o":"m 235 0 q 214 8 222 0 l 78 144 q 69 165 69 153 l 69 972 l 208 972 l 208 222 l 292 139 l 542 139 l 625 222 l 625 972 l 764 972 l 764 165 q 756 144 764 153 l 619 8 q 599 0 611 0 l 235 0 m 438 1181 l 576 1181 l 576 1014 l 438 1014 l 438 1181 m 257 1181 l 396 1181 l 396 1014 l 257 1014 l 257 1181 z "},"ü":{"ha":833,"x_min":69,"x_max":764,"o":"m 235 0 q 214 8 222 0 l 78 144 q 69 165 69 153 l 69 972 l 208 972 l 208 222 l 292 139 l 542 139 l 625 222 l 625 972 l 764 972 l 764 165 q 756 144 764 153 l 619 8 q 599 0 611 0 l 235 0 m 438 1181 l 576 1181 l 576 1014 l 438 1014 l 438 1181 m 257 1181 l 396 1181 l 396 1014 l 257 1014 l 257 1181 z "},"Ý":{"ha":833,"x_min":69,"x_max":764,"o":"m 347 451 l 78 721 q 69 742 69 729 l 69 972 l 208 972 l 208 799 l 417 590 l 625 799 l 625 972 l 764 972 l 764 742 q 756 721 764 729 l 486 451 l 486 0 l 347 0 l 347 451 m 451 1181 l 590 1181 l 486 1014 l 347 1014 l 451 1181 z "},"ý":{"ha":833,"x_min":69,"x_max":764,"o":"m 347 451 l 78 721 q 69 742 69 729 l 69 972 l 208 972 l 208 799 l 417 590 l 625 799 l 625 972 l 764 972 l 764 742 q 756 721 764 729 l 486 451 l 486 0 l 347 0 l 347 451 m 451 1181 l 590 1181 l 486 1014 l 347 1014 l 451 1181 z "},"Þ":{"ha":833,"x_min":69,"x_max":764,"o":"m 69 972 l 208 972 l 208 764 l 599 764 q 619 756 611 764 l 756 619 q 764 599 764 611 l 764 374 q 756 353 764 361 l 619 217 q 599 208 611 208 l 208 208 l 208 0 l 69 0 l 69 972 m 542 347 l 625 431 l 625 542 l 542 625 l 208 625 l 208 347 l 542 347 z "},"þ":{"ha":833,"x_min":69,"x_max":764,"o":"m 69 972 l 208 972 l 208 764 l 599 764 q 619 756 611 764 l 756 619 q 764 599 764 611 l 764 374 q 756 353 764 361 l 619 217 q 599 208 611 208 l 208 208 l 208 0 l 69 0 l 69 972 m 542 347 l 625 431 l 625 542 l 542 625 l 208 625 l 208 347 l 542 347 z "},"ß":{"ha":833,"x_min":69,"x_max":764,"o":"m 69 972 l 764 972 l 764 833 l 694 833 l 694 778 l 500 583 l 613 583 q 633 575 625 583 l 756 453 q 764 432 764 444 l 764 151 q 756 131 764 139 l 633 8 q 613 0 625 0 l 429 0 q 408 8 417 0 l 286 131 q 278 151 278 139 l 278 347 l 417 347 l 417 208 l 486 139 l 556 139 l 625 208 l 625 375 l 556 444 l 278 444 l 278 556 l 556 833 l 208 833 l 208 0 l 69 0 l 69 972 z "},"ẞ":{"ha":833,"x_min":69,"x_max":764,"o":"m 69 972 l 764 972 l 764 833 l 694 833 l 694 778 l 500 583 l 613 583 q 633 575 625 583 l 756 453 q 764 432 764 444 l 764 151 q 756 131 764 139 l 633 8 q 613 0 625 0 l 429 0 q 408 8 417 0 l 286 131 q 278 151 278 139 l 278 347 l 417 347 l 417 208 l 486 139 l 556 139 l 625 208 l 625 375 l 556 444 l 278 444 l 278 556 l 556 833 l 208 833 l 208 0 l 69 0 l 69 972 z "},"÷":{"ha":833,"x_min":69,"x_max":764,"o":"m 69 556 l 764 556 l 764 417 l 69 417 l 69 556 m 333 264 l 500 264 l 500 97 l 333 97 l 333 264 m 333 875 l 500 875 l 500 708 l 333 708 l 333 875 z "},"ÿ":{"ha":833,"x_min":69,"x_max":764,"o":"m 347 451 l 78 721 q 69 742 69 729 l 69 972 l 208 972 l 208 799 l 417 590 l 625 799 l 625 972 l 764 972 l 764 742 q 756 721 764 729 l 486 451 l 486 0 l 347 0 l 347 451 m 438 1181 l 576 1181 l 576 1014 l 438 1014 l 438 1181 m 257 1181 l 396 1181 l 396 1014 l 257 1014 l 257 1181 z "},"Ÿ":{"ha":833,"x_min":69,"x_max":764,"o":"m 347 451 l 78 721 q 69 742 69 729 l 69 972 l 208 972 l 208 799 l 417 590 l 625 799 l 625 972 l 764 972 l 764 742 q 756 721 764 729 l 486 451 l 486 0 l 347 0 l 347 451 m 438 1181 l 576 1181 l 576 1014 l 438 1014 l 438 1181 m 257 1181 l 396 1181 l 396 1014 l 257 1014 l 257 1181 z "},"Ā":{"ha":833,"x_min":69,"x_max":764,"o":"m 69 613 q 78 633 69 625 l 347 903 l 347 972 l 486 972 l 486 903 l 756 633 q 764 613 764 625 l 764 0 l 625 0 l 625 278 l 208 278 l 208 0 l 69 0 l 69 613 m 625 417 l 625 556 l 417 764 l 208 556 l 208 417 l 625 417 m 69 1181 l 764 1181 l 764 1056 l 69 1056 l 69 1181 z "},"ā":{"ha":833,"x_min":69,"x_max":764,"o":"m 69 613 q 78 633 69 625 l 347 903 l 347 972 l 486 972 l 486 903 l 756 633 q 764 613 764 625 l 764 0 l 625 0 l 625 278 l 208 278 l 208 0 l 69 0 l 69 613 m 625 417 l 625 556 l 417 764 l 208 556 l 208 417 l 625 417 m 69 1181 l 764 1181 l 764 1056 l 69 1056 l 69 1181 z "},"Ă":{"ha":833,"x_min":69,"x_max":764,"o":"m 69 613 q 78 633 69 625 l 347 903 l 347 972 l 486 972 l 486 903 l 756 633 q 764 613 764 625 l 764 0 l 625 0 l 625 278 l 208 278 l 208 0 l 69 0 l 69 613 m 625 417 l 625 556 l 417 764 l 208 556 l 208 417 l 625 417 m 346 1014 q 325 1022 333 1014 l 238 1110 q 229 1131 229 1118 l 229 1181 l 340 1181 l 340 1160 l 396 1104 l 438 1104 l 493 1160 l 493 1181 l 604 1181 l 604 1131 q 596 1110 604 1118 l 508 1022 q 488 1014 500 1014 l 346 1014 z "},"ă":{"ha":833,"x_min":69,"x_max":764,"o":"m 69 613 q 78 633 69 625 l 347 903 l 347 972 l 486 972 l 486 903 l 756 633 q 764 613 764 625 l 764 0 l 625 0 l 625 278 l 208 278 l 208 0 l 69 0 l 69 613 m 625 417 l 625 556 l 417 764 l 208 556 l 208 417 l 625 417 m 346 1014 q 325 1022 333 1014 l 238 1110 q 229 1131 229 1118 l 229 1181 l 340 1181 l 340 1160 l 396 1104 l 438 1104 l 493 1160 l 493 1181 l 604 1181 l 604 1131 q 596 1110 604 1118 l 508 1022 q 488 1014 500 1014 l 346 1014 z "},"Ą":{"ha":833,"x_min":69,"x_max":958,"o":"m 69 613 q 78 633 69 625 l 347 903 l 347 972 l 486 972 l 486 903 l 756 633 q 764 613 764 625 l 764 42 l 847 -42 l 958 -42 l 958 -181 l 806 -181 l 625 0 l 625 278 l 208 278 l 208 0 l 69 0 l 69 613 m 625 417 l 625 556 l 417 764 l 208 556 l 208 417 l 625 417 z "},"ą":{"ha":833,"x_min":69,"x_max":958,"o":"m 69 613 q 78 633 69 625 l 347 903 l 347 972 l 486 972 l 486 903 l 756 633 q 764 613 764 625 l 764 42 l 847 -42 l 958 -42 l 958 -181 l 806 -181 l 625 0 l 625 278 l 208 278 l 208 0 l 69 0 l 69 613 m 625 417 l 625 556 l 417 764 l 208 556 l 208 417 l 625 417 z "},"Ć":{"ha":833,"x_min":69,"x_max":764,"o":"m 235 0 q 214 8 222 0 l 78 144 q 69 165 69 153 l 69 807 q 78 828 69 819 l 214 964 q 235 972 222 972 l 599 972 q 619 964 611 972 l 756 828 q 764 807 764 819 l 764 625 l 625 625 l 625 750 l 542 833 l 292 833 l 208 750 l 208 222 l 292 139 l 542 139 l 625 222 l 625 347 l 764 347 l 764 165 q 756 144 764 153 l 619 8 q 599 0 611 0 l 235 0 m 451 1181 l 590 1181 l 486 1014 l 347 1014 l 451 1181 z "},"ć":{"ha":833,"x_min":69,"x_max":764,"o":"m 235 0 q 214 8 222 0 l 78 144 q 69 165 69 153 l 69 807 q 78 828 69 819 l 214 964 q 235 972 222 972 l 599 972 q 619 964 611 972 l 756 828 q 764 807 764 819 l 764 625 l 625 625 l 625 750 l 542 833 l 292 833 l 208 750 l 208 222 l 292 139 l 542 139 l 625 222 l 625 347 l 764 347 l 764 165 q 756 144 764 153 l 619 8 q 599 0 611 0 l 235 0 m 451 1181 l 590 1181 l 486 1014 l 347 1014 l 451 1181 z "},"Ĉ":{"ha":833,"x_min":69,"x_max":764,"o":"m 235 0 q 214 8 222 0 l 78 144 q 69 165 69 153 l 69 807 q 78 828 69 819 l 214 964 q 235 972 222 972 l 599 972 q 619 964 611 972 l 756 828 q 764 807 764 819 l 764 625 l 625 625 l 625 750 l 542 833 l 292 833 l 208 750 l 208 222 l 292 139 l 542 139 l 625 222 l 625 347 l 764 347 l 764 165 q 756 144 764 153 l 619 8 q 599 0 611 0 l 235 0 m 257 1104 l 299 1104 l 375 1181 l 458 1181 l 535 1104 l 576 1104 l 576 1014 l 486 1014 l 417 1083 l 347 1014 l 257 1014 l 257 1104 z "},"ĉ":{"ha":833,"x_min":69,"x_max":764,"o":"m 235 0 q 214 8 222 0 l 78 144 q 69 165 69 153 l 69 807 q 78 828 69 819 l 214 964 q 235 972 222 972 l 599 972 q 619 964 611 972 l 756 828 q 764 807 764 819 l 764 625 l 625 625 l 625 750 l 542 833 l 292 833 l 208 750 l 208 222 l 292 139 l 542 139 l 625 222 l 625 347 l 764 347 l 764 165 q 756 144 764 153 l 619 8 q 599 0 611 0 l 235 0 m 257 1104 l 299 1104 l 375 1181 l 458 1181 l 535 1104 l 576 1104 l 576 1014 l 486 1014 l 417 1083 l 347 1014 l 257 1014 l 257 1104 z "},"Ċ":{"ha":833,"x_min":69,"x_max":764,"o":"m 235 0 q 214 8 222 0 l 78 144 q 69 165 69 153 l 69 807 q 78 828 69 819 l 214 964 q 235 972 222 972 l 599 972 q 619 964 611 972 l 756 828 q 764 807 764 819 l 764 625 l 625 625 l 625 750 l 542 833 l 292 833 l 208 750 l 208 222 l 292 139 l 542 139 l 625 222 l 625 347 l 764 347 l 764 165 q 756 144 764 153 l 619 8 q 599 0 611 0 l 235 0 m 347 1181 l 486 1181 l 486 1014 l 347 1014 l 347 1181 z "},"ċ":{"ha":833,"x_min":69,"x_max":764,"o":"m 235 0 q 214 8 222 0 l 78 144 q 69 165 69 153 l 69 807 q 78 828 69 819 l 214 964 q 235 972 222 972 l 599 972 q 619 964 611 972 l 756 828 q 764 807 764 819 l 764 625 l 625 625 l 625 750 l 542 833 l 292 833 l 208 750 l 208 222 l 292 139 l 542 139 l 625 222 l 625 347 l 764 347 l 764 165 q 756 144 764 153 l 619 8 q 599 0 611 0 l 235 0 m 347 1181 l 486 1181 l 486 1014 l 347 1014 l 347 1181 z "},"Č":{"ha":833,"x_min":69,"x_max":764,"o":"m 235 0 q 214 8 222 0 l 78 144 q 69 165 69 153 l 69 807 q 78 828 69 819 l 214 964 q 235 972 222 972 l 599 972 q 619 964 611 972 l 756 828 q 764 807 764 819 l 764 625 l 625 625 l 625 750 l 542 833 l 292 833 l 208 750 l 208 222 l 292 139 l 542 139 l 625 222 l 625 347 l 764 347 l 764 165 q 756 144 764 153 l 619 8 q 599 0 611 0 l 235 0 m 299 1090 l 257 1090 l 257 1181 l 347 1181 l 417 1111 l 486 1181 l 576 1181 l 576 1090 l 535 1090 l 458 1014 l 375 1014 l 299 1090 z "},"č":{"ha":833,"x_min":69,"x_max":764,"o":"m 235 0 q 214 8 222 0 l 78 144 q 69 165 69 153 l 69 807 q 78 828 69 819 l 214 964 q 235 972 222 972 l 599 972 q 619 964 611 972 l 756 828 q 764 807 764 819 l 764 625 l 625 625 l 625 750 l 542 833 l 292 833 l 208 750 l 208 222 l 292 139 l 542 139 l 625 222 l 625 347 l 764 347 l 764 165 q 756 144 764 153 l 619 8 q 599 0 611 0 l 235 0 m 299 1090 l 257 1090 l 257 1181 l 347 1181 l 417 1111 l 486 1181 l 576 1181 l 576 1090 l 535 1090 l 458 1014 l 375 1014 l 299 1090 z "},"Ď":{"ha":833,"x_min":69,"x_max":764,"o":"m 69 972 l 543 972 q 564 964 556 972 l 756 772 q 764 751 764 764 l 764 221 q 756 200 764 208 l 564 8 q 543 0 556 0 l 69 0 l 69 972 m 486 139 l 625 278 l 625 694 l 486 833 l 208 833 l 208 139 l 486 139 m 299 1090 l 257 1090 l 257 1181 l 347 1181 l 417 1111 l 486 1181 l 576 1181 l 576 1090 l 535 1090 l 458 1014 l 375 1014 l 299 1090 z "},"ď":{"ha":833,"x_min":69,"x_max":764,"o":"m 69 972 l 543 972 q 564 964 556 972 l 756 772 q 764 751 764 764 l 764 221 q 756 200 764 208 l 564 8 q 543 0 556 0 l 69 0 l 69 972 m 486 139 l 625 278 l 625 694 l 486 833 l 208 833 l 208 139 l 486 139 m 299 1090 l 257 1090 l 257 1181 l 347 1181 l 417 1111 l 486 1181 l 576 1181 l 576 1090 l 535 1090 l 458 1014 l 375 1014 l 299 1090 z "},"Đ":{"ha":833,"x_min":69,"x_max":764,"o":"m 139 417 l 69 417 l 69 556 l 139 556 l 139 972 l 571 972 q 592 964 583 972 l 756 800 q 764 779 764 792 l 764 193 q 756 172 764 181 l 592 8 q 571 0 583 0 l 139 0 l 139 417 m 514 139 l 625 250 l 625 722 l 514 833 l 278 833 l 278 556 l 458 556 l 458 417 l 278 417 l 278 139 l 514 139 z "},"đ":{"ha":833,"x_min":69,"x_max":764,"o":"m 139 417 l 69 417 l 69 556 l 139 556 l 139 972 l 571 972 q 592 964 583 972 l 756 800 q 764 779 764 792 l 764 193 q 756 172 764 181 l 592 8 q 571 0 583 0 l 139 0 l 139 417 m 514 139 l 625 250 l 625 722 l 514 833 l 278 833 l 278 556 l 458 556 l 458 417 l 278 417 l 278 139 l 514 139 z "},"Ē":{"ha":833,"x_min":69,"x_max":764,"o":"m 69 972 l 764 972 l 764 833 l 208 833 l 208 556 l 625 556 l 625 417 l 208 417 l 208 139 l 764 139 l 764 0 l 69 0 l 69 972 m 69 1181 l 764 1181 l 764 1056 l 69 1056 l 69 1181 z "},"ē":{"ha":833,"x_min":69,"x_max":764,"o":"m 69 972 l 764 972 l 764 833 l 208 833 l 208 556 l 625 556 l 625 417 l 208 417 l 208 139 l 764 139 l 764 0 l 69 0 l 69 972 m 69 1181 l 764 1181 l 764 1056 l 69 1056 l 69 1181 z "},"Ĕ":{"ha":833,"x_min":69,"x_max":764,"o":"m 69 972 l 764 972 l 764 833 l 208 833 l 208 556 l 625 556 l 625 417 l 208 417 l 208 139 l 764 139 l 764 0 l 69 0 l 69 972 m 346 1014 q 325 1022 333 1014 l 238 1110 q 229 1131 229 1118 l 229 1181 l 340 1181 l 340 1160 l 396 1104 l 438 1104 l 493 1160 l 493 1181 l 604 1181 l 604 1131 q 596 1110 604 1118 l 508 1022 q 488 1014 500 1014 l 346 1014 z "},"ĕ":{"ha":833,"x_min":69,"x_max":764,"o":"m 69 972 l 764 972 l 764 833 l 208 833 l 208 556 l 625 556 l 625 417 l 208 417 l 208 139 l 764 139 l 764 0 l 69 0 l 69 972 m 346 1014 q 325 1022 333 1014 l 238 1110 q 229 1131 229 1118 l 229 1181 l 340 1181 l 340 1160 l 396 1104 l 438 1104 l 493 1160 l 493 1181 l 604 1181 l 604 1131 q 596 1110 604 1118 l 508 1022 q 488 1014 500 1014 l 346 1014 z "},"Ė":{"ha":833,"x_min":69,"x_max":764,"o":"m 69 972 l 764 972 l 764 833 l 208 833 l 208 556 l 625 556 l 625 417 l 208 417 l 208 139 l 764 139 l 764 0 l 69 0 l 69 972 m 347 1181 l 486 1181 l 486 1014 l 347 1014 l 347 1181 z "},"ė":{"ha":833,"x_min":69,"x_max":764,"o":"m 69 972 l 764 972 l 764 833 l 208 833 l 208 556 l 625 556 l 625 417 l 208 417 l 208 139 l 764 139 l 764 0 l 69 0 l 69 972 m 347 1181 l 486 1181 l 486 1014 l 347 1014 l 347 1181 z "},"Ę":{"ha":833,"x_min":69,"x_max":764,"o":"m 69 972 l 764 972 l 764 833 l 208 833 l 208 556 l 625 556 l 625 417 l 208 417 l 208 139 l 764 139 l 764 0 l 611 0 l 653 -42 l 764 -42 l 764 -181 l 611 -181 l 431 0 l 69 0 l 69 972 z "},"ę":{"ha":833,"x_min":69,"x_max":764,"o":"m 69 972 l 764 972 l 764 833 l 208 833 l 208 556 l 625 556 l 625 417 l 208 417 l 208 139 l 764 139 l 764 0 l 611 0 l 653 -42 l 764 -42 l 764 -181 l 611 -181 l 431 0 l 69 0 l 69 972 z "},"Ě":{"ha":833,"x_min":69,"x_max":764,"o":"m 69 972 l 764 972 l 764 833 l 208 833 l 208 556 l 625 556 l 625 417 l 208 417 l 208 139 l 764 139 l 764 0 l 69 0 l 69 972 m 299 1090 l 257 1090 l 257 1181 l 347 1181 l 417 1111 l 486 1181 l 576 1181 l 576 1090 l 535 1090 l 458 1014 l 375 1014 l 299 1090 z "},"ě":{"ha":833,"x_min":69,"x_max":764,"o":"m 69 972 l 764 972 l 764 833 l 208 833 l 208 556 l 625 556 l 625 417 l 208 417 l 208 139 l 764 139 l 764 0 l 69 0 l 69 972 m 299 1090 l 257 1090 l 257 1181 l 347 1181 l 417 1111 l 486 1181 l 576 1181 l 576 1090 l 535 1090 l 458 1014 l 375 1014 l 299 1090 z "},"Ĝ":{"ha":833,"x_min":69,"x_max":764,"o":"m 235 0 q 214 8 222 0 l 78 144 q 69 165 69 153 l 69 807 q 78 828 69 819 l 214 964 q 235 972 222 972 l 599 972 q 619 964 611 972 l 756 828 q 764 807 764 819 l 764 625 l 625 625 l 625 750 l 542 833 l 292 833 l 208 750 l 208 222 l 292 139 l 542 139 l 625 222 l 625 417 l 417 417 l 417 556 l 764 556 l 764 165 q 756 144 764 153 l 619 8 q 599 0 611 0 l 235 0 m 257 1104 l 299 1104 l 375 1181 l 458 1181 l 535 1104 l 576 1104 l 576 1014 l 486 1014 l 417 1083 l 347 1014 l 257 1014 l 257 1104 z "},"ĝ":{"ha":833,"x_min":69,"x_max":764,"o":"m 235 0 q 214 8 222 0 l 78 144 q 69 165 69 153 l 69 807 q 78 828 69 819 l 214 964 q 235 972 222 972 l 599 972 q 619 964 611 972 l 756 828 q 764 807 764 819 l 764 625 l 625 625 l 625 750 l 542 833 l 292 833 l 208 750 l 208 222 l 292 139 l 542 139 l 625 222 l 625 417 l 417 417 l 417 556 l 764 556 l 764 165 q 756 144 764 153 l 619 8 q 599 0 611 0 l 235 0 m 257 1104 l 299 1104 l 375 1181 l 458 1181 l 535 1104 l 576 1104 l 576 1014 l 486 1014 l 417 1083 l 347 1014 l 257 1014 l 257 1104 z "},"Ğ":{"ha":833,"x_min":69,"x_max":764,"o":"m 235 0 q 214 8 222 0 l 78 144 q 69 165 69 153 l 69 807 q 78 828 69 819 l 214 964 q 235 972 222 972 l 599 972 q 619 964 611 972 l 756 828 q 764 807 764 819 l 764 625 l 625 625 l 625 750 l 542 833 l 292 833 l 208 750 l 208 222 l 292 139 l 542 139 l 625 222 l 625 417 l 417 417 l 417 556 l 764 556 l 764 165 q 756 144 764 153 l 619 8 q 599 0 611 0 l 235 0 m 346 1014 q 325 1022 333 1014 l 238 1110 q 229 1131 229 1118 l 229 1181 l 340 1181 l 340 1160 l 396 1104 l 438 1104 l 493 1160 l 493 1181 l 604 1181 l 604 1131 q 596 1110 604 1118 l 508 1022 q 488 1014 500 1014 l 346 1014 z "},"ğ":{"ha":833,"x_min":69,"x_max":764,"o":"m 235 0 q 214 8 222 0 l 78 144 q 69 165 69 153 l 69 807 q 78 828 69 819 l 214 964 q 235 972 222 972 l 599 972 q 619 964 611 972 l 756 828 q 764 807 764 819 l 764 625 l 625 625 l 625 750 l 542 833 l 292 833 l 208 750 l 208 222 l 292 139 l 542 139 l 625 222 l 625 417 l 417 417 l 417 556 l 764 556 l 764 165 q 756 144 764 153 l 619 8 q 599 0 611 0 l 235 0 m 346 1014 q 325 1022 333 1014 l 238 1110 q 229 1131 229 1118 l 229 1181 l 340 1181 l 340 1160 l 396 1104 l 438 1104 l 493 1160 l 493 1181 l 604 1181 l 604 1131 q 596 1110 604 1118 l 508 1022 q 488 1014 500 1014 l 346 1014 z "},"Ġ":{"ha":833,"x_min":69,"x_max":764,"o":"m 235 0 q 214 8 222 0 l 78 144 q 69 165 69 153 l 69 807 q 78 828 69 819 l 214 964 q 235 972 222 972 l 599 972 q 619 964 611 972 l 756 828 q 764 807 764 819 l 764 625 l 625 625 l 625 750 l 542 833 l 292 833 l 208 750 l 208 222 l 292 139 l 542 139 l 625 222 l 625 417 l 417 417 l 417 556 l 764 556 l 764 165 q 756 144 764 153 l 619 8 q 599 0 611 0 l 235 0 m 347 1181 l 486 1181 l 486 1014 l 347 1014 l 347 1181 z "},"ġ":{"ha":833,"x_min":69,"x_max":764,"o":"m 235 0 q 214 8 222 0 l 78 144 q 69 165 69 153 l 69 807 q 78 828 69 819 l 214 964 q 235 972 222 972 l 599 972 q 619 964 611 972 l 756 828 q 764 807 764 819 l 764 625 l 625 625 l 625 750 l 542 833 l 292 833 l 208 750 l 208 222 l 292 139 l 542 139 l 625 222 l 625 417 l 417 417 l 417 556 l 764 556 l 764 165 q 756 144 764 153 l 619 8 q 599 0 611 0 l 235 0 m 347 1181 l 486 1181 l 486 1014 l 347 1014 l 347 1181 z "},"Ģ":{"ha":833,"x_min":69,"x_max":764,"o":"m 235 0 q 214 8 222 0 l 78 144 q 69 165 69 153 l 69 807 q 78 828 69 819 l 214 964 q 235 972 222 972 l 599 972 q 619 964 611 972 l 756 828 q 764 807 764 819 l 764 625 l 625 625 l 625 750 l 542 833 l 292 833 l 208 750 l 208 222 l 292 139 l 542 139 l 625 222 l 625 417 l 417 417 l 417 556 l 764 556 l 764 165 q 756 144 764 153 l 619 8 q 599 0 611 0 l 235 0 m 344 -190 l 415 -190 l 415 -156 l 344 -156 l 344 -28 l 489 -28 l 489 -246 l 344 -246 l 344 -190 z "},"ģ":{"ha":833,"x_min":69,"x_max":764,"o":"m 235 0 q 214 8 222 0 l 78 144 q 69 165 69 153 l 69 807 q 78 828 69 819 l 214 964 q 235 972 222 972 l 599 972 q 619 964 611 972 l 756 828 q 764 807 764 819 l 764 625 l 625 625 l 625 750 l 542 833 l 292 833 l 208 750 l 208 222 l 292 139 l 542 139 l 625 222 l 625 417 l 417 417 l 417 556 l 764 556 l 764 165 q 756 144 764 153 l 619 8 q 599 0 611 0 l 235 0 m 344 -190 l 415 -190 l 415 -156 l 344 -156 l 344 -28 l 489 -28 l 489 -246 l 344 -246 l 344 -190 z "},"Ĥ":{"ha":833,"x_min":69,"x_max":764,"o":"m 69 972 l 208 972 l 208 556 l 625 556 l 625 972 l 764 972 l 764 0 l 625 0 l 625 417 l 208 417 l 208 0 l 69 0 l 69 972 m 257 1104 l 299 1104 l 375 1181 l 458 1181 l 535 1104 l 576 1104 l 576 1014 l 486 1014 l 417 1083 l 347 1014 l 257 1014 l 257 1104 z "},"ĥ":{"ha":833,"x_min":69,"x_max":764,"o":"m 69 972 l 208 972 l 208 556 l 625 556 l 625 972 l 764 972 l 764 0 l 625 0 l 625 417 l 208 417 l 208 0 l 69 0 l 69 972 m 257 1104 l 299 1104 l 375 1181 l 458 1181 l 535 1104 l 576 1104 l 576 1014 l 486 1014 l 417 1083 l 347 1014 l 257 1014 l 257 1104 z "},"Ħ":{"ha":833,"x_min":69,"x_max":764,"o":"m 139 667 l 69 667 l 69 806 l 139 806 l 139 972 l 278 972 l 278 806 l 556 806 l 556 972 l 694 972 l 694 806 l 764 806 l 764 667 l 694 667 l 694 0 l 556 0 l 556 417 l 278 417 l 278 0 l 139 0 l 139 667 m 556 556 l 556 667 l 278 667 l 278 556 l 556 556 z "},"ħ":{"ha":833,"x_min":69,"x_max":764,"o":"m 139 667 l 69 667 l 69 806 l 139 806 l 139 972 l 278 972 l 278 806 l 556 806 l 556 972 l 694 972 l 694 806 l 764 806 l 764 667 l 694 667 l 694 0 l 556 0 l 556 417 l 278 417 l 278 0 l 139 0 l 139 667 m 556 556 l 556 667 l 278 667 l 278 556 l 556 556 z "},"Ĩ":{"ha":833,"x_min":69,"x_max":764,"o":"m 69 139 l 347 139 l 347 833 l 69 833 l 69 972 l 764 972 l 764 833 l 486 833 l 486 139 l 764 139 l 764 0 l 69 0 l 69 139 m 236 1083 l 333 1181 l 403 1181 l 469 1114 l 536 1181 l 597 1181 l 597 1111 l 500 1014 l 432 1014 l 365 1081 l 299 1014 l 236 1014 l 236 1083 z "},"ĩ":{"ha":833,"x_min":69,"x_max":764,"o":"m 69 139 l 347 139 l 347 833 l 69 833 l 69 972 l 764 972 l 764 833 l 486 833 l 486 139 l 764 139 l 764 0 l 69 0 l 69 139 m 236 1083 l 333 1181 l 403 1181 l 469 1114 l 536 1181 l 597 1181 l 597 1111 l 500 1014 l 432 1014 l 365 1081 l 299 1014 l 236 1014 l 236 1083 z "},"Ī":{"ha":833,"x_min":69,"x_max":764,"o":"m 69 139 l 347 139 l 347 833 l 69 833 l 69 972 l 764 972 l 764 833 l 486 833 l 486 139 l 764 139 l 764 0 l 69 0 l 69 139 m 69 1181 l 764 1181 l 764 1056 l 69 1056 l 69 1181 z "},"ī":{"ha":833,"x_min":69,"x_max":764,"o":"m 69 139 l 347 139 l 347 833 l 69 833 l 69 972 l 764 972 l 764 833 l 486 833 l 486 139 l 764 139 l 764 0 l 69 0 l 69 139 m 69 1181 l 764 1181 l 764 1056 l 69 1056 l 69 1181 z "},"Ĭ":{"ha":833,"x_min":69,"x_max":764,"o":"m 69 139 l 347 139 l 347 833 l 69 833 l 69 972 l 764 972 l 764 833 l 486 833 l 486 139 l 764 139 l 764 0 l 69 0 l 69 139 m 346 1014 q 325 1022 333 1014 l 238 1110 q 229 1131 229 1118 l 229 1181 l 340 1181 l 340 1160 l 396 1104 l 438 1104 l 493 1160 l 493 1181 l 604 1181 l 604 1131 q 596 1110 604 1118 l 508 1022 q 488 1014 500 1014 l 346 1014 z "},"ĭ":{"ha":833,"x_min":69,"x_max":764,"o":"m 69 139 l 347 139 l 347 833 l 69 833 l 69 972 l 764 972 l 764 833 l 486 833 l 486 139 l 764 139 l 764 0 l 69 0 l 69 139 m 346 1014 q 325 1022 333 1014 l 238 1110 q 229 1131 229 1118 l 229 1181 l 340 1181 l 340 1160 l 396 1104 l 438 1104 l 493 1160 l 493 1181 l 604 1181 l 604 1131 q 596 1110 604 1118 l 508 1022 q 488 1014 500 1014 l 346 1014 z "},"Į":{"ha":833,"x_min":69,"x_max":821,"o":"m 69 139 l 347 139 l 347 833 l 69 833 l 69 972 l 764 972 l 764 833 l 486 833 l 486 139 l 764 139 l 764 0 l 668 0 l 710 -42 l 821 -42 l 821 -181 l 668 -181 l 488 0 l 69 0 l 69 139 z "},"į":{"ha":833,"x_min":69,"x_max":821,"o":"m 69 139 l 347 139 l 347 833 l 69 833 l 69 972 l 764 972 l 764 833 l 486 833 l 486 139 l 764 139 l 764 0 l 668 0 l 710 -42 l 821 -42 l 821 -181 l 668 -181 l 488 0 l 69 0 l 69 139 z "},"İ":{"ha":833,"x_min":69,"x_max":764,"o":"m 69 139 l 347 139 l 347 833 l 69 833 l 69 972 l 764 972 l 764 833 l 486 833 l 486 139 l 764 139 l 764 0 l 69 0 l 69 139 m 347 1181 l 486 1181 l 486 1014 l 347 1014 l 347 1181 z "},"Ĵ":{"ha":833,"x_min":69,"x_max":853,"o":"m 235 0 q 214 8 222 0 l 78 144 q 69 165 69 153 l 69 347 l 208 347 l 208 222 l 292 139 l 542 139 l 625 222 l 625 972 l 764 972 l 764 165 q 756 144 764 153 l 619 8 q 599 0 611 0 l 235 0 m 533 1104 l 575 1104 l 651 1181 l 735 1181 l 811 1104 l 853 1104 l 853 1014 l 763 1014 l 693 1083 l 624 1014 l 533 1014 l 533 1104 z "},"ĵ":{"ha":833,"x_min":69,"x_max":853,"o":"m 235 0 q 214 8 222 0 l 78 144 q 69 165 69 153 l 69 347 l 208 347 l 208 222 l 292 139 l 542 139 l 625 222 l 625 972 l 764 972 l 764 165 q 756 144 764 153 l 619 8 q 599 0 611 0 l 235 0 m 533 1104 l 575 1104 l 651 1181 l 735 1181 l 811 1104 l 853 1104 l 853 1014 l 763 1014 l 693 1083 l 624 1014 l 533 1014 l 533 1104 z "},"Ķ":{"ha":833,"x_min":69,"x_max":764,"o":"m 69 972 l 208 972 l 208 556 l 382 556 l 382 639 l 625 882 l 625 972 l 764 972 l 764 835 q 756 814 764 822 l 521 579 l 521 394 l 756 160 q 764 139 764 151 l 764 0 l 625 0 l 625 90 l 382 333 l 382 417 l 208 417 l 208 0 l 69 0 l 69 972 m 317 -190 l 388 -190 l 388 -156 l 317 -156 l 317 -28 l 461 -28 l 461 -246 l 317 -246 l 317 -190 z "},"ķ":{"ha":833,"x_min":69,"x_max":764,"o":"m 69 972 l 208 972 l 208 556 l 382 556 l 382 639 l 625 882 l 625 972 l 764 972 l 764 835 q 756 814 764 822 l 521 579 l 521 394 l 756 160 q 764 139 764 151 l 764 0 l 625 0 l 625 90 l 382 333 l 382 417 l 208 417 l 208 0 l 69 0 l 69 972 m 317 -190 l 388 -190 l 388 -156 l 317 -156 l 317 -28 l 461 -28 l 461 -246 l 317 -246 l 317 -190 z "},"Ĺ":{"ha":833,"x_min":69,"x_max":764,"o":"m 69 972 l 208 972 l 208 139 l 764 139 l 764 0 l 69 0 l 69 972 m 176 1181 l 315 1181 l 211 1014 l 72 1014 l 176 1181 z "},"ĺ":{"ha":833,"x_min":69,"x_max":764,"o":"m 69 972 l 208 972 l 208 139 l 764 139 l 764 0 l 69 0 l 69 972 m 176 1181 l 315 1181 l 211 1014 l 72 1014 l 176 1181 z "},"Ļ":{"ha":833,"x_min":69,"x_max":764,"o":"m 69 972 l 208 972 l 208 139 l 764 139 l 764 0 l 69 0 l 69 972 m 344 -190 l 415 -190 l 415 -156 l 344 -156 l 344 -28 l 489 -28 l 489 -246 l 344 -246 l 344 -190 z "},"ļ":{"ha":833,"x_min":69,"x_max":764,"o":"m 69 972 l 208 972 l 208 139 l 764 139 l 764 0 l 69 0 l 69 972 m 344 -190 l 415 -190 l 415 -156 l 344 -156 l 344 -28 l 489 -28 l 489 -246 l 344 -246 l 344 -190 z "},"Ľ":{"ha":833,"x_min":69,"x_max":764,"o":"m 69 972 l 208 972 l 208 139 l 764 139 l 764 0 l 69 0 l 69 972 m 407 972 l 546 972 l 546 646 l 407 646 l 407 972 z "},"ľ":{"ha":833,"x_min":69,"x_max":764,"o":"m 69 972 l 208 972 l 208 139 l 764 139 l 764 0 l 69 0 l 69 972 m 407 972 l 546 972 l 546 646 l 407 646 l 407 972 z "},"Ŀ":{"ha":833,"x_min":69,"x_max":764,"o":"m 69 972 l 208 972 l 208 139 l 764 139 l 764 0 l 69 0 l 69 972 m 372 597 l 567 597 l 567 403 l 372 403 l 372 597 z "},"ŀ":{"ha":833,"x_min":69,"x_max":764,"o":"m 69 972 l 208 972 l 208 139 l 764 139 l 764 0 l 69 0 l 69 972 m 372 597 l 567 597 l 567 403 l 372 403 l 372 597 z "},"Ł":{"ha":833,"x_min":69,"x_max":764,"o":"m 139 333 l 69 306 l 69 451 l 139 479 l 139 972 l 278 972 l 278 533 l 528 632 l 528 486 l 278 388 l 278 139 l 764 139 l 764 0 l 139 0 l 139 333 z "},"ł":{"ha":833,"x_min":69,"x_max":764,"o":"m 139 333 l 69 306 l 69 451 l 139 479 l 139 972 l 278 972 l 278 533 l 528 632 l 528 486 l 278 388 l 278 139 l 764 139 l 764 0 l 139 0 l 139 333 z "},"Ń":{"ha":833,"x_min":69,"x_max":764,"o":"m 69 972 l 208 972 l 208 729 l 278 729 l 625 382 l 625 972 l 764 972 l 764 0 l 625 0 l 625 243 l 556 243 l 208 590 l 208 0 l 69 0 l 69 972 m 451 1181 l 590 1181 l 486 1014 l 347 1014 l 451 1181 z "},"ń":{"ha":833,"x_min":69,"x_max":764,"o":"m 69 972 l 208 972 l 208 729 l 278 729 l 625 382 l 625 972 l 764 972 l 764 0 l 625 0 l 625 243 l 556 243 l 208 590 l 208 0 l 69 0 l 69 972 m 451 1181 l 590 1181 l 486 1014 l 347 1014 l 451 1181 z "},"Ņ":{"ha":833,"x_min":69,"x_max":764,"o":"m 69 972 l 208 972 l 208 729 l 278 729 l 625 382 l 625 972 l 764 972 l 764 0 l 625 0 l 625 243 l 556 243 l 208 590 l 208 0 l 69 0 l 69 972 m 344 -190 l 415 -190 l 415 -156 l 344 -156 l 344 -28 l 489 -28 l 489 -246 l 344 -246 l 344 -190 z "},"ņ":{"ha":833,"x_min":69,"x_max":764,"o":"m 69 972 l 208 972 l 208 729 l 278 729 l 625 382 l 625 972 l 764 972 l 764 0 l 625 0 l 625 243 l 556 243 l 208 590 l 208 0 l 69 0 l 69 972 m 344 -190 l 415 -190 l 415 -156 l 344 -156 l 344 -28 l 489 -28 l 489 -246 l 344 -246 l 344 -190 z "},"Ň":{"ha":833,"x_min":69,"x_max":764,"o":"m 69 972 l 208 972 l 208 729 l 278 729 l 625 382 l 625 972 l 764 972 l 764 0 l 625 0 l 625 243 l 556 243 l 208 590 l 208 0 l 69 0 l 69 972 m 299 1090 l 257 1090 l 257 1181 l 347 1181 l 417 1111 l 486 1181 l 576 1181 l 576 1090 l 535 1090 l 458 1014 l 375 1014 l 299 1090 z "},"ň":{"ha":833,"x_min":69,"x_max":764,"o":"m 69 972 l 208 972 l 208 729 l 278 729 l 625 382 l 625 972 l 764 972 l 764 0 l 625 0 l 625 243 l 556 243 l 208 590 l 208 0 l 69 0 l 69 972 m 299 1090 l 257 1090 l 257 1181 l 347 1181 l 417 1111 l 486 1181 l 576 1181 l 576 1090 l 535 1090 l 458 1014 l 375 1014 l 299 1090 z "},"Ŋ":{"ha":833,"x_min":69,"x_max":764,"o":"m 417 -28 l 542 -28 l 625 56 l 625 243 l 556 243 l 208 590 l 208 0 l 69 0 l 69 972 l 208 972 l 208 729 l 278 729 l 625 382 l 625 972 l 764 972 l 764 -1 q 756 -22 764 -14 l 619 -158 q 599 -167 611 -167 l 417 -167 l 417 -28 z "},"ŋ":{"ha":833,"x_min":69,"x_max":764,"o":"m 417 -28 l 542 -28 l 625 56 l 625 243 l 556 243 l 208 590 l 208 0 l 69 0 l 69 972 l 208 972 l 208 729 l 278 729 l 625 382 l 625 972 l 764 972 l 764 -1 q 756 -22 764 -14 l 619 -158 q 599 -167 611 -167 l 417 -167 l 417 -28 z "},"Ō":{"ha":833,"x_min":69,"x_max":764,"o":"m 235 0 q 214 8 222 0 l 78 144 q 69 165 69 153 l 69 807 q 78 828 69 819 l 214 964 q 235 972 222 972 l 599 972 q 619 964 611 972 l 756 828 q 764 807 764 819 l 764 165 q 756 144 764 153 l 619 8 q 599 0 611 0 l 235 0 m 292 139 l 542 139 l 625 222 l 625 750 l 542 833 l 292 833 l 208 750 l 208 222 l 292 139 m 69 1181 l 764 1181 l 764 1056 l 69 1056 l 69 1181 z "},"ō":{"ha":833,"x_min":69,"x_max":764,"o":"m 235 0 q 214 8 222 0 l 78 144 q 69 165 69 153 l 69 807 q 78 828 69 819 l 214 964 q 235 972 222 972 l 599 972 q 619 964 611 972 l 756 828 q 764 807 764 819 l 764 165 q 756 144 764 153 l 619 8 q 599 0 611 0 l 235 0 m 292 139 l 542 139 l 625 222 l 625 750 l 542 833 l 292 833 l 208 750 l 208 222 l 292 139 m 69 1181 l 764 1181 l 764 1056 l 69 1056 l 69 1181 z "},"Ŏ":{"ha":833,"x_min":69,"x_max":764,"o":"m 235 0 q 214 8 222 0 l 78 144 q 69 165 69 153 l 69 807 q 78 828 69 819 l 214 964 q 235 972 222 972 l 599 972 q 619 964 611 972 l 756 828 q 764 807 764 819 l 764 165 q 756 144 764 153 l 619 8 q 599 0 611 0 l 235 0 m 292 139 l 542 139 l 625 222 l 625 750 l 542 833 l 292 833 l 208 750 l 208 222 l 292 139 m 346 1014 q 325 1022 333 1014 l 238 1110 q 229 1131 229 1118 l 229 1181 l 340 1181 l 340 1160 l 396 1104 l 438 1104 l 493 1160 l 493 1181 l 604 1181 l 604 1131 q 596 1110 604 1118 l 508 1022 q 488 1014 500 1014 l 346 1014 z "},"ŏ":{"ha":833,"x_min":69,"x_max":764,"o":"m 235 0 q 214 8 222 0 l 78 144 q 69 165 69 153 l 69 807 q 78 828 69 819 l 214 964 q 235 972 222 972 l 599 972 q 619 964 611 972 l 756 828 q 764 807 764 819 l 764 165 q 756 144 764 153 l 619 8 q 599 0 611 0 l 235 0 m 292 139 l 542 139 l 625 222 l 625 750 l 542 833 l 292 833 l 208 750 l 208 222 l 292 139 m 346 1014 q 325 1022 333 1014 l 238 1110 q 229 1131 229 1118 l 229 1181 l 340 1181 l 340 1160 l 396 1104 l 438 1104 l 493 1160 l 493 1181 l 604 1181 l 604 1131 q 596 1110 604 1118 l 508 1022 q 488 1014 500 1014 l 346 1014 z "},"Ő":{"ha":833,"x_min":69,"x_max":764,"o":"m 235 0 q 214 8 222 0 l 78 144 q 69 165 69 153 l 69 807 q 78 828 69 819 l 214 964 q 235 972 222 972 l 599 972 q 619 964 611 972 l 756 828 q 764 807 764 819 l 764 165 q 756 144 764 153 l 619 8 q 599 0 611 0 l 235 0 m 292 139 l 542 139 l 625 222 l 625 750 l 542 833 l 292 833 l 208 750 l 208 222 l 292 139 m 475 1181 l 589 1181 l 515 1014 l 401 1014 l 475 1181 m 317 1181 l 431 1181 l 357 1014 l 243 1014 l 317 1181 z "},"ő":{"ha":833,"x_min":69,"x_max":764,"o":"m 235 0 q 214 8 222 0 l 78 144 q 69 165 69 153 l 69 807 q 78 828 69 819 l 214 964 q 235 972 222 972 l 599 972 q 619 964 611 972 l 756 828 q 764 807 764 819 l 764 165 q 756 144 764 153 l 619 8 q 599 0 611 0 l 235 0 m 292 139 l 542 139 l 625 222 l 625 750 l 542 833 l 292 833 l 208 750 l 208 222 l 292 139 m 475 1181 l 589 1181 l 515 1014 l 401 1014 l 475 1181 m 317 1181 l 431 1181 l 357 1014 l 243 1014 l 317 1181 z "},"Œ":{"ha":833,"x_min":69,"x_max":764,"o":"m 235 0 q 214 8 222 0 l 78 144 q 69 165 69 153 l 69 807 q 78 828 69 819 l 214 964 q 235 972 222 972 l 764 972 l 764 833 l 528 833 l 528 556 l 708 556 l 708 417 l 528 417 l 528 139 l 764 139 l 764 0 l 235 0 m 292 139 l 389 139 l 389 833 l 292 833 l 208 750 l 208 222 l 292 139 z "},"œ":{"ha":833,"x_min":69,"x_max":764,"o":"m 235 0 q 214 8 222 0 l 78 144 q 69 165 69 153 l 69 807 q 78 828 69 819 l 214 964 q 235 972 222 972 l 764 972 l 764 833 l 528 833 l 528 556 l 708 556 l 708 417 l 528 417 l 528 139 l 764 139 l 764 0 l 235 0 m 292 139 l 389 139 l 389 833 l 292 833 l 208 750 l 208 222 l 292 139 z "},"Ŕ":{"ha":833,"x_min":69,"x_max":764,"o":"m 69 972 l 599 972 q 619 964 611 972 l 756 828 q 764 807 764 819 l 764 540 q 756 519 764 528 l 621 385 q 599 375 611 375 l 521 375 l 756 140 q 764 119 764 132 l 764 0 l 625 0 l 625 74 l 382 317 l 382 375 l 208 375 l 208 0 l 69 0 l 69 972 m 542 514 l 625 599 l 625 750 l 542 833 l 208 833 l 208 514 l 542 514 m 451 1181 l 590 1181 l 486 1014 l 347 1014 l 451 1181 z "},"ŕ":{"ha":833,"x_min":69,"x_max":764,"o":"m 69 972 l 599 972 q 619 964 611 972 l 756 828 q 764 807 764 819 l 764 540 q 756 519 764 528 l 621 385 q 599 375 611 375 l 521 375 l 756 140 q 764 119 764 132 l 764 0 l 625 0 l 625 74 l 382 317 l 382 375 l 208 375 l 208 0 l 69 0 l 69 972 m 542 514 l 625 599 l 625 750 l 542 833 l 208 833 l 208 514 l 542 514 m 451 1181 l 590 1181 l 486 1014 l 347 1014 l 451 1181 z "},"Ŗ":{"ha":833,"x_min":69,"x_max":764,"o":"m 69 972 l 599 972 q 619 964 611 972 l 756 828 q 764 807 764 819 l 764 540 q 756 519 764 528 l 621 385 q 599 375 611 375 l 521 375 l 756 140 q 764 119 764 132 l 764 0 l 625 0 l 625 74 l 382 317 l 382 375 l 208 375 l 208 0 l 69 0 l 69 972 m 542 514 l 625 599 l 625 750 l 542 833 l 208 833 l 208 514 l 542 514 m 317 -190 l 388 -190 l 388 -156 l 317 -156 l 317 -28 l 461 -28 l 461 -246 l 317 -246 l 317 -190 z "},"ŗ":{"ha":833,"x_min":69,"x_max":764,"o":"m 69 972 l 599 972 q 619 964 611 972 l 756 828 q 764 807 764 819 l 764 540 q 756 519 764 528 l 621 385 q 599 375 611 375 l 521 375 l 756 140 q 764 119 764 132 l 764 0 l 625 0 l 625 74 l 382 317 l 382 375 l 208 375 l 208 0 l 69 0 l 69 972 m 542 514 l 625 599 l 625 750 l 542 833 l 208 833 l 208 514 l 542 514 m 317 -190 l 388 -190 l 388 -156 l 317 -156 l 317 -28 l 461 -28 l 461 -246 l 317 -246 l 317 -190 z "},"Ř":{"ha":833,"x_min":69,"x_max":764,"o":"m 69 972 l 599 972 q 619 964 611 972 l 756 828 q 764 807 764 819 l 764 540 q 756 519 764 528 l 621 385 q 599 375 611 375 l 521 375 l 756 140 q 764 119 764 132 l 764 0 l 625 0 l 625 74 l 382 317 l 382 375 l 208 375 l 208 0 l 69 0 l 69 972 m 542 514 l 625 599 l 625 750 l 542 833 l 208 833 l 208 514 l 542 514 m 299 1090 l 257 1090 l 257 1181 l 347 1181 l 417 1111 l 486 1181 l 576 1181 l 576 1090 l 535 1090 l 458 1014 l 375 1014 l 299 1090 z "},"ř":{"ha":833,"x_min":69,"x_max":764,"o":"m 69 972 l 599 972 q 619 964 611 972 l 756 828 q 764 807 764 819 l 764 540 q 756 519 764 528 l 621 385 q 599 375 611 375 l 521 375 l 756 140 q 764 119 764 132 l 764 0 l 625 0 l 625 74 l 382 317 l 382 375 l 208 375 l 208 0 l 69 0 l 69 972 m 542 514 l 625 599 l 625 750 l 542 833 l 208 833 l 208 514 l 542 514 m 299 1090 l 257 1090 l 257 1181 l 347 1181 l 417 1111 l 486 1181 l 576 1181 l 576 1090 l 535 1090 l 458 1014 l 375 1014 l 299 1090 z "},"Ś":{"ha":833,"x_min":69,"x_max":764,"o":"m 235 0 q 214 8 222 0 l 78 144 q 69 165 69 153 l 69 347 l 208 347 l 208 222 l 292 139 l 542 139 l 625 222 l 625 333 l 542 417 l 235 417 q 214 425 222 417 l 78 561 q 69 582 69 569 l 69 807 q 78 828 69 819 l 214 964 q 235 972 222 972 l 599 972 q 619 964 611 972 l 756 828 q 764 807 764 819 l 764 625 l 625 625 l 625 750 l 542 833 l 292 833 l 208 750 l 208 639 l 292 556 l 599 556 q 619 547 611 556 l 756 411 q 764 390 764 403 l 764 165 q 756 144 764 153 l 619 8 q 599 0 611 0 l 235 0 m 451 1181 l 590 1181 l 486 1014 l 347 1014 l 451 1181 z "},"ś":{"ha":833,"x_min":69,"x_max":764,"o":"m 235 0 q 214 8 222 0 l 78 144 q 69 165 69 153 l 69 347 l 208 347 l 208 222 l 292 139 l 542 139 l 625 222 l 625 333 l 542 417 l 235 417 q 214 425 222 417 l 78 561 q 69 582 69 569 l 69 807 q 78 828 69 819 l 214 964 q 235 972 222 972 l 599 972 q 619 964 611 972 l 756 828 q 764 807 764 819 l 764 625 l 625 625 l 625 750 l 542 833 l 292 833 l 208 750 l 208 639 l 292 556 l 599 556 q 619 547 611 556 l 756 411 q 764 390 764 403 l 764 165 q 756 144 764 153 l 619 8 q 599 0 611 0 l 235 0 m 451 1181 l 590 1181 l 486 1014 l 347 1014 l 451 1181 z "},"Ş":{"ha":833,"x_min":69,"x_max":764,"o":"m 235 0 q 214 8 222 0 l 78 144 q 69 165 69 153 l 69 347 l 208 347 l 208 222 l 292 139 l 542 139 l 625 222 l 625 333 l 542 417 l 235 417 q 214 425 222 417 l 78 561 q 69 582 69 569 l 69 807 q 78 828 69 819 l 214 964 q 235 972 222 972 l 599 972 q 619 964 611 972 l 756 828 q 764 807 764 819 l 764 625 l 625 625 l 625 750 l 542 833 l 292 833 l 208 750 l 208 639 l 292 556 l 599 556 q 619 547 611 556 l 756 411 q 764 390 764 403 l 764 165 q 756 144 764 153 l 619 8 q 599 0 611 0 l 235 0 m 275 -97 l 444 -97 l 347 0 l 486 0 l 575 -89 q 583 -110 583 -97 l 583 -208 l 275 -208 l 275 -97 z "},"ş":{"ha":833,"x_min":69,"x_max":764,"o":"m 235 0 q 214 8 222 0 l 78 144 q 69 165 69 153 l 69 347 l 208 347 l 208 222 l 292 139 l 542 139 l 625 222 l 625 333 l 542 417 l 235 417 q 214 425 222 417 l 78 561 q 69 582 69 569 l 69 807 q 78 828 69 819 l 214 964 q 235 972 222 972 l 599 972 q 619 964 611 972 l 756 828 q 764 807 764 819 l 764 625 l 625 625 l 625 750 l 542 833 l 292 833 l 208 750 l 208 639 l 292 556 l 599 556 q 619 547 611 556 l 756 411 q 764 390 764 403 l 764 165 q 756 144 764 153 l 619 8 q 599 0 611 0 l 235 0 m 275 -97 l 444 -97 l 347 0 l 486 0 l 575 -89 q 583 -110 583 -97 l 583 -208 l 275 -208 l 275 -97 z "},"Š":{"ha":833,"x_min":69,"x_max":764,"o":"m 235 0 q 214 8 222 0 l 78 144 q 69 165 69 153 l 69 347 l 208 347 l 208 222 l 292 139 l 542 139 l 625 222 l 625 333 l 542 417 l 235 417 q 214 425 222 417 l 78 561 q 69 582 69 569 l 69 807 q 78 828 69 819 l 214 964 q 235 972 222 972 l 599 972 q 619 964 611 972 l 756 828 q 764 807 764 819 l 764 625 l 625 625 l 625 750 l 542 833 l 292 833 l 208 750 l 208 639 l 292 556 l 599 556 q 619 547 611 556 l 756 411 q 764 390 764 403 l 764 165 q 756 144 764 153 l 619 8 q 599 0 611 0 l 235 0 m 299 1090 l 257 1090 l 257 1181 l 347 1181 l 417 1111 l 486 1181 l 576 1181 l 576 1090 l 535 1090 l 458 1014 l 375 1014 l 299 1090 z "},"š":{"ha":833,"x_min":69,"x_max":764,"o":"m 235 0 q 214 8 222 0 l 78 144 q 69 165 69 153 l 69 347 l 208 347 l 208 222 l 292 139 l 542 139 l 625 222 l 625 333 l 542 417 l 235 417 q 214 425 222 417 l 78 561 q 69 582 69 569 l 69 807 q 78 828 69 819 l 214 964 q 235 972 222 972 l 599 972 q 619 964 611 972 l 756 828 q 764 807 764 819 l 764 625 l 625 625 l 625 750 l 542 833 l 292 833 l 208 750 l 208 639 l 292 556 l 599 556 q 619 547 611 556 l 756 411 q 764 390 764 403 l 764 165 q 756 144 764 153 l 619 8 q 599 0 611 0 l 235 0 m 299 1090 l 257 1090 l 257 1181 l 347 1181 l 417 1111 l 486 1181 l 576 1181 l 576 1090 l 535 1090 l 458 1014 l 375 1014 l 299 1090 z "},"Ţ":{"ha":833,"x_min":69,"x_max":764,"o":"m 347 833 l 69 833 l 69 972 l 764 972 l 764 833 l 486 833 l 486 0 l 347 0 l 347 833 m 275 -97 l 444 -97 l 347 0 l 486 0 l 575 -89 q 583 -110 583 -97 l 583 -208 l 275 -208 l 275 -97 z "},"ţ":{"ha":833,"x_min":69,"x_max":764,"o":"m 347 833 l 69 833 l 69 972 l 764 972 l 764 833 l 486 833 l 486 0 l 347 0 l 347 833 m 275 -97 l 444 -97 l 347 0 l 486 0 l 575 -89 q 583 -110 583 -97 l 583 -208 l 275 -208 l 275 -97 z "},"Ť":{"ha":833,"x_min":69,"x_max":764,"o":"m 347 833 l 69 833 l 69 972 l 764 972 l 764 833 l 486 833 l 486 0 l 347 0 l 347 833 m 299 1090 l 257 1090 l 257 1181 l 347 1181 l 417 1111 l 486 1181 l 576 1181 l 576 1090 l 535 1090 l 458 1014 l 375 1014 l 299 1090 z "},"ť":{"ha":833,"x_min":69,"x_max":764,"o":"m 347 833 l 69 833 l 69 972 l 764 972 l 764 833 l 486 833 l 486 0 l 347 0 l 347 833 m 299 1090 l 257 1090 l 257 1181 l 347 1181 l 417 1111 l 486 1181 l 576 1181 l 576 1090 l 535 1090 l 458 1014 l 375 1014 l 299 1090 z "},"Ŧ":{"ha":833,"x_min":69,"x_max":764,"o":"m 181 519 l 347 519 l 347 833 l 69 833 l 69 972 l 764 972 l 764 833 l 486 833 l 486 519 l 653 519 l 653 381 l 486 381 l 486 0 l 347 0 l 347 381 l 181 381 l 181 519 z "},"ŧ":{"ha":833,"x_min":69,"x_max":764,"o":"m 181 519 l 347 519 l 347 833 l 69 833 l 69 972 l 764 972 l 764 833 l 486 833 l 486 519 l 653 519 l 653 381 l 486 381 l 486 0 l 347 0 l 347 381 l 181 381 l 181 519 z "},"Ũ":{"ha":833,"x_min":69,"x_max":764,"o":"m 235 0 q 214 8 222 0 l 78 144 q 69 165 69 153 l 69 972 l 208 972 l 208 222 l 292 139 l 542 139 l 625 222 l 625 972 l 764 972 l 764 165 q 756 144 764 153 l 619 8 q 599 0 611 0 l 235 0 m 236 1083 l 333 1181 l 403 1181 l 469 1114 l 536 1181 l 597 1181 l 597 1111 l 500 1014 l 432 1014 l 365 1081 l 299 1014 l 236 1014 l 236 1083 z "},"ũ":{"ha":833,"x_min":69,"x_max":764,"o":"m 235 0 q 214 8 222 0 l 78 144 q 69 165 69 153 l 69 972 l 208 972 l 208 222 l 292 139 l 542 139 l 625 222 l 625 972 l 764 972 l 764 165 q 756 144 764 153 l 619 8 q 599 0 611 0 l 235 0 m 236 1083 l 333 1181 l 403 1181 l 469 1114 l 536 1181 l 597 1181 l 597 1111 l 500 1014 l 432 1014 l 365 1081 l 299 1014 l 236 1014 l 236 1083 z "},"Ū":{"ha":833,"x_min":69,"x_max":764,"o":"m 235 0 q 214 8 222 0 l 78 144 q 69 165 69 153 l 69 972 l 208 972 l 208 222 l 292 139 l 542 139 l 625 222 l 625 972 l 764 972 l 764 165 q 756 144 764 153 l 619 8 q 599 0 611 0 l 235 0 m 69 1181 l 764 1181 l 764 1056 l 69 1056 l 69 1181 z "},"ū":{"ha":833,"x_min":69,"x_max":764,"o":"m 235 0 q 214 8 222 0 l 78 144 q 69 165 69 153 l 69 972 l 208 972 l 208 222 l 292 139 l 542 139 l 625 222 l 625 972 l 764 972 l 764 165 q 756 144 764 153 l 619 8 q 599 0 611 0 l 235 0 m 69 1181 l 764 1181 l 764 1056 l 69 1056 l 69 1181 z "},"Ŭ":{"ha":833,"x_min":69,"x_max":764,"o":"m 235 0 q 214 8 222 0 l 78 144 q 69 165 69 153 l 69 972 l 208 972 l 208 222 l 292 139 l 542 139 l 625 222 l 625 972 l 764 972 l 764 165 q 756 144 764 153 l 619 8 q 599 0 611 0 l 235 0 m 346 1014 q 325 1022 333 1014 l 238 1110 q 229 1131 229 1118 l 229 1181 l 340 1181 l 340 1160 l 396 1104 l 438 1104 l 493 1160 l 493 1181 l 604 1181 l 604 1131 q 596 1110 604 1118 l 508 1022 q 488 1014 500 1014 l 346 1014 z "},"ŭ":{"ha":833,"x_min":69,"x_max":764,"o":"m 235 0 q 214 8 222 0 l 78 144 q 69 165 69 153 l 69 972 l 208 972 l 208 222 l 292 139 l 542 139 l 625 222 l 625 972 l 764 972 l 764 165 q 756 144 764 153 l 619 8 q 599 0 611 0 l 235 0 m 346 1014 q 325 1022 333 1014 l 238 1110 q 229 1131 229 1118 l 229 1181 l 340 1181 l 340 1160 l 396 1104 l 438 1104 l 493 1160 l 493 1181 l 604 1181 l 604 1131 q 596 1110 604 1118 l 508 1022 q 488 1014 500 1014 l 346 1014 z "},"Ů":{"ha":833,"x_min":69,"x_max":764,"o":"m 235 0 q 214 8 222 0 l 78 144 q 69 165 69 153 l 69 972 l 208 972 l 208 222 l 292 139 l 542 139 l 625 222 l 625 972 l 764 972 l 764 165 q 756 144 764 153 l 619 8 q 599 0 611 0 l 235 0 m 313 1181 l 521 1181 l 521 972 l 313 972 l 313 1181 m 446 1047 l 446 1106 l 388 1106 l 388 1047 l 446 1047 z "},"ů":{"ha":833,"x_min":69,"x_max":764,"o":"m 235 0 q 214 8 222 0 l 78 144 q 69 165 69 153 l 69 972 l 208 972 l 208 222 l 292 139 l 542 139 l 625 222 l 625 972 l 764 972 l 764 165 q 756 144 764 153 l 619 8 q 599 0 611 0 l 235 0 m 313 1181 l 521 1181 l 521 972 l 313 972 l 313 1181 m 446 1047 l 446 1106 l 388 1106 l 388 1047 l 446 1047 z "},"Ű":{"ha":833,"x_min":69,"x_max":764,"o":"m 235 0 q 214 8 222 0 l 78 144 q 69 165 69 153 l 69 972 l 208 972 l 208 222 l 292 139 l 542 139 l 625 222 l 625 972 l 764 972 l 764 165 q 756 144 764 153 l 619 8 q 599 0 611 0 l 235 0 m 475 1181 l 589 1181 l 515 1014 l 401 1014 l 475 1181 m 317 1181 l 431 1181 l 357 1014 l 243 1014 l 317 1181 z "},"ű":{"ha":833,"x_min":69,"x_max":764,"o":"m 235 0 q 214 8 222 0 l 78 144 q 69 165 69 153 l 69 972 l 208 972 l 208 222 l 292 139 l 542 139 l 625 222 l 625 972 l 764 972 l 764 165 q 756 144 764 153 l 619 8 q 599 0 611 0 l 235 0 m 475 1181 l 589 1181 l 515 1014 l 401 1014 l 475 1181 m 317 1181 l 431 1181 l 357 1014 l 243 1014 l 317 1181 z "},"Ų":{"ha":833,"x_min":69,"x_max":821,"o":"m 235 0 q 214 8 222 0 l 78 144 q 69 165 69 153 l 69 972 l 208 972 l 208 222 l 292 139 l 542 139 l 625 222 l 625 972 l 764 972 l 764 165 q 756 144 764 153 l 640 29 l 710 -42 l 821 -42 l 821 -181 l 668 -181 l 488 0 l 235 0 z "},"ų":{"ha":833,"x_min":69,"x_max":821,"o":"m 235 0 q 214 8 222 0 l 78 144 q 69 165 69 153 l 69 972 l 208 972 l 208 222 l 292 139 l 542 139 l 625 222 l 625 972 l 764 972 l 764 165 q 756 144 764 153 l 640 29 l 710 -42 l 821 -42 l 821 -181 l 668 -181 l 488 0 l 235 0 z "},"Ŵ":{"ha":833,"x_min":69,"x_max":764,"o":"m 69 972 l 208 972 l 208 347 l 375 514 l 458 514 l 625 347 l 625 972 l 764 972 l 764 0 l 625 0 l 625 208 l 556 208 l 417 347 l 278 208 l 208 208 l 208 0 l 69 0 l 69 972 m 257 1104 l 299 1104 l 375 1181 l 458 1181 l 535 1104 l 576 1104 l 576 1014 l 486 1014 l 417 1083 l 347 1014 l 257 1014 l 257 1104 z "},"ŵ":{"ha":833,"x_min":69,"x_max":764,"o":"m 69 972 l 208 972 l 208 347 l 375 514 l 458 514 l 625 347 l 625 972 l 764 972 l 764 0 l 625 0 l 625 208 l 556 208 l 417 347 l 278 208 l 208 208 l 208 0 l 69 0 l 69 972 m 257 1104 l 299 1104 l 375 1181 l 458 1181 l 535 1104 l 576 1104 l 576 1014 l 486 1014 l 417 1083 l 347 1014 l 257 1014 l 257 1104 z "},"Ŷ":{"ha":833,"x_min":69,"x_max":764,"o":"m 347 451 l 78 721 q 69 742 69 729 l 69 972 l 208 972 l 208 799 l 417 590 l 625 799 l 625 972 l 764 972 l 764 742 q 756 721 764 729 l 486 451 l 486 0 l 347 0 l 347 451 m 257 1104 l 299 1104 l 375 1181 l 458 1181 l 535 1104 l 576 1104 l 576 1014 l 486 1014 l 417 1083 l 347 1014 l 257 1014 l 257 1104 z "},"ŷ":{"ha":833,"x_min":69,"x_max":764,"o":"m 347 451 l 78 721 q 69 742 69 729 l 69 972 l 208 972 l 208 799 l 417 590 l 625 799 l 625 972 l 764 972 l 764 742 q 756 721 764 729 l 486 451 l 486 0 l 347 0 l 347 451 m 257 1104 l 299 1104 l 375 1181 l 458 1181 l 535 1104 l 576 1104 l 576 1014 l 486 1014 l 417 1083 l 347 1014 l 257 1014 l 257 1104 z "},"Ź":{"ha":833,"x_min":69,"x_max":764,"o":"m 69 231 q 78 251 69 243 l 625 799 l 625 833 l 69 833 l 69 972 l 764 972 l 764 742 q 756 721 764 729 l 208 174 l 208 139 l 764 139 l 764 0 l 69 0 l 69 231 m 451 1181 l 590 1181 l 486 1014 l 347 1014 l 451 1181 z "},"ź":{"ha":833,"x_min":69,"x_max":764,"o":"m 69 231 q 78 251 69 243 l 625 799 l 625 833 l 69 833 l 69 972 l 764 972 l 764 742 q 756 721 764 729 l 208 174 l 208 139 l 764 139 l 764 0 l 69 0 l 69 231 m 451 1181 l 590 1181 l 486 1014 l 347 1014 l 451 1181 z "},"Ż":{"ha":833,"x_min":69,"x_max":764,"o":"m 69 231 q 78 251 69 243 l 625 799 l 625 833 l 69 833 l 69 972 l 764 972 l 764 742 q 756 721 764 729 l 208 174 l 208 139 l 764 139 l 764 0 l 69 0 l 69 231 m 347 1181 l 486 1181 l 486 1014 l 347 1014 l 347 1181 z "},"ż":{"ha":833,"x_min":69,"x_max":764,"o":"m 69 231 q 78 251 69 243 l 625 799 l 625 833 l 69 833 l 69 972 l 764 972 l 764 742 q 756 721 764 729 l 208 174 l 208 139 l 764 139 l 764 0 l 69 0 l 69 231 m 347 1181 l 486 1181 l 486 1014 l 347 1014 l 347 1181 z "},"Ž":{"ha":833,"x_min":69,"x_max":764,"o":"m 69 231 q 78 251 69 243 l 625 799 l 625 833 l 69 833 l 69 972 l 764 972 l 764 742 q 756 721 764 729 l 208 174 l 208 139 l 764 139 l 764 0 l 69 0 l 69 231 m 299 1090 l 257 1090 l 257 1181 l 347 1181 l 417 1111 l 486 1181 l 576 1181 l 576 1090 l 535 1090 l 458 1014 l 375 1014 l 299 1090 z "},"ž":{"ha":833,"x_min":69,"x_max":764,"o":"m 69 231 q 78 251 69 243 l 625 799 l 625 833 l 69 833 l 69 972 l 764 972 l 764 742 q 756 721 764 729 l 208 174 l 208 139 l 764 139 l 764 0 l 69 0 l 69 231 m 299 1090 l 257 1090 l 257 1181 l 347 1181 l 417 1111 l 486 1181 l 576 1181 l 576 1090 l 535 1090 l 458 1014 l 375 1014 l 299 1090 z "},"Ș":{"ha":833,"x_min":69,"x_max":764,"o":"m 235 0 q 214 8 222 0 l 78 144 q 69 165 69 153 l 69 347 l 208 347 l 208 222 l 292 139 l 542 139 l 625 222 l 625 333 l 542 417 l 235 417 q 214 425 222 417 l 78 561 q 69 582 69 569 l 69 807 q 78 828 69 819 l 214 964 q 235 972 222 972 l 599 972 q 619 964 611 972 l 756 828 q 764 807 764 819 l 764 625 l 625 625 l 625 750 l 542 833 l 292 833 l 208 750 l 208 639 l 292 556 l 599 556 q 619 547 611 556 l 756 411 q 764 390 764 403 l 764 165 q 756 144 764 153 l 619 8 q 599 0 611 0 l 235 0 m 344 -190 l 415 -190 l 415 -156 l 344 -156 l 344 -28 l 489 -28 l 489 -246 l 344 -246 l 344 -190 z "},"ș":{"ha":833,"x_min":69,"x_max":764,"o":"m 235 0 q 214 8 222 0 l 78 144 q 69 165 69 153 l 69 347 l 208 347 l 208 222 l 292 139 l 542 139 l 625 222 l 625 333 l 542 417 l 235 417 q 214 425 222 417 l 78 561 q 69 582 69 569 l 69 807 q 78 828 69 819 l 214 964 q 235 972 222 972 l 599 972 q 619 964 611 972 l 756 828 q 764 807 764 819 l 764 625 l 625 625 l 625 750 l 542 833 l 292 833 l 208 750 l 208 639 l 292 556 l 599 556 q 619 547 611 556 l 756 411 q 764 390 764 403 l 764 165 q 756 144 764 153 l 619 8 q 599 0 611 0 l 235 0 m 344 -190 l 415 -190 l 415 -156 l 344 -156 l 344 -28 l 489 -28 l 489 -246 l 344 -246 l 344 -190 z "},"Ț":{"ha":833,"x_min":69,"x_max":764,"o":"m 347 833 l 69 833 l 69 972 l 764 972 l 764 833 l 486 833 l 486 0 l 347 0 l 347 833 m 344 -190 l 415 -190 l 415 -156 l 344 -156 l 344 -28 l 489 -28 l 489 -246 l 344 -246 l 344 -190 z "},"ț":{"ha":833,"x_min":69,"x_max":764,"o":"m 347 833 l 69 833 l 69 972 l 764 972 l 764 833 l 486 833 l 486 0 l 347 0 l 347 833 m 344 -190 l 415 -190 l 415 -156 l 344 -156 l 344 -28 l 489 -28 l 489 -246 l 344 -246 l 344 -190 z "},"ʇ":{"ha":833,"x_min":69,"x_max":764,"o":"m 486 972 l 486 139 l 764 139 l 764 0 l 69 0 l 69 139 l 347 139 l 347 972 l 486 972 z "},"Ʇ":{"ha":833,"x_min":69,"x_max":764,"o":"m 486 972 l 486 139 l 764 139 l 764 0 l 69 0 l 69 139 l 347 139 l 347 972 l 486 972 z "},"ˆ":{"ha":833,"x_min":257,"x_max":576,"o":"m 257 826 l 299 826 l 375 903 l 458 903 l 535 826 l 576 826 l 576 736 l 486 736 l 417 806 l 347 736 l 257 736 l 257 826 z "},"ˇ":{"ha":833,"x_min":257,"x_max":576,"o":"m 299 813 l 257 813 l 257 903 l 347 903 l 417 833 l 486 903 l 576 903 l 576 813 l 535 813 l 458 736 l 375 736 l 299 813 z "},"˘":{"ha":833,"x_min":229,"x_max":604,"o":"m 346 736 q 325 744 333 736 l 238 832 q 229 853 229 840 l 229 903 l 340 903 l 340 882 l 396 826 l 438 826 l 493 882 l 493 903 l 604 903 l 604 853 q 596 832 604 840 l 508 744 q 488 736 500 736 l 346 736 z "},"˙":{"ha":833,"x_min":347,"x_max":486,"o":"m 347 903 l 486 903 l 486 736 l 347 736 l 347 903 z "},"˚":{"ha":833,"x_min":313,"x_max":521,"o":"m 313 903 l 521 903 l 521 694 l 313 694 l 313 903 m 446 769 l 446 828 l 388 828 l 388 769 l 446 769 z "},"˛":{"ha":833,"x_min":222,"x_max":625,"o":"m 222 250 l 403 250 l 514 139 l 625 139 l 625 0 l 472 0 l 222 250 z "},"˜":{"ha":833,"x_min":236,"x_max":597,"o":"m 236 806 l 333 903 l 403 903 l 469 836 l 536 903 l 597 903 l 597 833 l 500 736 l 432 736 l 365 803 l 299 736 l 236 736 l 236 806 z "},"˝":{"ha":833,"x_min":244,"x_max":590,"o":"m 476 903 l 590 903 l 517 736 l 403 736 l 476 903 m 318 903 l 432 903 l 358 736 l 244 736 l 318 903 z "},"̀":{"ha":0,"x_min":300,"x_max":546,"o":"m 300 903 l 439 903 l 546 736 l 407 736 l 300 903 z "},"́":{"ha":0,"x_min":300,"x_max":543,"o":"m 404 903 l 543 903 l 439 736 l 300 736 l 404 903 z "},"̂":{"ha":0,"x_min":257,"x_max":576,"o":"m 257 826 l 299 826 l 375 903 l 458 903 l 535 826 l 576 826 l 576 736 l 486 736 l 417 806 l 347 736 l 257 736 l 257 826 z "},"̃":{"ha":0,"x_min":236,"x_max":597,"o":"m 236 806 l 333 903 l 403 903 l 469 836 l 536 903 l 597 903 l 597 833 l 500 736 l 432 736 l 365 803 l 299 736 l 236 736 l 236 806 z "},"̄":{"ha":0,"x_min":69,"x_max":764,"o":"m 69 903 l 764 903 l 764 778 l 69 778 l 69 903 z "},"̆":{"ha":0,"x_min":229,"x_max":604,"o":"m 346 736 q 325 744 333 736 l 238 832 q 229 853 229 840 l 229 903 l 340 903 l 340 882 l 396 826 l 438 826 l 493 882 l 493 903 l 604 903 l 604 853 q 596 832 604 840 l 508 744 q 488 736 500 736 l 346 736 z "},"̇":{"ha":0,"x_min":347,"x_max":486,"o":"m 347 903 l 486 903 l 486 736 l 347 736 l 347 903 z "},"̈":{"ha":0,"x_min":257,"x_max":576,"o":"m 438 903 l 576 903 l 576 736 l 438 736 l 438 903 m 257 903 l 396 903 l 396 736 l 257 736 l 257 903 z "},"̊":{"ha":0,"x_min":313,"x_max":521,"o":"m 313 903 l 521 903 l 521 694 l 313 694 l 313 903 m 446 769 l 446 828 l 388 828 l 388 769 l 446 769 z "},"̋":{"ha":0,"x_min":244,"x_max":590,"o":"m 476 903 l 590 903 l 517 736 l 403 736 l 476 903 m 318 903 l 432 903 l 358 736 l 244 736 l 318 903 z "},"̌":{"ha":0,"x_min":257,"x_max":576,"o":"m 299 813 l 257 813 l 257 903 l 347 903 l 417 833 l 486 903 l 576 903 l 576 813 l 535 813 l 458 736 l 375 736 l 299 813 z "},"̒":{"ha":0,"x_min":344,"x_max":489,"o":"m 344 954 l 489 954 l 489 899 l 418 899 l 418 864 l 489 864 l 489 736 l 344 736 l 344 954 z "},"̦":{"ha":0,"x_min":344,"x_max":489,"o":"m 344 56 l 415 56 l 415 90 l 344 90 l 344 218 l 489 218 l 489 0 l 344 0 l 344 56 z "},"̧":{"ha":0,"x_min":225,"x_max":533,"o":"m 225 111 l 394 111 l 297 208 l 436 208 l 525 119 q 533 99 533 111 l 533 0 l 225 0 l 225 111 z "},"̨":{"ha":0,"x_min":222,"x_max":625,"o":"m 222 250 l 403 250 l 514 139 l 625 139 l 625 0 l 472 0 l 222 250 z "},"Α":{"ha":833,"x_min":69,"x_max":764,"o":"m 69 613 q 78 633 69 625 l 347 903 l 347 972 l 486 972 l 486 903 l 756 633 q 764 613 764 625 l 764 0 l 625 0 l 625 278 l 208 278 l 208 0 l 69 0 l 69 613 m 625 417 l 625 556 l 417 764 l 208 556 l 208 417 l 625 417 z "},"Δ":{"ha":833,"x_min":69,"x_max":764,"o":"m 69 613 q 78 633 69 625 l 347 903 l 347 972 l 486 972 l 486 903 l 756 633 q 764 613 764 625 l 764 0 l 69 0 l 69 613 m 625 139 l 625 556 l 417 764 l 208 556 l 208 139 l 625 139 z "},"Λ":{"ha":833,"x_min":69,"x_max":764,"o":"m 69 613 q 78 633 69 625 l 347 903 l 347 972 l 486 972 l 486 903 l 756 633 q 764 613 764 625 l 764 0 l 625 0 l 625 556 l 417 764 l 208 556 l 208 0 l 69 0 l 69 613 z "},"Π":{"ha":833,"x_min":69,"x_max":764,"o":"m 69 972 l 764 972 l 764 0 l 625 0 l 625 833 l 208 833 l 208 0 l 69 0 l 69 972 z "},"Ω":{"ha":833,"x_min":69,"x_max":764,"o":"m 69 139 l 194 139 l 78 256 q 69 276 69 264 l 69 779 q 78 800 69 792 l 242 964 q 263 972 250 972 l 571 972 q 592 964 583 972 l 756 800 q 764 779 764 792 l 764 276 q 756 256 764 264 l 639 139 l 764 139 l 764 0 l 444 0 l 444 139 l 625 319 l 625 736 l 528 833 l 306 833 l 208 736 l 208 319 l 389 139 l 389 0 l 69 0 l 69 139 z "},"฿":{"ha":833,"x_min":69,"x_max":764,"o":"m 69 972 l 343 972 l 343 1076 l 482 1076 l 482 972 l 599 972 q 619 964 611 972 l 756 828 q 764 807 764 819 l 764 568 q 756 547 764 556 l 694 486 l 756 425 q 764 404 764 417 l 764 165 q 756 144 764 153 l 606 8 q 585 0 597 0 l 482 0 l 482 -104 l 343 -104 l 343 0 l 69 0 l 69 972 m 542 139 l 625 222 l 625 347 l 556 417 l 208 417 l 208 139 l 542 139 m 556 556 l 625 625 l 625 750 l 542 833 l 208 833 l 208 556 l 556 556 z "},"Ẁ":{"ha":833,"x_min":69,"x_max":764,"o":"m 69 972 l 208 972 l 208 347 l 375 514 l 458 514 l 625 347 l 625 972 l 764 972 l 764 0 l 625 0 l 625 208 l 556 208 l 417 347 l 278 208 l 208 208 l 208 0 l 69 0 l 69 972 m 240 1181 l 379 1181 l 486 1014 l 347 1014 l 240 1181 z "},"ẁ":{"ha":833,"x_min":69,"x_max":764,"o":"m 69 972 l 208 972 l 208 347 l 375 514 l 458 514 l 625 347 l 625 972 l 764 972 l 764 0 l 625 0 l 625 208 l 556 208 l 417 347 l 278 208 l 208 208 l 208 0 l 69 0 l 69 972 m 240 1181 l 379 1181 l 486 1014 l 347 1014 l 240 1181 z "},"Ẃ":{"ha":833,"x_min":69,"x_max":764,"o":"m 69 972 l 208 972 l 208 347 l 375 514 l 458 514 l 625 347 l 625 972 l 764 972 l 764 0 l 625 0 l 625 208 l 556 208 l 417 347 l 278 208 l 208 208 l 208 0 l 69 0 l 69 972 m 451 1181 l 590 1181 l 486 1014 l 347 1014 l 451 1181 z "},"ẃ":{"ha":833,"x_min":69,"x_max":764,"o":"m 69 972 l 208 972 l 208 347 l 375 514 l 458 514 l 625 347 l 625 972 l 764 972 l 764 0 l 625 0 l 625 208 l 556 208 l 417 347 l 278 208 l 208 208 l 208 0 l 69 0 l 69 972 m 451 1181 l 590 1181 l 486 1014 l 347 1014 l 451 1181 z "},"Ẅ":{"ha":833,"x_min":69,"x_max":764,"o":"m 69 972 l 208 972 l 208 347 l 375 514 l 458 514 l 625 347 l 625 972 l 764 972 l 764 0 l 625 0 l 625 208 l 556 208 l 417 347 l 278 208 l 208 208 l 208 0 l 69 0 l 69 972 m 438 1181 l 576 1181 l 576 1014 l 438 1014 l 438 1181 m 257 1181 l 396 1181 l 396 1014 l 257 1014 l 257 1181 z "},"ẅ":{"ha":833,"x_min":69,"x_max":764,"o":"m 69 972 l 208 972 l 208 347 l 375 514 l 458 514 l 625 347 l 625 972 l 764 972 l 764 0 l 625 0 l 625 208 l 556 208 l 417 347 l 278 208 l 208 208 l 208 0 l 69 0 l 69 972 m 438 1181 l 576 1181 l 576 1014 l 438 1014 l 438 1181 m 257 1181 l 396 1181 l 396 1014 l 257 1014 l 257 1181 z "},"Ẽ":{"ha":833,"x_min":69,"x_max":764,"o":"m 69 972 l 764 972 l 764 833 l 208 833 l 208 556 l 625 556 l 625 417 l 208 417 l 208 139 l 764 139 l 764 0 l 69 0 l 69 972 m 236 1083 l 333 1181 l 403 1181 l 469 1114 l 536 1181 l 597 1181 l 597 1111 l 500 1014 l 432 1014 l 365 1081 l 299 1014 l 236 1014 l 236 1083 z "},"ẽ":{"ha":833,"x_min":69,"x_max":764,"o":"m 69 972 l 764 972 l 764 833 l 208 833 l 208 556 l 625 556 l 625 417 l 208 417 l 208 139 l 764 139 l 764 0 l 69 0 l 69 972 m 236 1083 l 333 1181 l 403 1181 l 469 1114 l 536 1181 l 597 1181 l 597 1111 l 500 1014 l 432 1014 l 365 1081 l 299 1014 l 236 1014 l 236 1083 z "},"Ỳ":{"ha":833,"x_min":69,"x_max":764,"o":"m 347 451 l 78 721 q 69 742 69 729 l 69 972 l 208 972 l 208 799 l 417 590 l 625 799 l 625 972 l 764 972 l 764 742 q 756 721 764 729 l 486 451 l 486 0 l 347 0 l 347 451 m 240 1181 l 379 1181 l 486 1014 l 347 1014 l 240 1181 z "},"ỳ":{"ha":833,"x_min":69,"x_max":764,"o":"m 347 451 l 78 721 q 69 742 69 729 l 69 972 l 208 972 l 208 799 l 417 590 l 625 799 l 625 972 l 764 972 l 764 742 q 756 721 764 729 l 486 451 l 486 0 l 347 0 l 347 451 m 240 1181 l 379 1181 l 486 1014 l 347 1014 l 240 1181 z "},"Ỹ":{"ha":833,"x_min":69,"x_max":764,"o":"m 347 451 l 78 721 q 69 742 69 729 l 69 972 l 208 972 l 208 799 l 417 590 l 625 799 l 625 972 l 764 972 l 764 742 q 756 721 764 729 l 486 451 l 486 0 l 347 0 l 347 451 m 236 1083 l 333 1181 l 403 1181 l 469 1114 l 536 1181 l 597 1181 l 597 1111 l 500 1014 l 432 1014 l 365 1081 l 299 1014 l 236 1014 l 236 1083 z "},"ỹ":{"ha":833,"x_min":69,"x_max":764,"o":"m 347 451 l 78 721 q 69 742 69 729 l 69 972 l 208 972 l 208 799 l 417 590 l 625 799 l 625 972 l 764 972 l 764 742 q 756 721 764 729 l 486 451 l 486 0 l 347 0 l 347 451 m 236 1083 l 333 1181 l 403 1181 l 469 1114 l 536 1181 l 597 1181 l 597 1111 l 500 1014 l 432 1014 l 365 1081 l 299 1014 l 236 1014 l 236 1083 z "},"–":{"ha":833,"x_min":69,"x_max":764,"o":"m 69 556 l 764 556 l 764 417 l 69 417 l 69 556 z "},"—":{"ha":833,"x_min":69,"x_max":764,"o":"m 69 556 l 764 556 l 764 417 l 69 417 l 69 556 z "},"‘":{"ha":833,"x_min":333,"x_max":500,"o":"m 500 886 l 424 886 l 424 803 l 500 803 l 500 636 l 333 636 l 333 972 l 500 972 l 500 886 z "},"’":{"ha":833,"x_min":333,"x_max":500,"o":"m 333 722 l 410 722 l 410 806 l 333 806 l 333 972 l 500 972 l 500 636 l 333 636 l 333 722 z "},"‚":{"ha":833,"x_min":333,"x_max":500,"o":"m 333 -83 l 410 -83 l 410 0 l 333 0 l 333 167 l 500 167 l 500 -169 l 333 -169 l 333 -83 z "},"“":{"ha":833,"x_min":194,"x_max":639,"o":"m 361 886 l 285 886 l 285 803 l 361 803 l 361 636 l 194 636 l 194 972 l 361 972 l 361 886 m 472 972 l 639 972 l 639 886 l 563 886 l 563 803 l 639 803 l 639 636 l 472 636 l 472 972 z "},"”":{"ha":833,"x_min":194,"x_max":639,"o":"m 472 722 l 549 722 l 549 806 l 472 806 l 472 972 l 639 972 l 639 636 l 472 636 l 472 722 m 194 722 l 271 722 l 271 806 l 194 806 l 194 972 l 361 972 l 361 636 l 194 636 l 194 722 z "},"„":{"ha":833,"x_min":194,"x_max":639,"o":"m 472 -83 l 549 -83 l 549 0 l 472 0 l 472 167 l 639 167 l 639 -169 l 472 -169 l 472 -83 m 194 -83 l 271 -83 l 271 0 l 194 0 l 194 167 l 361 167 l 361 -169 l 194 -169 l 194 -83 z "},"†":{"ha":833,"x_min":69,"x_max":764,"o":"m 347 556 l 69 556 l 69 694 l 347 694 l 347 972 l 486 972 l 486 694 l 764 694 l 764 556 l 486 556 l 486 0 l 347 0 l 347 556 z "},"‡":{"ha":833,"x_min":69,"x_max":764,"o":"m 347 278 l 69 278 l 69 417 l 347 417 l 347 556 l 69 556 l 69 694 l 347 694 l 347 972 l 486 972 l 486 694 l 764 694 l 764 556 l 486 556 l 486 417 l 764 417 l 764 278 l 486 278 l 486 0 l 347 0 l 347 278 z "},"•":{"ha":833,"x_min":268,"x_max":565,"o":"m 304 347 q 278 358 289 347 q 268 382 268 368 l 268 610 q 278 635 268 625 q 303 644 289 644 l 531 644 q 556 635 546 644 q 565 610 565 625 l 565 382 q 556 358 565 368 q 531 347 546 347 l 304 347 z "},"…":{"ha":833,"x_min":83,"x_max":750,"o":"m 83 167 l 250 167 l 250 0 l 83 0 l 83 167 m 333 167 l 500 167 l 500 0 l 333 0 l 333 167 m 583 167 l 750 167 l 750 0 l 583 0 l 583 167 z "},"‰":{"ha":833,"x_min":69,"x_max":764,"o":"m 69 231 q 78 251 69 243 l 625 799 l 625 972 l 764 972 l 764 742 q 756 721 764 729 l 208 174 l 208 0 l 69 0 l 69 231 m 69 861 q 76 878 69 871 l 164 965 q 181 972 171 972 l 332 972 q 349 965 342 972 l 436 878 q 443 861 443 871 l 443 710 q 436 693 443 700 l 349 606 q 332 599 342 599 l 181 599 q 164 606 171 599 l 76 693 q 69 710 69 700 l 69 861 m 226 707 l 286 707 l 335 756 l 335 815 l 286 864 l 226 864 l 178 815 l 178 756 l 226 707 m 326 213 q 332 225 326 219 l 403 296 q 417 301 408 301 l 461 301 l 461 347 q 467 360 461 354 l 538 431 q 551 436 543 436 l 674 436 q 688 431 682 436 l 758 360 q 764 347 764 354 l 764 224 q 758 211 764 217 l 688 140 q 674 135 682 135 l 629 135 l 629 89 q 624 76 629 82 l 553 6 q 539 0 547 0 l 417 0 q 403 6 408 0 l 332 76 q 326 89 326 82 l 326 213 m 458 103 l 497 103 l 528 133 l 528 168 l 497 200 l 458 200 l 431 168 l 431 133 l 458 103 m 593 238 l 632 238 l 663 268 l 663 303 l 632 335 l 593 335 l 565 303 l 565 268 l 593 238 z "},"′":{"ha":833,"x_min":347,"x_max":486,"o":"m 347 972 l 486 972 l 486 583 l 347 583 l 347 972 z "},"″":{"ha":833,"x_min":208,"x_max":625,"o":"m 486 972 l 625 972 l 625 583 l 486 583 l 486 972 m 208 972 l 347 972 l 347 583 l 208 583 l 208 972 z "},"‹":{"ha":833,"x_min":243,"x_max":590,"o":"m 243 347 l 243 486 l 521 764 l 590 764 l 590 625 l 382 417 l 590 208 l 590 69 l 521 69 l 243 347 z "},"›":{"ha":833,"x_min":243,"x_max":590,"o":"m 243 208 l 451 417 l 243 625 l 243 764 l 313 764 l 590 486 l 590 347 l 313 69 l 243 69 l 243 208 z "},"⁄":{"ha":833,"x_min":69,"x_max":764,"o":"m 69 176 q 78 197 69 189 l 694 814 l 694 972 l 764 972 l 764 796 q 756 775 764 783 l 139 158 l 139 0 l 69 0 l 69 176 z "},"⁰":{"ha":833,"x_min":208,"x_max":625,"o":"m 307 389 q 294 394 300 389 l 214 475 q 208 488 208 481 l 208 874 q 214 886 208 881 l 294 967 q 307 972 300 972 l 526 972 q 539 967 533 972 l 619 886 q 625 874 625 881 l 625 488 q 619 475 625 481 l 539 394 q 526 389 533 389 l 307 389 m 342 472 l 492 472 l 542 522 l 542 743 l 333 535 l 292 535 l 292 522 l 342 472 m 500 826 l 542 826 l 542 839 l 492 889 l 342 889 l 292 839 l 292 618 l 500 826 z "},"⁴":{"ha":833,"x_min":208,"x_max":625,"o":"m 479 514 l 208 514 l 208 660 l 479 931 l 479 972 l 563 972 l 563 597 l 625 597 l 625 514 l 563 514 l 563 389 l 479 389 l 479 514 m 479 597 l 479 814 l 292 626 l 292 597 l 479 597 z "},"⁵":{"ha":833,"x_min":208,"x_max":625,"o":"m 307 389 q 294 394 300 389 l 214 475 q 208 488 208 481 l 208 597 l 292 597 l 292 522 l 342 472 l 492 472 l 542 522 l 542 631 l 492 681 l 208 681 l 208 972 l 625 972 l 625 889 l 292 889 l 292 764 l 526 764 q 539 758 533 764 l 619 678 q 625 665 625 672 l 625 488 q 619 475 625 481 l 539 394 q 526 389 533 389 l 307 389 z "},"⁶":{"ha":833,"x_min":208,"x_max":625,"o":"m 307 389 q 294 394 300 389 l 214 475 q 208 488 208 481 l 208 665 q 214 678 208 672 l 467 931 l 467 972 l 550 972 l 550 896 q 544 883 550 889 l 425 764 l 526 764 q 539 758 533 764 l 619 678 q 625 665 625 672 l 625 488 q 619 475 625 481 l 539 394 q 526 389 533 389 l 307 389 m 342 472 l 492 472 l 542 522 l 542 631 l 492 681 l 342 681 l 292 631 l 292 522 l 342 472 z "},"⁷":{"ha":833,"x_min":208,"x_max":625,"o":"m 208 507 q 214 519 208 514 l 542 847 l 542 889 l 208 889 l 208 972 l 625 972 l 625 806 l 292 472 l 292 389 l 208 389 l 208 507 z "},"⁸":{"ha":833,"x_min":208,"x_max":625,"o":"m 307 389 q 294 394 300 389 l 214 475 q 208 488 208 481 l 208 632 q 214 644 208 639 l 250 681 l 214 717 q 208 729 208 722 l 208 874 q 214 886 208 881 l 294 967 q 307 972 300 972 l 526 972 q 539 967 533 972 l 619 886 q 625 874 625 881 l 625 729 q 619 717 625 722 l 583 681 l 619 644 q 625 632 625 639 l 625 488 q 619 475 625 481 l 539 394 q 526 389 533 389 l 307 389 m 342 472 l 492 472 l 542 522 l 542 597 l 500 639 l 333 639 l 292 597 l 292 522 l 342 472 m 333 722 l 500 722 l 542 764 l 542 839 l 492 889 l 342 889 l 292 839 l 292 764 l 333 722 z "},"⁹":{"ha":833,"x_min":208,"x_max":625,"o":"m 283 465 q 289 478 283 472 l 408 597 l 307 597 q 294 603 300 597 l 214 683 q 208 696 208 689 l 208 874 q 214 886 208 881 l 294 967 q 307 972 300 972 l 526 972 q 539 967 533 972 l 619 886 q 625 874 625 881 l 625 696 q 619 683 625 689 l 367 431 l 367 389 l 283 389 l 283 465 m 342 681 l 492 681 l 542 731 l 542 839 l 492 889 l 342 889 l 292 839 l 292 731 l 342 681 z "},"₀":{"ha":833,"x_min":208,"x_max":625,"o":"m 307 0 q 294 6 300 0 l 214 86 q 208 99 208 92 l 208 485 q 214 497 208 492 l 294 578 q 307 583 300 583 l 526 583 q 539 578 533 583 l 619 497 q 625 485 625 492 l 625 99 q 619 86 625 92 l 539 6 q 526 0 533 0 l 307 0 m 342 83 l 492 83 l 542 133 l 542 354 l 333 146 l 292 146 l 292 133 l 342 83 m 500 438 l 542 438 l 542 450 l 492 500 l 342 500 l 292 450 l 292 229 l 500 438 z "},"₁":{"ha":833,"x_min":208,"x_max":625,"o":"m 208 83 l 375 83 l 375 500 l 208 500 l 208 583 l 458 583 l 458 83 l 625 83 l 625 0 l 208 0 l 208 83 z "},"₂":{"ha":833,"x_min":208,"x_max":625,"o":"m 208 83 l 292 83 l 292 125 l 542 375 l 542 450 l 492 500 l 342 500 l 292 450 l 292 375 l 208 375 l 208 485 q 214 497 208 492 l 294 578 q 307 583 300 583 l 526 583 q 539 578 533 583 l 619 497 q 625 485 625 492 l 625 340 q 619 328 625 333 l 375 83 l 625 83 l 625 0 l 208 0 l 208 83 z "},"₃":{"ha":833,"x_min":208,"x_max":625,"o":"m 307 0 q 294 6 300 0 l 214 86 q 208 99 208 92 l 208 208 l 292 208 l 292 133 l 342 83 l 492 83 l 542 133 l 542 208 l 500 250 l 375 250 l 375 333 l 500 333 l 542 375 l 542 450 l 492 500 l 342 500 l 292 450 l 292 375 l 208 375 l 208 485 q 214 497 208 492 l 294 578 q 307 583 300 583 l 526 583 q 539 578 533 583 l 619 497 q 625 485 625 492 l 625 340 q 619 328 625 333 l 583 292 l 619 256 q 625 243 625 250 l 625 99 q 619 86 625 92 l 539 6 q 526 0 533 0 l 307 0 z "},"₄":{"ha":833,"x_min":208,"x_max":625,"o":"m 479 125 l 208 125 l 208 271 l 479 542 l 479 583 l 563 583 l 563 208 l 625 208 l 625 125 l 563 125 l 563 0 l 479 0 l 479 125 m 479 208 l 479 425 l 292 238 l 292 208 l 479 208 z "},"₅":{"ha":833,"x_min":208,"x_max":625,"o":"m 307 0 q 294 6 300 0 l 214 86 q 208 99 208 92 l 208 208 l 292 208 l 292 133 l 342 83 l 492 83 l 542 133 l 542 242 l 492 292 l 208 292 l 208 583 l 625 583 l 625 500 l 292 500 l 292 375 l 526 375 q 539 369 533 375 l 619 289 q 625 276 625 283 l 625 99 q 619 86 625 92 l 539 6 q 526 0 533 0 l 307 0 z "},"₆":{"ha":833,"x_min":208,"x_max":625,"o":"m 307 0 q 294 6 300 0 l 214 86 q 208 99 208 92 l 208 276 q 214 289 208 283 l 467 542 l 467 583 l 550 583 l 550 507 q 544 494 550 500 l 425 375 l 526 375 q 539 369 533 375 l 619 289 q 625 276 625 283 l 625 99 q 619 86 625 92 l 539 6 q 526 0 533 0 l 307 0 m 342 83 l 492 83 l 542 133 l 542 242 l 492 292 l 342 292 l 292 242 l 292 133 l 342 83 z "},"₇":{"ha":833,"x_min":208,"x_max":625,"o":"m 208 118 q 214 131 208 125 l 542 458 l 542 500 l 208 500 l 208 583 l 625 583 l 625 417 l 292 83 l 292 0 l 208 0 l 208 118 z "},"₈":{"ha":833,"x_min":208,"x_max":625,"o":"m 307 0 q 294 6 300 0 l 214 86 q 208 99 208 92 l 208 243 q 214 256 208 250 l 250 292 l 214 328 q 208 340 208 333 l 208 485 q 214 497 208 492 l 294 578 q 307 583 300 583 l 526 583 q 539 578 533 583 l 619 497 q 625 485 625 492 l 625 340 q 619 328 625 333 l 583 292 l 619 256 q 625 243 625 250 l 625 99 q 619 86 625 92 l 539 6 q 526 0 533 0 l 307 0 m 342 83 l 492 83 l 542 133 l 542 208 l 500 250 l 333 250 l 292 208 l 292 133 l 342 83 m 333 333 l 500 333 l 542 375 l 542 450 l 492 500 l 342 500 l 292 450 l 292 375 l 333 333 z "},"₉":{"ha":833,"x_min":208,"x_max":625,"o":"m 283 76 q 289 89 283 83 l 408 208 l 307 208 q 294 214 300 208 l 214 294 q 208 307 208 300 l 208 485 q 214 497 208 492 l 294 578 q 307 583 300 583 l 526 583 q 539 578 533 583 l 619 497 q 625 485 625 492 l 625 307 q 619 294 625 300 l 367 42 l 367 0 l 283 0 l 283 76 m 342 292 l 492 292 l 542 342 l 542 450 l 492 500 l 342 500 l 292 450 l 292 342 l 342 292 z "},"₧":{"ha":833,"x_min":69,"x_max":764,"o":"m 139 604 l 69 604 l 69 743 l 139 743 l 139 972 l 529 972 q 550 964 542 972 l 686 828 q 694 807 694 819 l 694 743 l 764 743 l 764 604 l 694 604 l 694 540 q 686 519 694 528 l 550 383 q 529 375 542 375 l 278 375 l 278 0 l 139 0 l 139 604 m 472 514 l 556 597 l 556 604 l 278 604 l 278 514 l 472 514 m 556 743 l 556 750 l 472 833 l 278 833 l 278 743 l 556 743 z "},"₪":{"ha":833,"x_min":69,"x_max":764,"o":"m 254 743 l 393 743 l 393 139 l 542 139 l 625 222 l 625 972 l 764 972 l 764 165 q 756 144 764 153 l 619 8 q 599 0 611 0 l 254 0 l 254 743 m 69 972 l 414 972 q 435 964 426 972 l 571 828 q 579 807 579 819 l 579 229 l 440 229 l 440 750 l 357 833 l 208 833 l 208 0 l 69 0 l 69 972 z "},"€":{"ha":833,"x_min":69,"x_max":764,"o":"m 304 0 q 283 8 292 0 l 147 144 q 139 165 139 153 l 139 340 l 69 340 l 69 465 l 139 465 l 139 507 l 69 507 l 69 632 l 139 632 l 139 807 q 147 828 139 819 l 283 964 q 304 972 292 972 l 599 972 q 619 964 611 972 l 756 828 q 764 807 764 819 l 764 625 l 625 625 l 625 750 l 542 833 l 361 833 l 278 750 l 278 632 l 486 632 l 486 507 l 278 507 l 278 465 l 486 465 l 486 340 l 278 340 l 278 222 l 361 139 l 542 139 l 625 222 l 625 347 l 764 347 l 764 165 q 756 144 764 153 l 619 8 q 599 0 611 0 l 304 0 z "},"₱":{"ha":833,"x_min":69,"x_max":764,"o":"m 139 500 l 69 500 l 69 639 l 139 639 l 139 708 l 69 708 l 69 847 l 139 847 l 139 972 l 529 972 q 550 964 542 972 l 667 847 l 764 847 l 764 708 l 694 708 l 694 639 l 764 639 l 764 500 l 667 500 l 550 383 q 529 375 542 375 l 278 375 l 278 0 l 139 0 l 139 500 m 472 514 l 556 597 l 556 750 l 472 833 l 278 833 l 278 514 l 472 514 z "},"₲":{"ha":833,"x_min":69,"x_max":764,"o":"m 235 0 q 214 8 222 0 l 78 144 q 69 165 69 153 l 69 807 q 78 828 69 819 l 214 964 q 235 972 222 972 l 347 972 l 347 1076 l 486 1076 l 486 972 l 599 972 q 619 964 611 972 l 756 828 q 764 807 764 819 l 764 625 l 625 625 l 625 750 l 542 833 l 486 833 l 486 556 l 764 556 l 764 165 q 756 144 764 153 l 619 8 q 599 0 611 0 l 486 0 l 486 -104 l 347 -104 l 347 0 l 235 0 m 292 139 l 347 139 l 347 833 l 292 833 l 208 750 l 208 222 l 292 139 m 542 139 l 625 222 l 625 417 l 486 417 l 486 139 l 542 139 z "},"₳":{"ha":833,"x_min":69,"x_max":764,"o":"m 139 613 q 147 633 139 625 l 347 833 l 347 972 l 486 972 l 486 833 l 686 633 q 694 613 694 625 l 694 451 l 764 451 l 764 313 l 694 313 l 694 243 l 764 243 l 764 104 l 694 104 l 694 0 l 556 0 l 556 104 l 278 104 l 278 0 l 139 0 l 139 104 l 69 104 l 69 243 l 139 243 l 139 313 l 69 313 l 69 451 l 139 451 l 139 613 m 556 243 l 556 313 l 278 313 l 278 243 l 556 243 m 556 451 l 556 556 l 417 694 l 278 556 l 278 451 l 556 451 z "},"₴":{"ha":833,"x_min":69,"x_max":764,"o":"m 235 0 q 214 8 222 0 l 78 144 q 69 165 69 153 l 69 465 l 764 465 l 764 326 l 208 326 l 208 222 l 292 139 l 542 139 l 625 222 l 625 278 l 764 278 l 764 165 q 756 144 764 153 l 619 8 q 599 0 611 0 l 235 0 m 69 646 l 625 646 l 625 750 l 542 833 l 292 833 l 208 750 l 208 694 l 69 694 l 69 807 q 78 828 69 819 l 214 964 q 235 972 222 972 l 599 972 q 619 964 611 972 l 756 828 q 764 807 764 819 l 764 507 l 69 507 l 69 646 z "},"₸":{"ha":833,"x_min":69,"x_max":764,"o":"m 347 625 l 69 625 l 69 764 l 764 764 l 764 625 l 486 625 l 486 0 l 347 0 l 347 625 m 69 972 l 764 972 l 764 833 l 69 833 l 69 972 z "},"₹":{"ha":833,"x_min":69,"x_max":764,"o":"m 69 556 l 472 556 l 542 625 l 69 625 l 69 764 l 542 764 l 472 833 l 69 833 l 69 972 l 529 972 q 550 964 542 972 l 686 828 q 694 807 694 819 l 694 764 l 764 764 l 764 625 l 694 625 l 694 582 q 686 561 694 569 l 550 425 q 529 417 542 417 l 486 417 l 764 139 l 764 0 l 625 0 l 625 69 l 347 347 l 347 417 l 69 417 l 69 556 z "},"₺":{"ha":833,"x_min":69,"x_max":764,"o":"m 208 376 l 69 326 l 69 465 l 208 515 l 208 585 l 69 535 l 69 674 l 208 724 l 208 972 l 347 972 l 347 774 l 764 924 l 764 785 l 347 635 l 347 565 l 764 715 l 764 576 l 347 426 l 347 139 l 542 139 l 625 222 l 625 431 l 764 431 l 764 165 q 756 144 764 153 l 619 8 q 599 0 611 0 l 208 0 l 208 376 z "},"₽":{"ha":833,"x_min":69,"x_max":764,"o":"m 69 556 l 208 556 l 208 833 l 69 833 l 69 972 l 599 972 q 619 964 611 972 l 756 828 q 764 807 764 819 l 764 582 q 756 561 764 569 l 619 425 q 599 417 611 417 l 347 417 l 347 278 l 613 278 l 613 139 l 347 139 l 347 0 l 208 0 l 208 139 l 69 139 l 69 278 l 208 278 l 208 417 l 69 417 l 69 556 m 542 556 l 625 639 l 625 750 l 542 833 l 347 833 l 347 556 l 542 556 z "},"₿":{"ha":833,"x_min":69,"x_max":764,"o":"m 69 972 l 208 972 l 208 1076 l 347 1076 l 347 972 l 417 972 l 417 1076 l 556 1076 l 556 972 l 599 972 q 619 964 611 972 l 756 828 q 764 807 764 819 l 764 568 q 756 547 764 556 l 694 486 l 756 425 q 764 404 764 417 l 764 165 q 756 144 764 153 l 606 8 q 585 0 597 0 l 556 0 l 556 -104 l 417 -104 l 417 0 l 347 0 l 347 -104 l 208 -104 l 208 0 l 69 0 l 69 972 m 542 139 l 625 222 l 625 347 l 556 417 l 208 417 l 208 139 l 542 139 m 556 556 l 625 625 l 625 750 l 542 833 l 208 833 l 208 556 l 556 556 z "},"℗":{"ha":833,"x_min":69,"x_max":764,"o":"m 221 0 q 200 8 208 0 l 78 131 q 69 151 69 139 l 69 821 q 78 842 69 833 l 200 964 q 221 972 208 972 l 613 972 q 633 964 625 972 l 756 842 q 764 821 764 833 l 764 151 q 756 131 764 139 l 633 8 q 613 0 625 0 l 221 0 m 243 69 l 590 69 l 694 174 l 694 799 l 590 903 l 243 903 l 139 799 l 139 174 l 243 69 m 215 768 l 528 768 q 544 761 538 768 l 611 694 q 618 678 618 688 l 618 522 q 611 506 618 513 l 544 439 q 528 432 538 432 l 324 432 l 324 204 l 215 204 l 215 768 m 468 540 l 510 579 l 510 619 l 468 660 l 324 660 l 324 540 l 468 540 z "},"™":{"ha":833,"x_min":69,"x_max":764,"o":"m 431 972 l 514 972 l 514 872 l 539 872 l 597 814 l 656 872 l 681 872 l 681 972 l 764 972 l 764 531 l 681 531 l 681 789 l 617 725 l 579 725 l 514 789 l 514 531 l 431 531 l 431 972 m 69 972 l 383 972 l 383 889 l 269 889 l 269 531 l 186 531 l 186 889 l 69 889 l 69 972 z "},"⅓":{"ha":833,"x_min":69,"x_max":764,"o":"m 69 572 l 203 572 l 203 906 l 69 906 l 69 972 l 269 972 l 269 572 l 403 572 l 403 522 l 694 814 l 694 972 l 764 972 l 764 796 q 756 775 764 783 l 139 158 l 139 0 l 69 0 l 69 176 q 78 197 69 189 l 386 506 l 69 506 l 69 572 m 431 167 l 497 167 l 497 107 l 538 67 l 657 67 l 697 107 l 697 167 l 664 200 l 564 200 l 564 267 l 664 267 l 697 300 l 697 360 l 657 400 l 538 400 l 497 360 l 497 300 l 431 300 l 431 388 q 435 397 431 393 l 500 463 q 510 467 504 467 l 685 467 q 694 463 690 467 l 760 397 q 764 388 764 393 l 764 272 q 760 263 764 267 l 731 233 l 760 204 q 764 194 764 200 l 764 79 q 760 69 764 74 l 694 4 q 685 0 690 0 l 510 0 q 500 4 504 0 l 435 69 q 431 79 431 74 l 431 167 z "},"⅔":{"ha":833,"x_min":69,"x_max":764,"o":"m 69 572 l 136 572 l 136 606 l 336 806 l 336 865 l 296 906 l 176 906 l 136 865 l 136 806 l 69 806 l 69 893 q 74 903 69 899 l 139 968 q 149 972 143 972 l 324 972 q 333 968 329 972 l 399 903 q 403 893 403 899 l 403 778 q 399 768 403 772 l 203 572 l 403 572 l 403 522 l 694 814 l 694 972 l 764 972 l 764 796 q 756 775 764 783 l 139 158 l 139 0 l 69 0 l 69 176 q 78 197 69 189 l 386 506 l 69 506 l 69 572 m 431 167 l 497 167 l 497 107 l 538 67 l 657 67 l 697 107 l 697 167 l 664 200 l 564 200 l 564 267 l 664 267 l 697 300 l 697 360 l 657 400 l 538 400 l 497 360 l 497 300 l 431 300 l 431 388 q 435 397 431 393 l 500 463 q 510 467 504 467 l 685 467 q 694 463 690 467 l 760 397 q 764 388 764 393 l 764 272 q 760 263 764 267 l 731 233 l 760 204 q 764 194 764 200 l 764 79 q 760 69 764 74 l 694 4 q 685 0 690 0 l 510 0 q 500 4 504 0 l 435 69 q 431 79 431 74 l 431 167 z "},"⅕":{"ha":833,"x_min":69,"x_max":764,"o":"m 69 572 l 203 572 l 203 906 l 69 906 l 69 972 l 269 972 l 269 572 l 403 572 l 403 522 l 694 814 l 694 972 l 764 972 l 764 796 q 756 775 764 783 l 447 467 l 764 467 l 764 400 l 497 400 l 497 300 l 685 300 q 694 296 690 300 l 760 231 q 764 221 764 226 l 764 79 q 760 69 764 74 l 694 4 q 685 0 690 0 l 510 0 q 500 4 504 0 l 435 69 q 431 79 431 74 l 431 167 l 497 167 l 497 107 l 538 67 l 657 67 l 697 107 l 697 193 l 657 233 l 431 233 l 431 450 l 139 158 l 139 0 l 69 0 l 69 176 q 78 197 69 189 l 386 506 l 69 506 l 69 572 z "},"⅖":{"ha":833,"x_min":69,"x_max":764,"o":"m 69 572 l 136 572 l 136 606 l 336 806 l 336 865 l 296 906 l 176 906 l 136 865 l 136 806 l 69 806 l 69 893 q 74 903 69 899 l 139 968 q 149 972 143 972 l 324 972 q 333 968 329 972 l 399 903 q 403 893 403 899 l 403 778 q 399 768 403 772 l 203 572 l 403 572 l 403 522 l 694 814 l 694 972 l 764 972 l 764 796 q 756 775 764 783 l 447 467 l 764 467 l 764 400 l 497 400 l 497 300 l 685 300 q 694 296 690 300 l 760 231 q 764 221 764 226 l 764 79 q 760 69 764 74 l 694 4 q 685 0 690 0 l 510 0 q 500 4 504 0 l 435 69 q 431 79 431 74 l 431 167 l 497 167 l 497 107 l 538 67 l 657 67 l 697 107 l 697 193 l 657 233 l 431 233 l 431 450 l 139 158 l 139 0 l 69 0 l 69 176 q 78 197 69 189 l 386 506 l 69 506 l 69 572 z "},"⅗":{"ha":833,"x_min":69,"x_max":764,"o":"m 149 506 q 139 510 143 506 l 74 575 q 69 585 69 579 l 69 672 l 136 672 l 136 613 l 176 572 l 296 572 l 336 613 l 336 672 l 303 706 l 203 706 l 203 772 l 303 772 l 336 806 l 336 865 l 296 906 l 176 906 l 136 865 l 136 806 l 69 806 l 69 893 q 74 903 69 899 l 139 968 q 149 972 143 972 l 324 972 q 333 968 329 972 l 399 903 q 403 893 403 899 l 403 778 q 399 768 403 772 l 369 739 l 399 710 q 403 700 403 706 l 403 585 q 399 575 403 579 l 333 510 q 324 506 329 506 l 149 506 m 69 176 q 78 197 69 189 l 694 814 l 694 972 l 764 972 l 764 796 q 756 775 764 783 l 447 467 l 764 467 l 764 400 l 497 400 l 497 300 l 685 300 q 694 296 690 300 l 760 231 q 764 221 764 226 l 764 79 q 760 69 764 74 l 694 4 q 685 0 690 0 l 510 0 q 500 4 504 0 l 435 69 q 431 79 431 74 l 431 167 l 497 167 l 497 107 l 538 67 l 657 67 l 697 107 l 697 193 l 657 233 l 431 233 l 431 450 l 139 158 l 139 0 l 69 0 l 69 176 z "},"⅘":{"ha":833,"x_min":69,"x_max":764,"o":"m 286 606 l 69 606 l 69 722 l 286 939 l 286 972 l 353 972 l 353 672 l 403 672 l 403 606 l 353 606 l 353 506 l 286 506 l 286 606 m 69 176 q 78 197 69 189 l 694 814 l 694 972 l 764 972 l 764 796 q 756 775 764 783 l 447 467 l 764 467 l 764 400 l 497 400 l 497 300 l 685 300 q 694 296 690 300 l 760 231 q 764 221 764 226 l 764 79 q 760 69 764 74 l 694 4 q 685 0 690 0 l 510 0 q 500 4 504 0 l 435 69 q 431 79 431 74 l 431 167 l 497 167 l 497 107 l 538 67 l 657 67 l 697 107 l 697 193 l 657 233 l 431 233 l 431 450 l 139 158 l 139 0 l 69 0 l 69 176 m 286 672 l 286 846 l 136 696 l 136 672 l 286 672 z "},"⅙":{"ha":833,"x_min":69,"x_max":764,"o":"m 69 572 l 203 572 l 203 906 l 69 906 l 69 972 l 269 972 l 269 572 l 403 572 l 403 522 l 694 814 l 694 972 l 764 972 l 764 796 q 756 775 764 783 l 139 158 l 139 0 l 69 0 l 69 176 q 78 197 69 189 l 386 506 l 69 506 l 69 572 m 431 221 q 435 231 431 226 l 638 433 l 638 467 l 704 467 l 704 406 q 700 396 704 400 l 603 300 l 685 300 q 694 296 690 300 l 760 231 q 764 221 764 226 l 764 79 q 760 69 764 74 l 694 4 q 685 0 690 0 l 510 0 q 500 4 504 0 l 435 69 q 431 79 431 74 l 431 221 m 538 67 l 657 67 l 697 107 l 697 193 l 657 233 l 538 233 l 497 193 l 497 107 l 538 67 z "},"⅚":{"ha":833,"x_min":69,"x_max":764,"o":"m 149 506 q 139 510 143 506 l 74 575 q 69 585 69 579 l 69 672 l 136 672 l 136 613 l 176 572 l 296 572 l 336 613 l 336 699 l 296 739 l 69 739 l 69 972 l 403 972 l 403 906 l 136 906 l 136 806 l 324 806 q 333 801 329 806 l 399 736 q 403 726 403 732 l 403 585 q 399 575 403 579 l 333 510 q 324 506 329 506 l 149 506 m 69 176 q 78 197 69 189 l 694 814 l 694 972 l 764 972 l 764 796 q 756 775 764 783 l 139 158 l 139 0 l 69 0 l 69 176 m 510 0 q 500 4 504 0 l 435 69 q 431 79 431 74 l 431 221 q 435 231 431 226 l 638 433 l 638 467 l 704 467 l 704 406 q 700 396 704 400 l 603 300 l 685 300 q 694 296 690 300 l 760 231 q 764 221 764 226 l 764 79 q 760 69 764 74 l 694 4 q 685 0 690 0 l 510 0 m 538 67 l 657 67 l 697 107 l 697 193 l 657 233 l 538 233 l 497 193 l 497 107 l 538 67 z "},"⅛":{"ha":833,"x_min":69,"x_max":764,"o":"m 69 572 l 203 572 l 203 906 l 69 906 l 69 972 l 269 972 l 269 572 l 403 572 l 403 522 l 694 814 l 694 972 l 764 972 l 764 796 q 756 775 764 783 l 139 158 l 139 0 l 69 0 l 69 176 q 78 197 69 189 l 386 506 l 69 506 l 69 572 m 431 194 q 435 204 431 200 l 464 233 l 435 263 q 431 272 431 267 l 431 388 q 435 397 431 393 l 500 463 q 510 467 504 467 l 685 467 q 694 463 690 467 l 760 397 q 764 388 764 393 l 764 272 q 760 263 764 267 l 731 233 l 760 204 q 764 194 764 200 l 764 79 q 760 69 764 74 l 694 4 q 685 0 690 0 l 510 0 q 500 4 504 0 l 435 69 q 431 79 431 74 l 431 194 m 538 67 l 657 67 l 697 107 l 697 167 l 664 200 l 531 200 l 497 167 l 497 107 l 538 67 m 531 267 l 664 267 l 697 300 l 697 360 l 657 400 l 538 400 l 497 360 l 497 300 l 531 267 z "},"⅜":{"ha":833,"x_min":69,"x_max":764,"o":"m 149 506 q 139 510 143 506 l 74 575 q 69 585 69 579 l 69 672 l 136 672 l 136 613 l 176 572 l 296 572 l 336 613 l 336 672 l 303 706 l 203 706 l 203 772 l 303 772 l 336 806 l 336 865 l 296 906 l 176 906 l 136 865 l 136 806 l 69 806 l 69 893 q 74 903 69 899 l 139 968 q 149 972 143 972 l 324 972 q 333 968 329 972 l 399 903 q 403 893 403 899 l 403 778 q 399 768 403 772 l 369 739 l 399 710 q 403 700 403 706 l 403 585 q 399 575 403 579 l 333 510 q 324 506 329 506 l 149 506 m 69 176 q 78 197 69 189 l 694 814 l 694 972 l 764 972 l 764 796 q 756 775 764 783 l 139 158 l 139 0 l 69 0 l 69 176 m 510 0 q 500 4 504 0 l 435 69 q 431 79 431 74 l 431 194 q 435 204 431 200 l 464 233 l 435 263 q 431 272 431 267 l 431 388 q 435 397 431 393 l 500 463 q 510 467 504 467 l 685 467 q 694 463 690 467 l 760 397 q 764 388 764 393 l 764 272 q 760 263 764 267 l 731 233 l 760 204 q 764 194 764 200 l 764 79 q 760 69 764 74 l 694 4 q 685 0 690 0 l 510 0 m 538 67 l 657 67 l 697 107 l 697 167 l 664 200 l 531 200 l 497 167 l 497 107 l 538 67 m 531 267 l 664 267 l 697 300 l 697 360 l 657 400 l 538 400 l 497 360 l 497 300 l 531 267 z "},"⅝":{"ha":833,"x_min":69,"x_max":764,"o":"m 149 506 q 139 510 143 506 l 74 575 q 69 585 69 579 l 69 672 l 136 672 l 136 613 l 176 572 l 296 572 l 336 613 l 336 699 l 296 739 l 69 739 l 69 972 l 403 972 l 403 906 l 136 906 l 136 806 l 324 806 q 333 801 329 806 l 399 736 q 403 726 403 732 l 403 585 q 399 575 403 579 l 333 510 q 324 506 329 506 l 149 506 m 69 176 q 78 197 69 189 l 694 814 l 694 972 l 764 972 l 764 796 q 756 775 764 783 l 139 158 l 139 0 l 69 0 l 69 176 m 510 0 q 500 4 504 0 l 435 69 q 431 79 431 74 l 431 194 q 435 204 431 200 l 464 233 l 435 263 q 431 272 431 267 l 431 388 q 435 397 431 393 l 500 463 q 510 467 504 467 l 685 467 q 694 463 690 467 l 760 397 q 764 388 764 393 l 764 272 q 760 263 764 267 l 731 233 l 760 204 q 764 194 764 200 l 764 79 q 760 69 764 74 l 694 4 q 685 0 690 0 l 510 0 m 538 67 l 657 67 l 697 107 l 697 167 l 664 200 l 531 200 l 497 167 l 497 107 l 538 67 m 531 267 l 664 267 l 697 300 l 697 360 l 657 400 l 538 400 l 497 360 l 497 300 l 531 267 z "},"⅞":{"ha":833,"x_min":69,"x_max":764,"o":"m 69 600 q 74 610 69 606 l 336 872 l 336 906 l 69 906 l 69 972 l 403 972 l 403 839 l 136 572 l 136 506 l 69 506 l 69 600 m 69 176 q 78 197 69 189 l 694 814 l 694 972 l 764 972 l 764 796 q 756 775 764 783 l 139 158 l 139 0 l 69 0 l 69 176 m 510 0 q 500 4 504 0 l 435 69 q 431 79 431 74 l 431 194 q 435 204 431 200 l 464 233 l 435 263 q 431 272 431 267 l 431 388 q 435 397 431 393 l 500 463 q 510 467 504 467 l 685 467 q 694 463 690 467 l 760 397 q 764 388 764 393 l 764 272 q 760 263 764 267 l 731 233 l 760 204 q 764 194 764 200 l 764 79 q 760 69 764 74 l 694 4 q 685 0 690 0 l 510 0 m 538 67 l 657 67 l 697 107 l 697 167 l 664 200 l 531 200 l 497 167 l 497 107 l 538 67 m 531 267 l 664 267 l 697 300 l 697 360 l 657 400 l 538 400 l 497 360 l 497 300 l 531 267 z "},"←":{"ha":833,"x_min":69,"x_max":764,"o":"m 388 125 q 367 133 375 125 l 69 431 l 69 514 l 367 811 q 388 819 375 819 l 444 819 l 444 696 l 290 542 l 764 542 l 764 403 l 290 403 l 444 249 l 444 125 l 388 125 z "},"↑":{"ha":833,"x_min":69,"x_max":764,"o":"m 69 654 q 78 675 69 667 l 375 972 l 458 972 l 756 675 q 764 654 764 667 l 764 597 l 640 597 l 486 751 l 486 278 l 347 278 l 347 751 l 193 597 l 69 597 l 69 654 z "},"→":{"ha":833,"x_min":69,"x_max":764,"o":"m 389 249 l 543 403 l 69 403 l 69 542 l 543 542 l 389 696 l 389 819 l 446 819 q 467 811 458 819 l 764 514 l 764 431 l 467 133 q 446 125 458 125 l 389 125 l 389 249 z "},"↓":{"ha":833,"x_min":69,"x_max":764,"o":"m 78 297 q 69 318 69 306 l 69 375 l 193 375 l 347 221 l 347 694 l 486 694 l 486 221 l 640 375 l 764 375 l 764 318 q 756 297 764 306 l 458 0 l 375 0 l 78 297 z "},"↕":{"ha":833,"x_min":69,"x_max":764,"o":"m 69 654 q 78 675 69 667 l 375 972 l 458 972 l 756 675 q 764 654 764 667 l 764 597 l 640 597 l 486 751 l 486 221 l 640 375 l 764 375 l 764 318 q 756 297 764 306 l 458 0 l 375 0 l 78 297 q 69 318 69 306 l 69 375 l 193 375 l 347 221 l 347 751 l 193 597 l 69 597 l 69 654 z "},"↖":{"ha":833,"x_min":132,"x_max":701,"o":"m 140 472 q 132 493 132 481 l 132 914 l 190 972 l 611 972 q 632 964 624 972 l 672 924 l 585 836 l 367 836 l 701 501 l 603 403 l 268 738 l 268 519 l 181 432 l 140 472 z "},"↗":{"ha":833,"x_min":132,"x_max":701,"o":"m 565 519 l 565 738 l 231 403 l 132 501 l 467 836 l 249 836 l 161 924 l 201 964 q 222 972 210 972 l 643 972 l 701 914 l 701 493 q 693 472 701 481 l 653 432 l 565 519 z "},"↘":{"ha":833,"x_min":132,"x_max":701,"o":"m 222 0 q 201 8 210 0 l 161 49 l 249 136 l 467 136 l 132 471 l 231 569 l 565 235 l 565 453 l 653 540 l 693 500 q 701 479 701 492 l 701 58 l 643 0 l 222 0 z "},"↙":{"ha":833,"x_min":132,"x_max":701,"o":"m 132 58 l 132 479 q 140 500 132 492 l 181 540 l 268 453 l 268 235 l 603 569 l 701 471 l 367 136 l 585 136 l 672 49 l 632 8 q 611 0 624 0 l 190 0 l 132 58 z "},"↤":{"ha":833,"x_min":69,"x_max":764,"o":"m 388 125 q 367 133 375 125 l 69 431 l 69 514 l 367 811 q 388 819 375 819 l 444 819 l 444 696 l 290 542 l 625 542 l 625 828 l 764 828 l 764 133 l 625 133 l 625 403 l 290 403 l 444 249 l 444 125 l 388 125 z "},"↥":{"ha":833,"x_min":69,"x_max":764,"o":"m 69 654 q 78 675 69 667 l 375 972 l 458 972 l 756 675 q 764 654 764 667 l 764 597 l 640 597 l 486 751 l 486 139 l 764 139 l 764 0 l 69 0 l 69 139 l 347 139 l 347 751 l 193 597 l 69 597 l 69 654 z "},"↦":{"ha":833,"x_min":69,"x_max":764,"o":"m 389 249 l 543 403 l 208 403 l 208 133 l 69 133 l 69 828 l 208 828 l 208 542 l 543 542 l 389 696 l 389 819 l 446 819 q 467 811 458 819 l 764 514 l 764 431 l 467 133 q 446 125 458 125 l 389 125 l 389 249 z "},"↧":{"ha":833,"x_min":69,"x_max":764,"o":"m 78 297 q 69 318 69 306 l 69 375 l 193 375 l 347 221 l 347 833 l 69 833 l 69 972 l 764 972 l 764 833 l 486 833 l 486 221 l 640 375 l 764 375 l 764 318 q 756 297 764 306 l 458 0 l 375 0 l 78 297 z "},"↰":{"ha":833,"x_min":69,"x_max":764,"o":"m 388 125 q 367 133 375 125 l 69 431 l 69 514 l 367 811 q 388 819 375 819 l 444 819 l 444 696 l 290 542 l 764 542 l 764 0 l 625 0 l 625 403 l 290 403 l 444 249 l 444 125 l 388 125 z "},"↱":{"ha":833,"x_min":69,"x_max":764,"o":"m 389 249 l 543 403 l 208 403 l 208 0 l 69 0 l 69 542 l 543 542 l 389 696 l 389 819 l 446 819 q 467 811 458 819 l 764 514 l 764 431 l 467 133 q 446 125 458 125 l 389 125 l 389 249 z "},"↲":{"ha":833,"x_min":69,"x_max":764,"o":"m 388 125 q 367 133 375 125 l 69 431 l 69 514 l 367 811 q 388 819 375 819 l 444 819 l 444 696 l 290 542 l 625 542 l 625 972 l 764 972 l 764 403 l 290 403 l 444 249 l 444 125 l 388 125 z "},"↳":{"ha":833,"x_min":69,"x_max":764,"o":"m 389 249 l 543 403 l 69 403 l 69 972 l 208 972 l 208 542 l 543 542 l 389 696 l 389 819 l 446 819 q 467 811 458 819 l 764 514 l 764 431 l 467 133 q 446 125 458 125 l 389 125 l 389 249 z "},"∂":{"ha":833,"x_min":69,"x_max":764,"o":"m 235 0 q 214 8 222 0 l 78 144 q 69 165 69 153 l 69 529 q 78 550 69 542 l 214 686 q 235 694 222 694 l 403 694 l 264 833 l 69 833 l 69 972 l 321 972 q 342 964 333 972 l 756 550 q 764 529 764 542 l 764 165 q 756 144 764 153 l 619 8 q 599 0 611 0 l 235 0 m 292 139 l 542 139 l 625 222 l 625 472 l 542 556 l 292 556 l 208 472 l 208 222 l 292 139 z "},"∆":{"ha":833,"x_min":69,"x_max":764,"o":"m 69 613 q 78 633 69 625 l 347 903 l 347 972 l 486 972 l 486 903 l 756 633 q 764 613 764 625 l 764 0 l 69 0 l 69 613 m 625 139 l 625 556 l 417 764 l 208 556 l 208 139 l 625 139 z "},"∏":{"ha":833,"x_min":69,"x_max":764,"o":"m 486 833 l 347 833 l 347 0 l 208 0 l 208 833 l 69 833 l 69 972 l 764 972 l 764 833 l 625 833 l 625 0 l 486 0 l 486 833 z "},"∑":{"ha":833,"x_min":69,"x_max":764,"o":"m 69 196 q 78 217 69 208 l 347 486 l 78 756 q 69 776 69 764 l 69 972 l 764 972 l 764 833 l 208 833 l 514 528 l 514 444 l 208 139 l 764 139 l 764 0 l 69 0 l 69 196 z "},"−":{"ha":833,"x_min":69,"x_max":764,"o":"m 69 556 l 764 556 l 764 417 l 69 417 l 69 556 z "},"√":{"ha":833,"x_min":69,"x_max":764,"o":"m 139 264 l 69 264 l 69 403 l 210 403 l 472 139 l 472 972 l 764 972 l 764 833 l 611 833 l 611 0 l 403 0 l 139 264 z "},"∞":{"ha":833,"x_min":69,"x_max":764,"o":"m 485 181 q 464 189 472 181 l 417 236 l 369 189 q 349 181 361 181 l 207 181 q 186 189 194 181 l 78 297 q 69 318 69 306 l 69 599 q 78 619 69 611 l 186 728 q 207 736 194 736 l 349 736 q 369 728 361 736 l 417 681 l 464 728 q 485 736 472 736 l 626 736 q 647 728 639 736 l 756 619 q 764 599 764 611 l 764 318 q 756 297 764 306 l 647 189 q 626 181 639 181 l 485 181 m 278 306 l 347 375 l 347 542 l 278 611 l 208 542 l 208 375 l 278 306 m 556 306 l 625 375 l 625 542 l 556 611 l 486 542 l 486 375 l 556 306 z "},"∫":{"ha":833,"x_min":69,"x_max":764,"o":"m 69 139 l 208 139 l 347 278 l 347 738 q 356 758 347 750 l 561 964 q 582 972 569 972 l 764 972 l 764 833 l 625 833 l 486 694 l 486 235 q 478 214 486 222 l 272 8 q 251 0 264 0 l 69 0 l 69 139 z "},"≈":{"ha":833,"x_min":69,"x_max":764,"o":"m 69 601 l 271 803 l 343 803 l 526 621 l 708 803 l 764 803 l 764 664 l 563 463 l 492 463 l 308 646 l 125 463 l 69 463 l 69 601 m 69 308 l 271 510 l 343 510 l 526 328 l 708 510 l 764 510 l 764 371 l 563 169 l 492 169 l 308 353 l 125 169 l 69 169 l 69 308 z "},"≠":{"ha":833,"x_min":69,"x_max":764,"o":"m 267 278 l 69 278 l 69 417 l 315 417 l 365 556 l 69 556 l 69 694 l 414 694 l 463 833 l 615 833 l 567 694 l 764 694 l 764 556 l 518 556 l 468 417 l 764 417 l 764 278 l 419 278 l 371 139 l 218 139 l 267 278 z "},"≡":{"ha":833,"x_min":69,"x_max":764,"o":"m 69 833 l 764 833 l 764 694 l 69 694 l 69 833 m 69 278 l 764 278 l 764 139 l 69 139 l 69 278 m 69 556 l 764 556 l 764 417 l 69 417 l 69 556 z "},"≤":{"ha":833,"x_min":69,"x_max":764,"o":"m 360 208 q 339 217 347 208 l 69 486 l 69 569 l 339 839 q 360 847 347 847 l 764 847 l 764 708 l 417 708 l 236 528 l 417 347 l 764 347 l 764 208 l 360 208 m 69 139 l 764 139 l 764 0 l 69 0 l 69 139 z "},"≥":{"ha":833,"x_min":69,"x_max":764,"o":"m 69 347 l 417 347 l 597 528 l 417 708 l 69 708 l 69 847 l 474 847 q 494 839 486 847 l 764 569 l 764 486 l 494 217 q 474 208 486 208 l 69 208 l 69 347 m 69 139 l 764 139 l 764 0 l 69 0 l 69 139 z "},"⊹":{"ha":833,"x_min":69,"x_max":764,"o":"m 549 556 l 764 556 l 764 417 l 549 417 l 549 556 m 69 556 l 285 556 l 285 417 l 69 417 l 69 556 m 347 354 l 486 354 l 486 139 l 347 139 l 347 354 m 347 833 l 486 833 l 486 618 l 347 618 l 347 833 z "},"⋮":{"ha":833,"x_min":333,"x_max":500,"o":"m 333 667 l 500 667 l 500 500 l 333 500 l 333 667 m 333 167 l 500 167 l 500 0 l 333 0 l 333 167 m 333 417 l 500 417 l 500 250 l 333 250 l 333 417 z "},"■":{"ha":833,"x_min":69,"x_max":764,"o":"m 97 0 q 78 8 86 0 q 69 28 69 17 l 69 944 q 78 964 69 956 q 97 972 86 972 l 736 972 q 756 964 747 972 q 764 944 764 956 l 764 28 q 756 8 764 17 q 736 0 747 0 l 97 0 z "},"□":{"ha":833,"x_min":69,"x_max":764,"o":"m 97 0 q 78 8 86 0 q 69 28 69 17 l 69 944 q 78 964 69 956 q 97 972 86 972 l 736 972 q 756 964 747 972 q 764 944 764 956 l 764 28 q 756 8 764 17 q 736 0 747 0 l 97 0 m 625 139 l 625 833 l 208 833 l 208 139 l 625 139 z "},"◊":{"ha":833,"x_min":69,"x_max":764,"o":"m 78 290 q 69 311 69 299 l 69 661 q 78 682 69 674 l 368 972 l 465 972 l 756 682 q 764 661 764 674 l 764 311 q 756 290 764 299 l 465 0 l 368 0 l 78 290 m 417 149 l 625 357 l 625 622 l 417 831 l 208 622 l 208 357 l 417 149 z "},"○":{"ha":833,"x_min":69,"x_max":764,"o":"m 415 129 q 242 176 322 129 q 116 304 163 224 q 69 478 69 385 q 116 651 69 571 q 242 779 163 732 q 415 826 322 826 q 590 779 510 826 q 717 651 671 732 q 764 478 764 571 q 717 304 764 385 q 590 176 671 224 q 415 129 510 129 m 208 478 q 237 374 208 422 q 313 297 265 326 q 415 268 360 268 q 520 297 472 268 q 597 374 568 326 q 625 478 625 422 q 597 581 625 533 q 520 658 568 629 q 415 688 472 688 q 313 658 360 688 q 237 581 265 629 q 208 478 208 533 z "},"◌":{"ha":833,"x_min":69,"x_max":764,"o":"m 676 576 q 642 590 656 576 q 628 624 628 603 q 642 657 628 643 q 676 671 656 671 q 710 656 696 671 q 725 624 725 642 q 710 590 725 603 q 676 576 696 576 m 69 478 q 84 512 69 497 q 118 526 99 526 q 152 512 138 526 q 167 478 167 497 q 152 444 167 458 q 118 431 138 431 q 84 444 99 431 q 69 478 69 458 m 111 333 q 126 366 111 353 q 160 379 140 379 q 192 366 179 379 q 204 333 204 353 q 192 299 204 313 q 160 286 179 286 q 125 299 139 286 q 111 333 111 313 m 111 624 q 126 657 111 643 q 160 671 140 671 q 191 657 178 671 q 204 624 204 643 q 192 590 204 603 q 160 576 179 576 q 125 590 139 576 q 111 624 111 603 m 224 219 q 237 252 224 239 q 271 265 250 265 q 305 252 292 265 q 318 219 318 239 q 305 186 318 200 q 271 172 292 172 q 237 186 250 172 q 224 219 224 200 m 224 738 q 238 770 224 756 q 271 785 251 785 q 305 770 292 785 q 318 738 318 756 q 305 703 318 717 q 271 690 292 690 q 237 703 250 690 q 224 738 224 717 m 369 178 q 383 210 369 197 q 417 224 397 224 q 451 210 436 224 q 465 178 465 197 q 451 144 465 157 q 417 131 438 131 q 383 144 397 131 q 369 178 369 157 m 369 778 q 383 812 369 799 q 417 825 397 825 q 451 812 438 825 q 465 778 465 799 q 451 744 465 757 q 417 732 438 732 q 383 744 396 732 q 369 778 369 757 m 517 219 q 530 252 517 239 q 564 265 543 265 q 597 252 583 265 q 611 219 611 239 q 597 187 611 201 q 564 172 583 172 q 530 186 543 172 q 517 219 517 200 m 517 738 q 531 770 517 756 q 564 785 544 785 q 597 770 582 785 q 611 738 611 756 q 597 703 611 717 q 564 690 583 690 q 530 703 543 690 q 517 738 517 717 m 628 333 q 642 366 628 353 q 676 379 656 379 q 710 366 696 379 q 725 333 725 353 q 710 299 725 313 q 676 286 696 286 q 642 299 656 286 q 628 333 628 313 m 671 478 q 685 513 671 499 q 719 526 699 526 q 751 512 738 526 q 764 478 764 497 q 751 444 764 458 q 719 431 738 431 q 685 444 699 431 q 671 478 671 458 z "},"●":{"ha":833,"x_min":69,"x_max":764,"o":"m 415 129 q 242 176 322 129 q 116 304 163 224 q 69 478 69 385 q 116 651 69 571 q 242 779 163 732 q 415 826 322 826 q 590 779 510 826 q 717 651 671 732 q 764 478 764 571 q 717 304 764 385 q 590 176 671 224 q 415 129 510 129 z "},"✓":{"ha":833,"x_min":69,"x_max":764,"o":"m 69 388 l 168 482 l 307 328 l 671 692 l 764 597 l 300 133 l 69 388 z "},"⤒":{"ha":833,"x_min":69,"x_max":764,"o":"m 69 515 q 78 536 69 528 l 375 833 l 69 833 l 69 972 l 764 972 l 764 833 l 458 833 l 756 536 q 764 515 764 528 l 764 458 l 640 458 l 486 613 l 486 0 l 347 0 l 347 613 l 193 458 l 69 458 l 69 515 z "},"⤓":{"ha":833,"x_min":69,"x_max":764,"o":"m 78 436 q 69 457 69 444 l 69 514 l 193 514 l 347 360 l 347 972 l 486 972 l 486 360 l 640 514 l 764 514 l 764 457 q 756 436 764 444 l 458 139 l 764 139 l 764 0 l 69 0 l 69 139 l 375 139 l 78 436 z "},"⧄":{"ha":833,"x_min":69,"x_max":764,"o":"m 97 0 q 78 8 86 0 q 69 28 69 17 l 69 944 q 78 964 69 956 q 97 972 86 972 l 736 972 q 756 964 747 972 q 764 944 764 956 l 764 28 q 756 8 764 17 q 736 0 747 0 l 97 0 m 571 833 l 208 833 l 208 289 l 571 833 m 625 139 l 625 683 l 263 139 l 625 139 z "},"《":{"ha":833,"x_min":69,"x_max":764,"o":"m 306 446 l 306 526 l 613 972 l 764 972 l 431 486 l 764 0 l 613 0 l 306 446 m 69 526 l 376 972 l 528 972 l 194 486 l 528 0 l 376 0 l 69 446 l 69 526 z "},"》":{"ha":833,"x_min":69,"x_max":764,"o":"m 639 486 l 306 972 l 457 972 l 764 526 l 764 446 l 457 0 l 306 0 l 639 486 m 403 486 l 69 972 l 221 972 l 528 526 l 528 446 l 221 0 l 69 0 l 403 486 z "},"「":{"ha":833,"x_min":319,"x_max":694,"o":"m 319 972 l 694 972 l 694 833 l 458 833 l 458 347 l 319 347 l 319 972 z "},"」":{"ha":833,"x_min":139,"x_max":514,"o":"m 139 139 l 375 139 l 375 625 l 514 625 l 514 0 l 139 0 l 139 139 z "},"【":{"ha":833,"x_min":319,"x_max":694,"o":"m 319 972 l 694 972 l 694 833 l 542 833 l 458 750 l 458 222 l 542 139 l 694 139 l 694 0 l 319 0 l 319 972 z "},"】":{"ha":833,"x_min":139,"x_max":514,"o":"m 139 139 l 292 139 l 375 222 l 375 750 l 292 833 l 139 833 l 139 972 l 514 972 l 514 0 l 139 0 l 139 139 z "},"":{"ha":833,"x_min":69,"x_max":764,"o":"m 201 738 l 340 738 l 340 458 l 564 683 l 764 683 l 764 546 l 624 546 l 303 226 l 201 226 l 201 738 m 69 139 l 764 139 l 764 0 l 69 0 l 69 139 m 69 972 l 764 972 l 764 838 l 69 838 l 69 972 z "}}}
